<?xml version="1.0" encoding="utf-8"?>
<!-- Generator: Adobe Illustrator 17.1.0, SVG Export Plug-In . SVG Version: 6.00 Build 0)  -->
<!DOCTYPE svg PUBLIC "-//W3C//DTD SVG 1.1//EN" "http://www.w3.org/Graphics/SVG/1.1/DTD/svg11.dtd">
<svg version="1.1" id="Calque_1" xmlns="http://www.w3.org/2000/svg" xmlns:xlink="http://www.w3.org/1999/xlink" x="0px" y="0px"
	 viewBox="1006.5 187.9 100 100" enable-background="new 1006.5 187.9 100 100" xml:space="preserve">
<g id="IhTwWG.tif">
	<g>
		<path fill="#FFFFFF" d="M1047.6,212.7c6,0,12,0,18.1,0c-0.4,0-0.9,0-1.3,0.1c-1,0.1-2,0.2-2.9,0.3c0,0,0,0.1,0,0.1
			c0.1,0.1,0.2,0.1,0.3,0.2c4.5,2.7,7.9,6.3,10.5,10.8c0.2,0.3,0.3,0.4,0.6,0.4c3.2,0,6.3,0,9.5,0c7.1,0.1,12.9,5.9,13.1,13
			c0.2,7.6-5.8,13.7-13.4,13.7c-5.6,0-11.1,0-16.7,0c-4.7-0.1-8.5-2-11.1-5.9c-3.1-4.8-3.1-9.7-0.1-14.7c0.1-0.1,0.2-0.3,0.3-0.4
			c-0.1-0.1-0.3-0.2-0.4-0.3c-1.8-1.4-3.9-2.1-6.2-2.1c-1.5,0-3,0-4.5,0c-0.3,0-0.5,0.1-0.6,0.4c-1.9,4.8-2.4,9.7-1.4,14.8
			c2.5,11.8,12.7,20.1,24.8,20.1c5,0,10.1,0,15.1,0c2,0,4-0.2,6-0.7c13.5-3.3,21.7-16.4,18.8-30c-2.2-10.3-11-18.4-21.5-19.6
			c-1-0.1-1.9-0.2-2.9-0.2c8.4,0,16.8,0,25.1,0c0,16.9,0,33.8,0,50.7c-33.4,0-66.7,0-100.1,0c0-16.9,0-33.8,0-50.7
			c8.3,0,16.7,0,25,0c-0.2,0-0.5,0-0.7,0.1c-1.3,0.1-2.5,0.2-3.8,0.4c-14.3,2.7-23.4,17.1-19.7,31.2c2.9,11.2,12.9,18.9,24.5,18.9
			c5,0,10.1,0,15.1,0c1.2,0,2.3-0.1,3.5-0.2c0.4,0,0.8-0.1,1.3-0.2c-0.2-0.1-0.2-0.2-0.3-0.2c-4.5-2.7-8.1-6.4-10.6-11
			c-0.1-0.2-0.3-0.3-0.5-0.3c-3.1,0-6.2,0-9.2,0c-0.8,0-1.6-0.1-2.3-0.2c-6.7-1.2-11.5-7.2-11-14c0.5-7,6.3-12.5,13.2-12.5
			c5.6,0,11.3-0.1,16.9,0c4.7,0.1,8.5,2,11,6c3.1,4.8,3,9.7,0.2,14.6c-0.1,0.2-0.2,0.3-0.3,0.5c0.1,0.1,0.3,0.2,0.4,0.3
			c1.8,1.4,3.8,2,6.1,2.1c1.6,0,3.1,0,4.7,0c0.3,0,0.5-0.1,0.6-0.4c2-5,2.4-10,1.3-15.2c-2.3-10.2-11-18.2-21.4-19.4
			C1049.4,212.8,1048.5,212.8,1047.6,212.7z"/>
		<path d="M1047.6,212.7c0.9,0.1,1.9,0.1,2.8,0.2c10.4,1.2,19.1,9.2,21.4,19.4c1.2,5.2,0.7,10.3-1.3,15.2c-0.1,0.3-0.3,0.4-0.6,0.4
			c-1.6,0-3.1,0-4.7,0c-2.2,0-4.3-0.7-6.1-2.1c-0.1-0.1-0.3-0.2-0.4-0.3c0.1-0.2,0.2-0.3,0.3-0.5c2.9-4.9,2.9-9.8-0.2-14.6
			c-2.5-3.9-6.3-5.9-11-6c-5.6-0.1-11.3,0-16.9,0c-7,0-12.8,5.5-13.2,12.5c-0.4,6.8,4.3,12.9,11,14c0.8,0.1,1.6,0.2,2.3,0.2
			c3.1,0,6.2,0,9.2,0c0.2,0,0.4,0,0.5,0.3c2.5,4.6,6.1,8.3,10.6,11c0.1,0,0.1,0.1,0.3,0.2c-0.5,0.1-0.9,0.2-1.3,0.2
			c-1.2,0.1-2.3,0.2-3.5,0.2c-5,0-10.1,0-15.1,0c-11.6,0-21.6-7.7-24.5-18.9c-3.7-14.1,5.4-28.5,19.7-31.2c1.2-0.2,2.5-0.3,3.8-0.4
			c0.2,0,0.5,0,0.7-0.1C1036.9,212.7,1042.3,212.7,1047.6,212.7z"/>
		<path d="M1081.5,212.7c1,0.1,1.9,0.1,2.9,0.2c10.5,1.2,19.3,9.3,21.5,19.6c2.9,13.6-5.3,26.7-18.8,30c-2,0.5-4,0.7-6,0.7
			c-5,0-10.1,0-15.1,0c-12.1,0-22.3-8.3-24.8-20.1c-1.1-5.1-0.6-10,1.4-14.8c0.1-0.3,0.3-0.4,0.6-0.4c1.5,0,3,0,4.5,0
			c2.3,0,4.4,0.7,6.2,2.1c0.1,0.1,0.2,0.2,0.4,0.3c-0.1,0.2-0.2,0.3-0.3,0.4c-2.9,4.9-3,9.9,0.1,14.7c2.6,3.9,6.4,5.9,11.1,5.9
			c5.6,0.1,11.1,0,16.7,0c7.6,0,13.6-6.2,13.4-13.7c-0.2-7.1-6-12.9-13.1-13c-3.2,0-6.3,0-9.5,0c-0.3,0-0.5-0.1-0.6-0.4
			c-2.5-4.6-6-8.2-10.5-10.8c-0.1-0.1-0.2-0.1-0.3-0.2c0,0,0-0.1,0-0.1c1-0.1,2-0.2,2.9-0.3c0.4,0,0.9-0.1,1.3-0.1
			C1070.9,212.7,1076.2,212.7,1081.5,212.7z"/>
	</g>
</g>
</svg>
