<?xml version="1.0" encoding="utf-8"?>
<!-- Generator: Adobe Illustrator 17.1.0, SVG Export Plug-In . SVG Version: 6.00 Build 0)  -->
<!DOCTYPE svg PUBLIC "-//W3C//DTD SVG 1.1//EN" "http://www.w3.org/Graphics/SVG/1.1/DTD/svg11.dtd">
<svg version="1.1" id="Calque_1" xmlns="http://www.w3.org/2000/svg" xmlns:xlink="http://www.w3.org/1999/xlink" x="0px" y="0px"
	 viewBox="0 0 100 100" enable-background="new 0 0 100 100" xml:space="preserve">
<g id="Your_Icon">
	<path d="M50,10c13.5,0,24.4,10.9,24.4,24.4C74.4,47.8,50,82,50,82S25.6,47.8,25.6,34.4C25.6,20.9,36.5,10,50,10 M50,0
		C31,0,15.6,15.4,15.6,34.4c0,4.8,1.4,13.5,13.6,34c6.2,10.5,12.4,19.1,12.6,19.5L50,99.2l8.1-11.4c0.3-0.4,6.4-9,12.6-19.5
		c12.2-20.5,13.6-29.2,13.6-34C84.4,15.4,69,0,50,0L50,0z"/>
	<path d="M60,34c0,5.5-4.5,10-10,10c-5.5,0-10-4.5-10-10c0-5.5,4.5-10,10-10C55.5,24,60,28.5,60,34z"/>
</g>
</svg>
