<?xml version="1.0" encoding="utf-8"?>
<!-- Generator: Adobe Illustrator 17.1.0, SVG Export Plug-In . SVG Version: 6.00 Build 0)  -->
<!DOCTYPE svg PUBLIC "-//W3C//DTD SVG 1.1//EN" "http://www.w3.org/Graphics/SVG/1.1/DTD/svg11.dtd">
<svg version="1.1" id="Calque_1" xmlns="http://www.w3.org/2000/svg" xmlns:xlink="http://www.w3.org/1999/xlink" x="0px" y="0px"
	 viewBox="408 196 100 100" enable-background="new 408 196 100 100" xml:space="preserve">
<g>
	<path d="M473.4,205l0.1,0.1l23.8,1.7l1.7,23.8l0.1,0.1L442.9,287l-25.8-25.8L473.4,205 M473.4,196c-2.3,0-4.6,0.9-6.4,2.6
		l-56.3,56.3c-3.5,3.5-3.5,9.2,0,12.7l25.8,25.8c1.8,1.8,4.1,2.6,6.4,2.6s4.6-0.9,6.4-2.6l56.3-56.3c2.3-2.3,3.1-5.5,2.4-8.5
		l-1.6-22.5c-0.3-4.5-3.9-8-8.3-8.3l-22.5-1.6C474.8,196.1,474.1,196,473.4,196L473.4,196z"/>
</g>
<circle cx="484.5" cy="219.6" r="5.7"/>
</svg>
