<?xml version="1.0" encoding="utf-8"?>
<!-- Generator: Adobe Illustrator 17.1.0, SVG Export Plug-In . SVG Version: 6.00 Build 0)  -->
<!DOCTYPE svg PUBLIC "-//W3C//DTD SVG 1.1//EN" "http://www.w3.org/Graphics/SVG/1.1/DTD/svg11.dtd">
<svg version="1.1" id="Calque_1" xmlns="http://www.w3.org/2000/svg" xmlns:xlink="http://www.w3.org/1999/xlink" x="0px" y="0px"
	 viewBox="0 0 176.9 45.3" enable-background="new 0 0 176.9 45.3" xml:space="preserve">
<g>
	<path d="M0,7.2V0h32v7.2H20.3v31.9h-8.6V7.2H0z"/>
	<path d="M34.3,10.8V16h0.1c0.4-0.9,0.9-1.7,1.5-2.4c0.6-0.7,1.3-1.4,2.1-1.9c0.8-0.5,1.7-0.9,2.6-1.2c0.9-0.3,1.9-0.4,2.8-0.4
		c0.5,0,1.1,0.1,1.7,0.3v7.2c-0.4-0.1-0.8-0.1-1.3-0.2c-0.5-0.1-1-0.1-1.5-0.1c-1.4,0-2.6,0.2-3.6,0.7c-1,0.5-1.8,1.1-2.4,1.9
		c-0.6,0.8-1,1.8-1.3,2.9c-0.3,1.1-0.4,2.3-0.4,3.6v12.8h-7.8V10.8H34.3z"/>
	<path d="M93.8,15.9c-1.2,0-2.3,0.3-3.1,0.8c-0.8,0.6-1.5,1.3-2.1,2.2c-0.5,0.9-0.9,1.9-1.1,3c-0.2,1.1-0.3,2.1-0.3,3.2
		c0,1,0.1,2.1,0.3,3.1c0.2,1.1,0.6,2,1.1,2.9c0.5,0.9,1.2,1.6,2,2.1c0.8,0.5,1.9,0.8,3.1,0.8c1.9,0,3.3-0.5,4.3-1.6
		c1-1,1.6-2.4,1.9-4.2h7.5c-0.5,3.8-2,6.6-4.4,8.6c-2.4,2-5.5,3-9.3,3c-2.1,0-4.1-0.4-5.8-1.1c-1.8-0.7-3.3-1.7-4.5-3
		c-1.2-1.3-2.2-2.8-2.9-4.6c-0.7-1.8-1-3.7-1-5.8c0-2.2,0.3-4.2,1-6.1c0.6-1.9,1.6-3.5,2.8-4.9c1.2-1.4,2.8-2.4,4.5-3.2
		c1.8-0.8,3.8-1.1,6.1-1.1c1.7,0,3.3,0.2,4.8,0.7c1.6,0.4,2.9,1.1,4.2,2c1.2,0.9,2.2,2,3,3.3c0.8,1.3,1.2,2.9,1.3,4.7h-7.6
		C99,17.5,97.1,15.9,93.8,15.9z"/>
	<path d="M117,32.3c1.2,1.1,2.8,1.7,5,1.7c1.6,0,2.9-0.4,4.1-1.2c1.1-0.8,1.8-1.6,2.1-2.5h6.8c-1.1,3.4-2.8,5.8-5,7.3
		c-2.3,1.5-5,2.2-8.2,2.2c-2.2,0-4.2-0.4-6-1.1c-1.8-0.7-3.3-1.7-4.5-3c-1.2-1.3-2.2-2.9-2.9-4.7c-0.7-1.8-1-3.8-1-6
		c0-2.1,0.3-4.1,1-5.9c0.7-1.8,1.7-3.4,3-4.7c1.3-1.3,2.8-2.4,4.6-3.1c1.8-0.8,3.7-1.1,5.9-1.1c2.4,0,4.5,0.5,6.3,1.4
		c1.8,0.9,3.3,2.2,4.4,3.8c1.2,1.6,2,3.4,2.5,5.4c0.5,2,0.7,4.1,0.5,6.3h-20.4C115.2,29.4,115.8,31.2,117,32.3z M125.8,17.4
		c-0.9-1-2.3-1.5-4.2-1.5c-1.2,0-2.3,0.2-3.1,0.6c-0.8,0.4-1.5,0.9-2,1.6c-0.5,0.6-0.8,1.3-1,2c-0.2,0.7-0.3,1.3-0.4,1.9h12.6
		C127.4,19.9,126.7,18.4,125.8,17.4z"/>
	<g>
		<path fill="#00D88D" d="M53.9,33c-0.2-0.2-0.5-0.3-0.7-0.3c0.1,0.2,0.1,0.4,0.2,0.6c0.3,0.5,0.6,0.8,1,1.1
			c0.2,0.1,0.3,0.2,0.5,0.3c0-0.2,0-0.4-0.1-0.6C54.7,33.6,54.3,33.3,53.9,33z"/>
		<path fill="#00D88D" d="M59.1,34c-0.4-0.2-0.7-0.5-1-0.8c-0.2-0.2-0.4-0.5-0.6-0.8c-0.3-0.3-0.5-0.6-0.8-0.9
			c-0.2-0.2-0.5-0.3-0.8-0.3c-0.1,0-0.3,0-0.4,0c-0.3,0-0.5-0.1-0.7-0.2c-0.2-0.1-0.5-0.3-0.7-0.4c-0.3-0.1-0.6-0.2-0.9-0.2
			c0,0.2-0.1,0.4-0.1,0.6c0.4,0,0.7,0,1.1,0.1c0.5,0.1,1,0.2,1.4,0.5c0.4,0.3,0.7,0.5,1.1,0.8c0.3,0.2,0.5,0.5,0.6,0.9
			c0,0.1,0,0.2,0.1,0.3c0,0.2,0.1,0.4,0.4,0.4c0.1,0,0.2,0,0.3,0.1c0,0,0.1,0,0.1,0c0.1,0.2,0.3,0.3,0.4,0.5
			c0.1,0.2,0.2,0.3,0.3,0.5c0.2,0,0.3,0,0.5,0C59.1,34.7,59.1,34.4,59.1,34C59.2,34.1,59.1,34,59.1,34z"/>
		<path fill="#00D88D" d="M57.7,29.6c-0.5-0.2-1-0.3-1.5-0.4c-0.5-0.1-1-0.3-1.4-0.4c-0.1,0-0.2-0.1-0.3-0.2c0,0,0,0,0,0
			c-0.1,0.1-0.3,0.2-0.4,0.3c0,0,0,0,0.1,0.1c0.2,0.1,0.4,0.3,0.7,0.4c0.3,0.1,0.6,0.2,0.9,0.3c0.4,0.1,0.9,0.2,1.3,0.3
			c0.5,0.1,1,0.3,1.4,0.5c0.1,0,0.2,0.1,0.3,0.1c0-0.1,0-0.2-0.1-0.2C58.4,29.9,58.1,29.7,57.7,29.6z"/>
		<path fill="#00D88D" d="M55.7,27.9c-0.4,0.1-0.7,0.3-1,0.5c0.2,0,0.4,0,0.6,0c0.5,0.1,1,0.3,1.5,0.5c0.2,0,0.3,0.1,0.5,0.1
			c0-0.3-0.2-0.5-0.4-0.7c-0.2-0.2-0.5-0.3-0.8-0.3C56,27.9,55.9,27.9,55.7,27.9z"/>
		<path fill="#00D88D" d="M63.2,28.3c-0.4-0.3-0.9-0.6-1.4-0.9c-0.3-0.2-0.7-0.3-1-0.5c-0.2,0-0.4,0.1-0.5,0.1
			c0.2,0.1,0.3,0.1,0.5,0.2c0.5,0.3,1.1,0.6,1.6,1c0.4,0.3,0.9,0.6,1.3,0.9c0.1,0.1,0.3,0.2,0.4,0.3c0,0,0-0.1,0-0.1
			C63.8,28.9,63.5,28.6,63.2,28.3z"/>
		<path fill="#00D88D" d="M56.9,17.7c0.5,0.1,1,0.2,1.5,0.3c0.4,0.1,0.8,0.2,1.2,0.3c0.4,0.1,0.8,0.1,1.3,0c0.2,0,0.2,0,0.2,0.1
			c0,0.1,0,0.2,0.2,0.2c0-0.1,0-0.1,0-0.2c0-0.1-0.1-0.3-0.1-0.4c0-0.1-0.1-0.2-0.2-0.2c-0.4-0.1-0.8-0.2-1.2-0.3
			c-0.4-0.1-0.7-0.2-1.1-0.3c-0.4-0.1-0.7-0.2-1.1-0.2c-0.4-0.1-0.8-0.1-1.2-0.2c-0.2,0-0.5-0.1-0.7-0.1c-0.2,0-0.3,0-0.5,0
			c-0.2,0.2-0.4,0.3-0.5,0.6c0.3,0.1,0.7,0.1,1,0.2C56.2,17.5,56.5,17.6,56.9,17.7z"/>
		<path fill="#00D88D" d="M56.5,27.6c0,0,0.1,0,0.1-0.1c-0.1,0-0.2,0.1-0.3,0.1c0,0,0,0,0,0C56.4,27.7,56.5,27.7,56.5,27.6z"/>
		<path fill="#00D88D" d="M55.5,19.8c0.5,0.1,0.9,0.2,1.4,0.4c0.7,0.2,1.3,0.4,1.9,0.7c0.4,0.2,0.8,0.4,1.2,0.6c0,0,0.1,0,0.1,0
			c0.3-0.1,0.6,0.1,0.9,0.2c0.3,0.1,0.5,0.3,0.7,0.4c0.2-0.1,0.4-0.1,0.6-0.2c-0.2-0.1-0.4-0.2-0.6-0.3c-0.4-0.2-0.7-0.5-1.1-0.7
			c-0.3-0.2-0.7-0.3-1-0.5c-0.5-0.2-1-0.3-1.5-0.3c-0.1,0-0.3,0-0.4-0.1c-0.3-0.2-0.6-0.4-1-0.5c-0.4-0.1-0.8-0.1-1.2-0.1
			c-0.1,0-0.3,0-0.4-0.1c-0.1-0.1-0.3-0.2-0.5-0.3c-0.2-0.1-0.4-0.2-0.7-0.2C54,19.1,54,19.4,54,19.6c0,0,0,0,0,0
			C54.5,19.7,55,19.7,55.5,19.8z"/>
		<path fill="#00D88D" d="M55.9,32.5C55.8,32.5,55.8,32.5,55.9,32.5c-0.1-0.3-0.2-0.4-0.4-0.6c-0.4-0.4-0.9-0.5-1.5-0.6
			c0,0-0.1,0.1-0.1,0.1c0,0.1,0,0.2,0,0.3c0,0.1-0.1,0.1-0.2,0.1c-0.2-0.1-0.5-0.1-0.7-0.2c0,0.2,0,0.5,0.1,0.7
			c0.1,0,0.2,0.1,0.2,0.1c0.4,0.2,0.7,0.4,1.1,0.7c0.4,0.3,0.7,0.6,1,1c0.2,0.3,0.4,0.5,0.5,0.8c0,0,0,0.1,0.1,0.1c0,0,0,0,0.1,0
			c0,0,0.1,0,0.2,0c0,0,0,0,0,0c0-0.4-0.1-0.7-0.2-1.1c-0.2-0.5-0.6-0.9-1-1.3c-0.2-0.2-0.5-0.4-0.8-0.6c0,0,0,0-0.1-0.1
			c0.1,0,0.2,0,0.2,0c0.4,0,0.8,0.2,1.1,0.5c0.2,0.2,0.4,0.4,0.6,0.6c0.1,0.1,0.2,0.2,0.3,0.3c-0.2,0.1-0.2,0.2-0.1,0.3
			c0.2,0.2,0.4,0.4,0.7,0.6c0,0,0,0,0.1,0c0,0,0-0.1,0-0.1c0.1-0.4,0-0.7-0.2-1C56.6,32.8,56.3,32.6,55.9,32.5z"/>
		<path fill="#00D88D" d="M57.9,31.1c-0.3-0.2-0.6-0.5-1-0.7c-0.3-0.2-0.7-0.3-1-0.5c-0.2-0.1-0.4-0.1-0.6-0.2
			c-0.3-0.1-0.7-0.1-1-0.3c-0.2-0.1-0.4-0.3-0.5-0.5c-0.1,0.1-0.2,0.3-0.3,0.5c0,0,0,0,0,0c0.7,0.2,1.3,0.5,1.9,0.8
			c0.4,0.2,0.8,0.5,1.2,0.8c0.3,0.3,0.6,0.5,0.8,0.9c0,0,0.1,0.1,0.1,0.1c0.1,0,0.2,0,0.2,0.1c0.4,0.1,0.8,0.3,1,0.7
			c0.2,0.3,0.3,0.6,0.5,0.9c0.2,0.3,0.3,0.6,0.5,0.9c0.1,0.1,0.1,0.2,0.2,0.2c0.1,0,0.2,0,0.3-0.1c-0.1-0.7-0.4-1.4-0.8-2.1
			C59,32.2,58.5,31.6,57.9,31.1z"/>
		<path fill="#00D88D" d="M63.9,27.2c-0.1,0-0.1,0-0.1,0c-0.1-0.2-0.2-0.3-0.3-0.5c-0.1-0.1-0.2-0.2-0.4-0.3c-0.1,0-0.1,0.1-0.2,0.1
			c-0.1,0-0.3,0.1-0.4,0.1c0.4,0.3,0.9,0.6,1.3,0.9c0.1,0.1,0.4,0.2,0.4,0.3v-0.6C64.1,27.1,64,27.1,63.9,27.2z"/>
		<path fill="#00D88D" d="M57.3,16.1c0.2,0,0.4,0.1,0.5,0.3c0,0,0,0,0,0c0,0.1,0.1,0.1,0.2,0.1c0.3,0,0.6,0,0.9,0
			c0.4,0,0.7,0,1.1,0.1c0.2,0,0.3,0.1,0.5,0.2c0,0,0-0.1,0-0.1c0-0.2-0.1-0.4-0.3-0.6c-0.2-0.2-0.4-0.3-0.7-0.3
			c-0.3-0.1-0.3-0.1-0.5,0.1c-0.1,0.1-0.1,0.1-0.2,0.1c-0.3-0.1-0.5-0.1-0.8-0.2c-0.1,0-0.3-0.1-0.4-0.1c-0.5,0.1-0.9,0.2-1.3,0.3
			C56.7,16.1,57,16.1,57.3,16.1z"/>
		<path fill="#00D88D" d="M60.7,31.9c-0.2-0.3-0.4-0.5-0.6-0.8c0,0,0-0.1-0.1-0.2c0.1,0,0.2,0,0.2,0c0.3,0.1,0.5,0.3,0.6,0.5
			c0.1,0.2,0.3,0.5,0.5,0.7c0.2,0.1,0.3,0.3,0.5,0.3c0,0,0-0.1,0-0.1c-0.1-0.3-0.3-0.5-0.4-0.8c-0.1-0.1-0.2-0.3-0.3-0.4
			c-0.2-0.2-0.3-0.3-0.5-0.5c-0.4-0.4-0.8-0.7-1.2-1c-0.4-0.2-0.8-0.5-1.2-0.7c-0.2-0.1-0.4-0.2-0.6-0.2c0,0,0,0,0,0
			c0.3,0.3,0.6,0.5,1,0.8c0.2,0.1,0.3,0.3,0.5,0.4c0.3,0.2,0.5,0.3,0.8,0.5c0,0,0.1,0.1,0,0.1c0,0.1-0.1,0.1-0.3,0.1
			c-0.1-0.1-0.2-0.1-0.4-0.2c0,0,0,0,0,0c0,0,0,0.1,0.1,0.1c0.2,0.3,0.4,0.6,0.7,0.9c0.2,0.3,0.5,0.7,0.7,1.1
			c0.2,0.3,0.3,0.5,0.5,0.8c0.1,0.3,0.3,0.5,0.4,0.8c0.2-0.1,0.4-0.3,0.6-0.4c-0.2-0.4-0.5-0.7-0.8-1C61.2,32.5,60.9,32.2,60.7,31.9
			z"/>
		<path fill="#00D88D" d="M58,34.8c-0.1-0.1-0.3-0.2-0.5-0.3c0,0,0,0,0,0c0,0,0,0.1,0,0.1c0,0.2,0.1,0.3,0.1,0.5c0.1,0,0.1,0,0.2,0
			c0.1,0,0.3,0,0.4,0C58.1,35,58.1,34.9,58,34.8z"/>
		<path fill="#00D88D" d="M55.3,18.6c0.1,0,0.2-0.1,0.2-0.2c0,0,0-0.1,0-0.1c0-0.1,0-0.1-0.1-0.1c-0.2,0-0.4,0-0.6-0.1
			c-0.1,0-0.3,0-0.4,0c-0.1,0.2-0.2,0.4-0.2,0.6C54.5,18.7,54.9,18.7,55.3,18.6z"/>
		<path fill="#00D88D" d="M62.9,30.7c-0.2-0.4-0.5-0.8-0.8-1.1c-0.2-0.2-0.4-0.5-0.6-0.6c-0.4-0.4-0.8-0.7-1.2-1.1
			c-0.4-0.3-0.7-0.5-1.1-0.7c-0.2,0-0.5,0.1-0.7,0.1c0.2,0.1,0.4,0.2,0.6,0.3c0.4,0.2,0.7,0.5,1.1,0.8c0.3,0.3,0.7,0.6,1,0.9
			c0.3,0.3,0.6,0.7,0.9,1c0.4,0.4,0.7,0.9,1,1.4c0.1,0.2,0.3,0.4,0.4,0.6c0,0,0-0.1,0.1-0.1c0,0,0,0,0,0
			C63.3,31.6,63.1,31.1,62.9,30.7z"/>
		<path fill="#00D88D" d="M63.7,26c0.1,0.1,0.3,0.2,0.4,0.3v-0.6C64,25.8,63.9,25.9,63.7,26z"/>
		<path fill="#00D88D" d="M61.8,16.3c0,0,0.1-0.1,0.1-0.1c0,0,0.1-0.1,0.1-0.1c0,0,0.1,0.1,0.1,0.1c0,0.1,0,0.2,0,0.3
			c0.2,0,0.4,0.1,0.6,0.1c0.2,0,0.3,0,0.4,0.1c-0.1-0.1-0.3-0.2-0.5-0.3c-0.5-0.3-1-0.5-1.6-0.5c0,0-0.1,0-0.1,0.1c0,0,0,0.1,0,0.1
			C61,16.2,61.6,16.4,61.8,16.3z"/>
		<path fill="#00D88D" d="M60.7,33.4c-0.1-0.2-0.2-0.4-0.3-0.7c0-0.1-0.2-0.2-0.2-0.1c-0.1,0-0.1,0.1,0,0.2c0.1,0.2,0.1,0.3,0.2,0.5
			c0.1,0.4,0.3,0.9,0.4,1.3c0.2-0.1,0.3-0.1,0.5-0.2c0,0,0-0.1,0-0.1C61,34.1,60.9,33.8,60.7,33.4z"/>
		<path fill="#00D88D" d="M63.3,21.2c0-0.1,0.1-0.2,0.1-0.2c0-0.1,0.1-0.2,0.1-0.2c-2-1.1-4-2-6.3-2.3c-0.1,0-0.2,0-0.2,0
			c0,0,0,0,0,0.1c0.2,0.1,0.4,0.2,0.6,0.3c0.4,0.2,0.8,0.3,1.2,0.5c0.4,0.2,0.9,0.3,1.3,0.4c0.5,0.2,1,0.4,1.5,0.6
			c0.5,0.2,1,0.5,1.5,0.8C63.2,21.1,63.3,21.1,63.3,21.2z"/>
		<path fill="#00D88D" d="M63.4,31.1c0,0,0,0.1,0,0.2c0.1,0.1,0.2,0.1,0.3,0.2c0-0.1,0.1-0.2,0.1-0.3c-0.1,0-0.2-0.1-0.3-0.1
			C63.5,31,63.5,31,63.4,31.1z"/>
		<path fill="#00D88D" d="M62.5,29c0,0.2,0,0.4,0.1,0.6c0.2,0.3,0.4,0.5,0.6,0.7c0.2,0.2,0.4,0.4,0.6,0.6c0-0.2,0.1-0.3,0.1-0.5
			c0,0,0-0.1,0-0.1c-0.4-0.4-0.8-0.7-1.2-1.1C62.7,29.1,62.6,29.1,62.5,29z"/>
		<path fill="#00D88D" d="M61.8,27.1c0.5,0.3,1,0.6,1.5,0.9c0.1,0.1,0.3,0.2,0.4,0.3c0,0,0,0,0,0c-0.2-0.2-0.4-0.5-0.6-0.7
			c-0.3-0.3-0.7-0.6-1.1-0.9c-0.2,0.1-0.5,0.1-0.7,0.2C61.5,26.9,61.7,27,61.8,27.1z"/>
		<path fill="#00D88D" d="M60.4,20.1c-0.5-0.2-1-0.4-1.6-0.5c-0.3,0-0.6-0.1-0.8-0.1c0,0-0.1,0-0.1,0c0,0,0,0,0,0
			c1.6,0.9,3.3,1.5,5,2.3c0,0,0.1,0,0.1-0.1c-0.2-0.2-0.4-0.4-0.7-0.5c-0.3-0.2-0.7-0.4-1-0.6C61,20.4,60.7,20.2,60.4,20.1z"/>
		<path fill="#00D88D" d="M56.9,35.1C56.9,35.1,57,35.1,56.9,35.1C57,35.1,57,35.1,56.9,35.1C56.9,35.1,56.9,35.1,56.9,35.1z"/>
		<path fill="#00D88D" d="M64,18.5c0-0.1,0-0.2-0.1-0.3c-0.1,0-0.1,0.1-0.2,0.2c0,0,0,0,0,0C63.9,18.5,64,18.5,64,18.5z"/>
		<path fill="#00D88D" d="M61.7,17.3c0.1,0.2,0.4,0.3,0.3,0.6c0.3-0.2,0.5-0.1,0.7,0c0.1,0.1,0.2,0.1,0.3,0.2c0.1,0,0.2,0.1,0.3,0.1
			c0-0.3-0.1-0.5-0.3-0.6c-0.2-0.2-0.5-0.4-0.9-0.5c-0.4-0.1-0.8-0.3-1.2-0.4c-0.2-0.1-0.2,0-0.2,0.2C60.8,17.2,61.2,17.5,61.7,17.3
			z"/>
		<path fill="#00D88D" d="M61.5,18.5c0,0.1,0,0.1,0.1,0.1c0.1,0.2,0.4,0.4,0.6,0.5c0.3,0.1,0.6,0.3,0.9,0.3c0.3,0.1,0.5,0.1,0.8,0.1
			c0.1,0,0.1,0,0.2,0c0,0,0-0.1,0-0.1c0,0,0,0,0-0.1c-0.2-0.1-0.3-0.2-0.5-0.3c-0.3-0.2-0.7-0.4-1-0.5
			C62.3,18.6,61.9,18.5,61.5,18.5z"/>
		<path fill="#00D88D" d="M57.4,30.2C57.4,30.2,57.4,30.2,57.4,30.2c0.7,1,1.7,1.7,2.6,2.4c0,0,0,0,0,0c-0.1-0.2-0.1-0.4-0.2-0.6
			c-0.2-0.3-0.4-0.5-0.6-0.7c-0.5-0.4-1-0.7-1.5-1C57.6,30.3,57.5,30.3,57.4,30.2z"/>
		<path fill="#00D88D" d="M53.6,30c-0.1-0.1-0.1-0.1-0.2-0.2c0,0.1-0.1,0.1-0.1,0.2c0.1,0,0.3,0.1,0.5,0.1
			C53.7,30.1,53.6,30.1,53.6,30z"/>
		<path fill="#00D88D" d="M60.7,30.1c0.1,0.3,0.3,0.5,0.5,0.6c0.1,0.1,0.2,0.2,0.4,0.3c0.1,0.1,0.3,0.2,0.4,0.3
			c0.1-0.2,0.1-0.4,0-0.6c-0.3-0.4-0.7-0.7-1.2-0.8C60.7,30.1,60.7,30.1,60.7,30.1z"/>
		<path fill="#00D88D" d="M58.5,28.3c0-0.2-0.1-0.3-0.2-0.4c-0.3-0.3-0.7-0.3-1.1-0.3c-0.1,0-0.1,0-0.2,0c0.1,0.2,0.2,0.2,0.3,0.3
			c0.3,0.2,0.7,0.3,1,0.4C58.5,28.4,58.5,28.4,58.5,28.3z"/>
		<path fill="#00D88D" d="M55.8,18.2c-0.1,0.1-0.1,0.1-0.1,0.2c0.1,0.2,0.2,0.4,0.4,0.5c0.2,0.1,0.3,0,0.3-0.2c0-0.2,0-0.2,0.2-0.2
			c0,0,0,0,0,0c0-0.1,0-0.3,0.1-0.4C56.5,18.1,56.3,18,56,18C56,18.1,55.9,18.2,55.8,18.2z"/>
		<path fill="#00D88D" d="M59.7,28.4c0,0.1,0,0.1,0,0.2c0,0.2,0.1,0.3,0.2,0.4c0.2,0.2,0.5,0.3,0.7,0.4c0.1,0.1,0.2,0.1,0.3,0.2
			C60.9,29.1,60.3,28.6,59.7,28.4z"/>
		<path fill="#00D88D" d="M62,28.4c-0.3-0.3-0.6-0.5-1-0.6c0,0.3,0.6,0.9,1.1,1.1C62.2,28.7,62.2,28.6,62,28.4z"/>
		<path fill="#00D88D" d="M62.3,32c-0.1,0.1-0.1,0.2,0,0.3c0.1,0.2,0.2,0.4,0,0.6c0.2,0,0.3,0.1,0.5,0.3c0-0.1,0.1-0.1,0.1-0.2
			C62.8,32.7,62.6,32.1,62.3,32z"/>
		<path fill="#00D88D" d="M59.6,28.8c-0.2-0.3-0.4-0.3-0.7-0.5c0,0.5,0.3,0.9,0.7,0.9C59.6,29.1,59.7,29,59.6,28.8z"/>
		<path fill="#00D88D" d="M63.9,20.7c0-0.1,0.1-0.2,0.1-0.3c0,0-0.1-0.1-0.2-0.1c-0.1-0.1-0.3-0.1-0.5-0.2c0,0.1,0,0.1,0,0.2
			C63.6,20.4,63.7,20.6,63.9,20.7z"/>
	</g>
	<g>
		<path fill="#00D88D" d="M50.8,41.6c-0.1,0.2-0.2,0.4-0.3,0.6c0,0,0,0,0,0c0.1,0,0.1,0,0.1-0.1c0.3-0.3,0.5-0.6,0.8-0.9
			c0.3-0.4,0.6-0.8,0.9-1.1c-0.1,0-0.2,0-0.3-0.1c-0.2,0.2-0.5,0.5-0.7,0.7C51.3,41,51,41.3,50.8,41.6z"/>
		<path fill="#00D88D" d="M50.2,12.7c0,0,0,0.1-0.1,0.1c0.1,0,0.1-0.1,0.2-0.1c0,0,0-0.1-0.1-0.1C50.2,12.6,50.2,12.7,50.2,12.7z"/>
		<path fill="#00D88D" d="M72.3,36.2c0-0.1,0-0.2-0.1-0.3c-0.1-0.4-0.2-0.7-0.4-1.1c0,0.2,0,0.3,0,0.5C72,35.7,72,36.1,72.3,36.2z"
			/>
		<path fill="#00D88D" d="M65.4,10.9c-0.2,0-0.4,0-0.6,0.1c0.8,0.2,1.5,0.4,2.2,0.7c-0.2-0.1-0.3-0.2-0.5-0.3
			C66.2,11.1,65.8,11,65.4,10.9z"/>
		<path fill="#00D88D" d="M68.3,40.7C68.3,40.7,68.4,40.7,68.3,40.7c0.1,0,0.2-0.1,0.2-0.2c0.1-0.2,0.2-0.3,0.3-0.5c0,0,0-0.1,0-0.1
			c0-0.1,0-0.1,0-0.3h-0.4c0,0.3,0,0.5-0.1,0.8C68.3,40.5,68.3,40.6,68.3,40.7z"/>
		<path fill="#00D88D" d="M51.5,41.2c-0.3,0.3-0.5,0.6-0.8,0.9c0,0-0.1,0.1-0.1,0.1c0,0,0,0,0,0c0.1-0.2,0.2-0.4,0.3-0.6
			c0.2-0.3,0.4-0.6,0.6-0.8c0.2-0.2,0.4-0.5,0.7-0.7c-0.3,0-0.5-0.1-0.8-0.2c-0.3,0.3-0.5,0.6-0.8,0.9c-0.2,0.2-0.5,0.5-0.8,0.7
			c-0.1,0-0.1,0.1-0.2,0.2c0.1,0,0.2,0,0.2,0c0,0,0,0,0,0c-0.1,0.1-0.2,0.2-0.3,0.3c-0.2,0.2-0.4,0.5-0.6,0.7
			c-0.3,0.3-0.6,0.7-1,0.8c-0.2,0.1-0.3,0.2-0.3,0.4c-0.2,0.6-0.6,0.8-1.1,1.1C46.4,45,46.2,45,46,45c0.3,0,0.6,0,0.8,0
			c0.1,0,0.1-0.2,0.2-0.3c0.1,0.1,0.1,0.2,0.2,0.2c0,0,0.1,0.1,0.1,0c0.1-0.2,0.3-0.4,0.4-0.6c0.2-0.2,0.4-0.4,0.6-0.6
			c0.6-0.5,1.2-0.9,1.8-1.4c0,0,0,0.1,0,0.1c-0.1,0.3-0.4,0.6-0.6,0.8c-0.4,0.3-0.7,0.7-1.1,1c-0.1,0.1-0.2,0.2-0.3,0.3
			c0,0,0.1,0,0.1,0c0.4-0.2,0.9-0.5,1.3-0.8c0.2-0.2,0.5-0.4,0.7-0.6c0.2-0.2,0.4-0.5,0.7-0.7c0.3-0.3,0.6-0.7,0.8-1
			c0.3-0.4,0.6-0.8,0.8-1.2c0-0.1,0.1-0.1,0.1-0.2c-0.1,0-0.2,0-0.3-0.1C52.1,40.4,51.8,40.8,51.5,41.2z"/>
		<path fill="#00D88D" d="M46.6,37.3c-0.5,0.3-0.9,0.6-1.4,1c-0.3,0.2-0.6,0.4-0.9,0.6c-0.1,0.1-0.1,0.1-0.1,0.2c0,0.1,0,0.3,0,0.4
			c0,0.2,0.1,0.4,0.3,0.5c0-0.1,0-0.2,0-0.3c0-0.1,0.1-0.2,0.3-0.1c0,0,0.1,0.1,0.1,0.1c0.2-0.4,0.3-0.5,0.7-0.8
			c0.3-0.2,0.5-0.4,0.8-0.6c0.3-0.2,0.5-0.4,0.5-0.8c0,0,0.1-0.1,0.1-0.1c0.1,0,0.2-0.1,0.3-0.1c-0.1-0.1-0.2-0.2-0.3-0.4
			C46.8,37.1,46.7,37.2,46.6,37.3z"/>
		<path fill="#00D88D" d="M47.9,38.1c-0.3,0.2-0.6,0.4-0.9,0.6c-0.4,0.3-0.8,0.5-1.2,0.7c-0.1,0.1-0.2,0.1-0.3,0.3
			c0,0.1,0,0.2,0,0.3c0,0.4-0.2,0.6-0.6,0.7c-0.3,0-0.5,0.2-0.5,0.5c0.2-0.1,0.4-0.1,0.5-0.2c0.5-0.2,1-0.5,1.4-0.8
			c0.5-0.4,1-0.9,1.5-1.3c0.1-0.1,0.3-0.3,0.4-0.4c-0.1-0.1-0.2-0.1-0.2-0.2C48,38.2,47.9,38.1,47.9,38.1z"/>
		<path fill="#00D88D" d="M49.6,40.3c-0.3,0.3-0.6,0.6-0.9,0.9c-0.3,0.4-0.7,0.7-1.1,0.9c-0.4,0.2-0.8,0.5-1.2,0.7
			c-0.4,0.2-0.8,0.4-1.2,0.6c-0.7,0.4-1.5,0.7-2.2,1.2c-0.2,0.1-0.4,0.1-0.5,0.2c0.1,0.1,0.1,0.1,0.1,0.1c0.3,0,0.5,0,0.8,0
			c0.3,0,0.6-0.1,0.8-0.3c0.6-0.4,1.1-0.7,1.7-1.1c0.4-0.3,0.9-0.5,1.5-0.6c0.2,0,0.2,0,0.3-0.3c0,0,0,0,0-0.1
			c0.1-0.3,0.3-0.5,0.6-0.4c0,0,0.1,0.1,0.1,0.1c0,0,0,0.1-0.1,0.1C48.1,42.7,48,42.8,48,43c0.3,0,0.4-0.1,0.5-0.4
			c0-0.1,0-0.3,0.1-0.4c0.1-0.2,0.3-0.4,0.5-0.6c0.5-0.5,1-1,1.6-1.5c0.2-0.1,0.3-0.3,0.5-0.4c-0.3-0.1-0.6-0.2-0.8-0.3
			C50,39.8,49.8,40,49.6,40.3z"/>
		<path fill="#00D88D" d="M55.9,40.2c0,0.1-0.1,0.2-0.2,0.3c-0.2,0.4-0.5,0.8-0.8,1.1c-0.3,0.4-0.6,0.8-0.9,1.2
			c-0.3,0.4-0.5,0.7-0.8,1.1c-0.2,0.2-0.3,0.5-0.4,0.8c-0.1,0.1-0.1,0.2-0.2,0.4c0.1,0,0.2-0.1,0.3-0.1c0.1,0,0.1,0,0,0
			c0.1,0,0.2,0,0.2,0c0,0,0.1,0.1,0.1,0.1c0.1-0.2,0.2-0.3,0.3-0.4c0.2-0.4,0.5-0.8,0.7-1.3c0.1-0.3,0.3-0.6,0.4-0.9
			c0-0.1,0.1-0.2,0.2-0.3c0.3-0.2,0.6-0.5,0.8-0.8c0.3-0.4,0.5-0.8,0.7-1.2C56.3,40.2,56.1,40.2,55.9,40.2L55.9,40.2z"/>
		<path fill="#00D88D" d="M57,40.6c0,0.1,0,0.3-0.2,0.3c-0.1,0-0.2,0.1-0.3,0.1c-0.1,0-0.2,0.1-0.2,0.2c0,0.1-0.1,0.2-0.2,0.2
			c-0.2,0.2-0.3,0.5-0.5,0.7c-0.3,0.4-0.5,0.9-0.8,1.3c-0.2,0.3-0.4,0.5-0.6,0.8c-0.2,0.3-0.3,0.7-0.5,0.7c0.2,0,0.5,0,0.7,0
			c0.1,0,0.2-0.2,0.2-0.3c0.3-0.6,0.6-1.1,1-1.7c0.3-0.5,0.5-0.9,0.7-1.4c0,0,0,0,0.1-0.1c0,0,0,0.1,0,0.1c0,0.1,0,0.2,0,0.3
			c0,0.1,0,0.2,0.1,0.2c0.1,0.1,0.1,0,0.2-0.1c0.1-0.1,0.1-0.2,0.2-0.3c0.2-0.3,0.4-0.7,0.4-1.1c0-0.2,0.1-0.4,0.1-0.7
			c-0.2,0-0.4,0.1-0.6,0.1C56.9,40.3,56.9,40.5,57,40.6z"/>
		<path fill="#00D88D" d="M64.7,39.3c0-0.1,0-0.2,0-0.3c-0.2,0.2-0.2,0.5-0.3,0.8c-0.1,0.5,0,0.9,0,1.4c0.1,0.4,0.1,0.9,0.2,1.4
			c0.1,0.6,0.1,1.1-0.1,1.7c0,0,0,0.1-0.1,0.1c0,0-0.1,0-0.1-0.1c0-0.1-0.1-0.2-0.1-0.3c0-0.3,0-0.6,0-0.9c0-0.2-0.2-0.5-0.4-0.5
			c0,0.1,0,0.2,0,0.3c0,0.5-0.1,0.9-0.2,1.5c-0.1,0.3-0.1,0.6-0.2,0.6c0.2,0,0.4,0,0.5,0c0,0,0.1-0.1,0.1-0.2c0-0.1,0.1-0.1,0.2-0.1
			c0,0.1,0.1,0.2,0.1,0.2c0,0,0,0,0,0c0.3-0.6,0.5-1.2,0.5-1.9c0-0.6,0-1.2-0.1-1.9C64.9,40.5,64.8,39.9,64.7,39.3z"/>
		<path fill="#00D88D" d="M52.6,44c-0.2-0.1-0.3-0.2-0.5-0.2c-0.4,0.3-0.7,0.4-1.1,0.6c-0.3,0.2-0.5,0.5-0.8,0.5c0.2,0,0.4,0,0.6,0
			c0.1,0,0.3-0.2,0.6-0.2c0,0,0.1-0.1,0.1-0.1c-0.1,0.2-0.1,0.3-0.2,0.3c0.3,0,0.5,0,0.8,0C52.3,45,52.5,44.5,52.6,44
			C52.7,44,52.7,44.1,52.6,44z"/>
		<path fill="#00D88D" d="M65.9,41.6c0-0.2-0.1-0.3-0.2-0.4c-0.1-0.1-0.2-0.2-0.3-0.2c0,0.3,0,0.5-0.1,0.8c0,0.1,0,0.2,0,0.3
			c0,0.1,0.1,0.3,0.2,0.3c0.1,0.1,0.1,0.1,0.1,0.2c-0.1,0.4-0.2,0.6-0.3,1c-0.1,0.6-0.1,1.4,0.3,1.4c0,0,0.1,0,0.1,0
			c0,0,0.1-0.3,0.1-0.6c0-0.5,0-1-0.1-1.6c0-0.4,0-0.7,0.1-1.1C65.9,41.7,65.9,41.6,65.9,41.6z"/>
		<path fill="#00D88D" d="M58.3,43.2c-0.1,0.1-0.2,0.2-0.3,0.1c0,0,0,0.1,0,0.1c0,0.3-0.1,0.5-0.3,0.7c-0.1,0.2-0.3,0.2-0.4,0.4
			c-0.2,0.3-0.2,0.6,0,0.6c0.1,0,0.2,0,0.2,0c0,0,0,0.1,0,0.1c0.2-0.2,0.3-0.4,0.5-0.6c0.2-0.3,0.4-0.5,0.4-0.8c0-0.1,0-0.3,0-0.4
			C58.5,43.1,58.4,43.1,58.3,43.2z"/>
		<path fill="#00D88D" d="M66.7,43.1c0-0.1-0.1-0.1-0.1-0.1c-0.1,0-0.2,0.1-0.2,0.2c-0.1,0.4-0.1,0.6-0.2,0.9
			c-0.1,0.4-0.1,0.9-0.2,0.9c0.2,0,0.6,0,0.6,0s0,0.3,0,0.3C66.7,44.6,66.8,43.8,66.7,43.1z"/>
		<path fill="#00D88D" d="M66.7,45L66.7,45L66.7,45z"/>
		<path fill="#00D88D" d="M67.6,42.9c-0.1-0.1-0.2-0.1-0.3-0.1c0,0.1,0,0.1,0,0.2c-0.1,0.5-0.1,0.9-0.2,1.4c0,0.3,0,0.7-0.1,0.7
			c0.2,0,0.3,0,0.5,0c0,0,0,0.1,0,0.1C67.5,44.3,67.5,43.6,67.6,42.9C67.7,42.9,67.6,42.9,67.6,42.9z"/>
		<path fill="#00D88D" d="M68.3,42.5C68.3,42.5,68.3,42.5,68.3,42.5c-0.2-0.1-0.4,0-0.4,0.2c0,0.3,0,0.5,0.1,0.8
			c0.1,0.5,0.1,1.5,0.2,1.5c0,0,0.1,0,0.1,0c0.2,0,0.2-0.6,0.2-1C68.4,43.4,68.3,43.1,68.3,42.5z"/>
		<path fill="#00D88D" d="M56.2,43.7c-0.1-0.1-0.3-0.1-0.4-0.2c-0.2,0.4-0.3,0.7-0.5,1c-0.1,0.2-0.1,0.4,0.1,0.6
			c0.1,0.1,0,0.1-0.1,0.1c-0.1,0-0.2-0.2-0.3-0.2c0,0-0.1-0.1-0.1-0.1c0.2,0,0.4,0,0.6,0c0.1,0,0.2-0.2,0.2-0.4
			C55.9,44.3,56.1,44.1,56.2,43.7C56.2,43.7,56.2,43.7,56.2,43.7z"/>
		<path fill="#00D88D" d="M63.1,43.8c-0.1,0.3-0.2,0.6-0.3,0.9c0,0.2-0.1,0.5-0.1,0.6c0.2,0,0.5,0,0.7,0c0,0,0-0.1,0-0.1
			c0.1-0.4,0.1-0.8-0.1-1.1C63.3,43.9,63.2,43.8,63.1,43.8z"/>
		<path fill="#00D88D" d="M45.4,44.6c-0.4,0.1-0.7,0.1-1,0.4c-0.1,0.1-0.2,0-0.3,0c0.4,0,0.9,0,1.3,0c0.3,0,0.6-0.3,0.8-0.6
			C45.9,44.3,45.7,44.5,45.4,44.6z"/>
		<path fill="#00D88D" d="M69.1,44.7c-0.1,0-0.2,0-0.2,0c-0.1,0-0.1,0.1-0.1,0.2c0,0.1,0,0.3,0,0.4c0.1,0,0.2,0,0.3,0
			c0-0.2,0.1-0.3,0.1-0.5C69.2,44.8,69.2,44.7,69.1,44.7z"/>
		<path fill="#00D88D" d="M62,44.8c-0.1,0.2-0.1,0.3-0.2,0.5c0.1,0,0.3,0,0.4,0c0.1,0,0.1-0.2,0.2-0.4C62.3,44.9,62.2,44.8,62,44.8
			C62,44.8,62,44.8,62,44.8z"/>
		<path fill="#00D88D" d="M60.2,45.3c0.1,0,0.3,0,0.4,0c0-0.2,0.1-0.4,0.1-0.6c-0.1,0-0.2,0-0.2,0.1C60.3,44.9,60.3,45.2,60.2,45.3z
			"/>
		<path fill="#00D88D" d="M58.4,44.8c0,0-0.1,0-0.1,0.1c-0.1,0.1-0.2,0.1-0.2,0.2c0,0-0.1,0-0.1,0.1c0,0.1-0.1,0.2-0.1,0.2
			c0.2,0,0.3,0,0.5,0C58.4,45.2,58.5,45.1,58.4,44.8C58.6,44.8,58.5,44.8,58.4,44.8z"/>
		<path fill="#00D88D" d="M51.4,44.9c-0.2,0.1-0.4,0.2-0.6,0.4c0.2,0,0.3,0,0.5,0c0.1-0.2,0.1-0.3,0.2-0.4
			C51.5,44.9,51.4,44.9,51.4,44.9z"/>
		<path fill="#00D88D" d="M49,45c-0.1,0.1-0.2,0.3-0.2,0.3c0.2,0,0.5,0,0.7,0C49.4,45.3,49.1,45,49,45C49,45,49,45,49,45z"/>
		<path fill="#00D88D" d="M59.8,44.7c0,0.2-0.1,0.4-0.1,0.6c0.1,0,0.2,0,0.3,0c0,0,0-0.2,0-0.3C60,44.9,59.9,44.8,59.8,44.7z"/>
		<path fill="#00D88D" d="M56.1,45.3c0.1,0,0.3,0,0.4,0c0,0,0.1-0.2,0.1-0.3c0,0,0,0,0,0C56.5,45.1,56.3,45.2,56.1,45.3z"/>
		<path fill="#00D88D" d="M61.2,45.1c-0.1,0-0.2,0.2-0.3,0.2c0.1,0,0.3,0,0.4,0C61.4,45.3,61.3,45.1,61.2,45.1z"/>
		<path fill="#00D88D" d="M48.1,45.3c0,0,0-0.1,0.1-0.2c-0.2,0-0.4,0.2-0.5,0.2C47.8,45.3,47.9,45.3,48.1,45.3z"/>
		<path fill="#00D88D" d="M59.1,45.2c-0.1,0-0.2,0.1-0.3,0.1c0.1,0,0.3,0,0.4,0C59.3,45.3,59.2,45.2,59.1,45.2z"/>
		<path fill="#00D88D" d="M46,35.6c-0.1,0-0.2,0.1-0.2,0.1c-0.4,0.2-0.7,0.4-1,0.7c-0.1,0.1-0.2,0.2-0.3,0.4c0,0,0,0,0,0
			c0.1,0,0.2,0,0.2,0c0.2-0.1,0.5-0.2,0.7-0.3c0.2-0.1,0.4-0.2,0.6-0.4c0,0,0.1,0,0.1,0c-0.1,0.2-0.3,0.3-0.4,0.4
			c-0.3,0.3-0.7,0.6-1,0.9c-0.3,0.2-0.5,0.4-0.8,0.6c0,0-0.1,0-0.2,0c0,0,0-0.1,0-0.1c0-0.1,0.1-0.2,0.1-0.2c0.1-0.1,0-0.2-0.1-0.2
			c-0.2,0-0.3,0.1-0.4,0.2c-0.2,0.2-0.3,0.4-0.4,0.7c-0.1,0.2-0.1,0.2-0.3,0.1c-0.1-0.1-0.1-0.1-0.2-0.2c-0.1-0.1-0.2,0-0.2,0.1
			c0,0.3,0.1,0.6,0.3,0.8c0.1-0.1,0.1-0.2,0.1-0.3c0,0,0.1-0.1,0.1-0.1c0.6,0,1.1-0.2,1.6-0.5c0.5-0.3,1-0.6,1.5-0.9
			c0,0,0.1-0.1,0.1-0.1c0.1-0.2,0.2-0.5,0.4-0.7c0,0,0,0,0-0.1C46.3,36.2,46.1,35.9,46,35.6C46,35.6,46,35.6,46,35.6z"/>
		<path fill="#00D88D" d="M53.2,40.9c0,0,0,0.1-0.1,0.1c0,0,0,0,0,0c0-0.1,0-0.1,0-0.2c0-0.1,0-0.2-0.1-0.2c-0.1,0-0.1,0.1-0.2,0.1
			c-0.3,0.6-0.8,1.1-1.2,1.6c-0.3,0.3-0.5,0.6-0.8,1c-0.3,0.4-0.6,0.9-0.8,1.3c0,0,0,0,0,0.1c0.1-0.1,0.2-0.1,0.3-0.2
			c0.4-0.3,0.8-0.6,1.1-1c0.4-0.4,0.8-0.8,1.2-1.2c0.4-0.4,0.7-0.9,1.1-1.4c0.2-0.2,0.3-0.5,0.5-0.7c-0.3,0-0.6,0-0.9-0.1
			C53.3,40.4,53.2,40.6,53.2,40.9z"/>
		<path fill="#00D88D" d="M57.4,5.8c0.1,0,0.2,0,0.3,0C58.1,5.9,58.6,6,59,6.1c0.2,0,0.3,0,0.5,0c0.2,0,0.4-0.2,0.5-0.4
			c0,0,0.1-0.1,0.1-0.1c0,0,0.1,0,0.1,0.1c0,0.1,0,0.2,0,0.2c0,0.1-0.1,0.1-0.1,0.2c0.2,0.1,0.4,0.1,0.5,0.2
			c0.6,0.1,1.2,0.2,1.7,0.4c0.1,0,0.1,0,0.2-0.1c0-0.1,0.1-0.2,0.1-0.2c0.1-0.1,0.1-0.1,0.1,0c0,0,0.1,0.1,0.1,0.1
			c0.1,0,0.3,0.1,0.4,0.1c0.2,0,0.4-0.1,0.6-0.1c0.4-0.1,0.7-0.1,1,0.2c0,0,0,0,0.1,0c0,0,0,0,0,0c0.2-0.3,0.5-0.3,0.8-0.2
			c0.3,0.1,0.6,0.2,1,0.3C67,6.9,67.3,7,67.6,6.9c0.2,0,0.3-0.1,0.4-0.2c0.1,0,0.1-0.1,0.1,0c0,0.1,0.1,0.1,0.1,0.2
			c0.3,0.3,0.5,0.5,0.8,0.8c0.3,0.2,0.6,0.5,0.9,0.7c0.3,0.2,0.6,0.4,0.9,0.6C71,9,71.2,9.2,71.4,9.3c0.9,0.5,1.8,1,2.6,1.6
			c0.6,0.4,1.1,1,1.5,1.6c0,0,0.1,0.1,0.1,0.1c0.1,0,0.2,0,0.3,0.1c0.2,0.2,0.4,0.4,0.6,0.6c0.2,0.2,0.4,0.5,0.6,0.6
			c0.2,0.1,0.5,0,0.6-0.2c-0.2-0.2-0.4-0.3-0.7-0.5c-0.2-0.2-0.4-0.4-0.5-0.7c0,0-0.1-0.1-0.1-0.1c-0.2-0.1-0.4-0.2-0.6-0.3
			c-0.5-0.3-0.9-0.8-1.4-1.2c-0.3-0.3-0.6-0.6-1.1-0.8c-0.5-0.2-1-0.4-1.5-0.7c-0.4-0.2-0.7-0.5-0.8-0.9c0-0.1-0.1-0.2-0.2-0.2
			c-0.3-0.2-0.6-0.4-0.9-0.6c-0.4-0.3-0.9-0.5-1.3-0.8c-0.3-0.2-0.7-0.3-1.1-0.5c-0.4-0.1-0.7-0.3-1.1-0.4c-0.4-0.1-0.9-0.2-1.3-0.3
			c-0.1,0-0.1,0-0.2,0c-0.2,0.1-0.4,0.1-0.7,0.2c-0.2,0-0.3,0.1-0.4,0.1c-0.1,0-0.1,0-0.2,0c-0.2-0.1-0.5-0.2-0.7-0.2
			c-0.5-0.1-1-0.3-1.5-0.4c-0.5-0.1-1-0.2-1.5-0.1c-0.2,0-0.4,0-0.6,0.1c-0.2,0.1-0.3,0-0.4-0.1c0-0.1-0.1-0.1-0.1-0.2
			C59.1,5,59,5,58.9,4.9c-0.1,0.2-0.2,0.3-0.2,0.4c-0.1,0-0.2-0.1-0.4-0.1c-0.1-0.1-0.3,0-0.3-0.3c0,0-0.1,0-0.1,0
			C57.6,5,57.3,5.4,57.4,5.8C57.3,5.7,57.3,5.8,57.4,5.8z"/>
		<path fill="#00D88D" d="M72.4,17c0.1,0,0.1,0.1,0.1,0.2c0.1,0.2,0.2,0.4,0.4,0.6c0.3,0.3,0.6,0.6,0.9,0.9c0.3,0.3,0.6,0.6,1,0.9
			c0-0.1,0.1-0.2,0.1-0.3c0.1-0.3-0.3-0.6-0.6-0.6c0,0-0.1,0-0.1,0c0,0,0-0.1,0.1-0.1c0.1-0.1,0.2-0.3,0.1-0.4
			c-0.1-0.1-0.2-0.2-0.3-0.3c-0.4-0.3-0.8-0.7-1.2-1c-0.3-0.3-0.6-0.6-1-0.8c-0.1-0.1-0.3-0.2-0.4-0.3c0.1,0.3,0.2,0.6,0.3,0.9
			C71.9,16.7,72.1,16.8,72.4,17z"/>
		<path fill="#00D88D" d="M59.5,10c-0.3,0-0.7,0.1-1,0c-0.5-0.2-1-0.2-1.5-0.4c-0.5-0.1-0.9-0.2-1.4-0.3c-0.3-0.1-0.4,0-0.4,0.3
			c0,0.2,0,0.3,0,0.5c0.4,0,1,0.1,1.3-0.3c0,0.1,0,0.2,0,0.3c0,0.1-0.1,0.2-0.1,0.3c0.2,0,0.3,0.1,0.4,0.1c0.2,0.1,0.5-0.1,0.7,0
			C58.1,10.3,58.8,10,59.5,10C59.5,10,59.5,10,59.5,10z"/>
		<path fill="#00D88D" d="M61.1,10.3c-0.1-0.1-0.2-0.1-0.3-0.2c0,0.1-0.1,0.2-0.1,0.3c0,0,0,0.1,0,0.1c0.3,0,0.6,0,0.9,0
			C61.4,10.5,61.3,10.4,61.1,10.3z"/>
		<path fill="#00D88D" d="M58.5,41.4c-0.1,0.4-0.3,0.8-0.4,1.3c0.2-0.1,0.4-0.3,0.6-0.5c0.4-0.6,0.6-1.2,0.8-1.9
			c0-0.2,0.1-0.4,0.1-0.7c-0.2,0.1-0.5,0.1-0.7,0.2C58.7,40.4,58.6,40.9,58.5,41.4z"/>
		<path fill="#00D88D" d="M44.5,30c-0.5,0.2-0.9,0.5-1.4,0.8c-0.8,0.4-1.5,1-2.2,1.5c-0.3,0.2-0.5,0.4-0.8,0.7
			c-0.1,0.1-0.1,0.1-0.2,0.2c0,0,0,0,0,0c0.2-0.1,0.5-0.2,0.7-0.3c0.6-0.3,1.2-0.6,1.8-1c0.5-0.3,1-0.5,1.5-0.8
			c0.4-0.2,0.8-0.4,1.2-0.6c0-0.3,0.1-0.6,0.2-0.9C45.2,29.7,44.9,29.8,44.5,30z"/>
		<path fill="#00D88D" d="M49,13.7c-0.2,0.1-0.4,0.1-0.6,0.2c-0.2,0.1-0.4,0.2-0.7,0.4c0.2,0,0.4,0,0.6,0.1
			C48.5,14.1,48.8,13.9,49,13.7z"/>
		<path fill="#00D88D" d="M65.4,10.9c0.4,0.1,0.8,0.2,1.1,0.4c0.2,0.1,0.3,0.2,0.5,0.3c0.3,0.1,0.5,0.2,0.7,0.3
			c0.5,0.2,0.9,0.5,1.3,0.8c0.1,0,0.1,0,0.2,0c0-0.3-0.1-0.5-0.3-0.6c-0.5-0.5-1.2-0.9-1.9-1.1c-0.1,0-0.2-0.1-0.3-0.1
			c-0.2-0.1-0.4-0.3-0.6-0.4c-0.2-0.1-0.4-0.3-0.7-0.4c-0.5-0.2-1.1-0.4-1.6-0.7c-0.2-0.1-0.4-0.2-0.6-0.2c-0.1,0.1-0.2,0.2-0.3,0.3
			c-0.1,0.1-0.1,0-0.1-0.1c0-0.1,0-0.2,0-0.3c-0.2,0-0.5,0-0.7,0c-0.3,0-0.6-0.1-0.9-0.2c-0.4-0.1-0.8-0.2-1.2-0.3
			c-0.3-0.1-0.6-0.2-0.8-0.3c-0.1,0.1-0.2,0.2-0.3,0.3c-0.1,0.1-0.1,0.1-0.2,0c-0.3-0.2-0.6-0.4-0.9-0.6c-0.4-0.2-0.8-0.4-1.2-0.3
			c-0.1,0-0.2,0-0.2-0.1c-0.1-0.2-0.3-0.3-0.5-0.4c-0.4-0.1-0.8-0.2-1.2-0.3c0,0,0,0,0,0c0,0.2-0.2,0.3-0.4,0.4
			c-0.1,0.1-0.2,0.1-0.2,0.3c0.2,0.1,0.4,0.2,0.6,0.2c0.3,0,0.6,0,1,0c0,0,0.1,0,0.1,0c0,0,0,0.1-0.1,0.1c0,0.1-0.1,0.1-0.1,0.2
			c0,0,0,0,0,0c0.1,0,0.2,0,0.3,0c0.5,0.1,1,0.3,1.4,0.5C57.6,9.1,58,9.1,58.3,9c0,0,0.1,0,0.2,0c0.1,0.1,0.2,0.2,0.3,0.3
			c0.1,0.2,0.3,0.4,0.5,0.5c0.1,0,0.2,0,0.2,0.1c0-0.1,0-0.2,0-0.2c0-0.1,0-0.1,0.1-0.1c0.2,0,0.5,0,0.7,0.1
			c0.5,0.1,0.9,0.1,1.4,0.2c0.5,0.1,1,0.2,1.5,0.6c0,0,0.1,0,0.1,0c0.1-0.1,0.2-0.3,0.3-0.4c0.1,0,0.2,0.1,0.2,0.2
			c0.1,0,0.3,0.1,0.4,0.1c0.2,0,0.3,0.2,0.2,0.3c0,0.1-0.1,0.2-0.1,0.3c0.2,0,0.3,0.1,0.5,0.1C65,10.9,65.2,10.9,65.4,10.9z"/>
		<path fill="#00D88D" d="M48.4,38.8c-0.2,0.2-0.3,0.5-0.5,0.7c0,0,0,0,0,0.1c0.2-0.1,0.5-0.2,0.7-0.4c0.2-0.1,0.3-0.2,0.5-0.3
			c-0.2-0.1-0.3-0.2-0.5-0.3C48.5,38.7,48.4,38.7,48.4,38.8z"/>
		<path fill="#00D88D" d="M48.8,39.4c-0.4,0.3-0.9,0.5-1.3,0.7c-0.6,0.3-1.1,0.7-1.7,1.1c-0.4,0.3-0.8,0.7-1.2,1
			c-0.2,0.1-0.3,0.3-0.5,0.5c-0.1,0.1-0.1,0-0.2,0c0,0,0,0-0.1-0.1c-0.4,0.4-0.9,0.6-1.4,0.8c-0.5,0.1-0.9,0.3-1.3,0.6
			c-0.1,0.1-0.3,0.2-0.4,0.3c0,0,0,0,0,0c0,0.1,0,0.2,0.1,0.2c0,0.1,0.1,0.1,0.1,0.2c0.1,0.1,0.1,0.1,0.2-0.1c0-0.1,0.1-0.1,0.1-0.2
			c0,0,0.1,0.1,0.1,0.1c0.1,0.2,0.3,0.2,0.4,0c0.1-0.1,0.2-0.2,0.2-0.3c0.1-0.1,0.1-0.2,0.1-0.3c0.1-0.2,0.2-0.3,0.4-0.3
			c0.1,0,0.2,0.1,0.1,0.2c0,0.1-0.1,0.2-0.1,0.3c0.3,0,0.6-0.2,0.9-0.3c0.4-0.2,0.8-0.5,1.1-0.8c0,0,0.1-0.1,0.2-0.1
			c0.3,0,0.5-0.1,0.7-0.3c0.2-0.1,0.3-0.3,0.4-0.5c0-0.1,0.1-0.2,0.2-0.3c0.2-0.2,0.5-0.4,0.7-0.5c0.3-0.2,0.5-0.3,0.8-0.5
			c0.4-0.3,0.9-0.5,1.3-0.7c0.3-0.2,0.6-0.4,0.9-0.6c0.1-0.1,0.3-0.2,0.4-0.3c-0.2-0.1-0.4-0.2-0.6-0.3C49.2,39.2,49,39.3,48.8,39.4
			z"/>
		<path fill="#00D88D" d="M50.2,24.4c0,0-0.1,0-0.2,0c-0.3,0.1-0.6,0.3-1,0.4c-0.6,0.2-1.2,0.3-1.9,0.5c-0.5,0.1-1,0.3-1.4,0.5
			c-0.3,0.1-0.6,0.3-0.9,0.5c-0.2,0.2-0.4,0.4-0.7,0.7c0,0,0,0.1,0,0.1c0.2,0,0.3-0.1,0.5-0.1c0.4-0.1,0.9-0.3,1.3-0.4
			c0.5-0.2,1-0.3,1.4-0.5c0.1,0,0.2-0.1,0.3-0.1c0.2-0.2,0.4-0.3,0.6-0.5C48.9,25,49.5,24.6,50.2,24.4z"/>
		<path fill="#00D88D" d="M50.2,12.7c0,0,0-0.1,0.1-0.1c0,0,0.1,0.1,0.1,0.1c0.1-0.1,0.2-0.1,0.3-0.2c0.3-0.2,0.7-0.4,1-0.5
			c-0.3,0-0.5,0.1-0.7,0.3c-0.1,0.1-0.2,0-0.2-0.1c0-0.1,0-0.1,0-0.2c0,0,0-0.1,0.1-0.2c-0.2,0-0.3,0-0.4,0.1
			c-0.4,0.2-0.7,0.5-1.1,0.6c0.1,0.2,0.2,0.3,0.3,0.4c0.1,0.1,0.2,0.1,0.2,0.1c0.1-0.1,0.2-0.1,0.3-0.2
			C50.1,12.8,50.1,12.7,50.2,12.7z"/>
		<path fill="#00D88D" d="M47,16.3c-0.1,0.1-0.3,0.2-0.5,0.3c-0.2,0-0.3,0.1-0.5,0.1c-0.1,0-0.1,0.1-0.2,0.1c0,0,0,0,0,0
			c0.2,0.1,0.3,0.1,0.5,0.2c0.1,0,0.2,0,0.4,0C46.8,16.8,46.9,16.5,47,16.3C47,16.3,47,16.3,47,16.3z"/>
		<path fill="#00D88D" d="M45.8,28.4c-0.4,0.2-0.8,0.3-1.3,0.5c-0.6,0.2-1.1,0.5-1.7,0.7c-0.4,0.2-0.9,0.4-1.3,0.6
			c-0.2,0.1-0.5,0.2-0.7,0.3c-0.3,0.2-0.6,0.3-0.9,0.5c-0.1,0.1-0.2,0.1-0.3,0.2c0,0,0,0,0,0c0.4-0.1,0.8-0.1,1.2-0.2
			c0.4-0.1,0.8-0.2,1.1-0.3c0.5-0.2,1-0.3,1.4-0.5c0.5-0.2,0.9-0.4,1.4-0.6c0.3-0.1,0.6-0.3,0.8-0.4c0.1-0.2,0.2-0.5,0.3-0.7
			C45.9,28.3,45.8,28.4,45.8,28.4z"/>
		<path fill="#00D88D" d="M46.2,19.6c-0.1,0.1-0.2,0.1-0.3,0.2c-0.1,0.1-0.3,0.2-0.4,0.3c0,0,0,0,0,0c0.3-0.1,0.7-0.1,1-0.1h-0.4
			C46.2,19.8,46.2,19.7,46.2,19.6z"/>
		<path fill="#00D88D" d="M56.6,22.9c-0.2-0.1-0.4-0.3-0.6-0.3c-0.1,0-0.1,0-0.2,0c-0.5-0.1-1-0.1-1.6-0.2c-0.7-0.1-1.4-0.1-2.1-0.1
			c-0.8,0-1.6,0-2.4,0.1c-0.3,0-0.7,0.1-1,0.1c-0.4,0-0.5,0.1-0.7,0.5c0,0.1-0.1,0.1-0.1,0.1c-0.3,0-0.5,0-0.8,0.1
			c-0.6,0.1-1.1,0.2-1.7,0.3c-0.4,0.1-0.9,0.2-1.3,0.3c-0.4,0.1-0.9,0.2-1.3,0.4c-0.4,0.1-0.7,0.3-1.1,0.4c-0.2,0-0.2,0.2-0.2,0.3
			c0.8,0,1.6,0.1,2.3-0.3c0.3-0.1,0.5-0.3,0.6-0.5c0.1-0.1,0.2-0.1,0.3-0.1c0.3,0.2,0.6,0.2,0.9,0.1c0.3-0.1,0.7-0.3,1-0.4
			c0.2-0.1,0.4-0.2,0.7-0.3c0.5-0.1,1-0.3,1.4-0.3c0.6-0.1,1.1-0.2,1.7-0.2c0.7,0,1.4,0,2.1,0c0.2,0,0.5,0,0.7,0.1
			c0.4,0.1,0.9,0.1,1.3,0.2c0.2,0,0.3,0.1,0.5,0.1C55.6,23.1,56.2,23.1,56.6,22.9C56.7,23,56.6,23,56.6,22.9z"/>
		<path fill="#00D88D" d="M44.8,35c-0.4,0.3-0.8,0.6-1.2,0.9c-0.3,0.2-0.5,0.4-0.8,0.6c-0.1,0.1-0.2,0.1-0.2,0.1
			c-0.1-0.1,0-0.4-0.3-0.4c0,0.2-0.1,0.3-0.3,0.3c-0.2,0-0.3,0.2-0.3,0.4c0,0.1-0.1,0.2-0.1,0.3c-0.1,0.3-0.4,0.4-0.6,0.6
			c-0.5,0.3-1,0.6-1.6,0.7c-0.1,0-0.1,0-0.1,0.1c0,0.1-0.1,0.3-0.1,0.4c-0.1,0.2-0.3,0.3-0.4,0.4c0,0,0,0.1,0,0.1c0,0,0.1,0,0.1,0
			c0.2,0,0.3,0,0.5-0.1c0.2-0.1,0.3-0.3,0.2-0.5c0,0,0-0.1,0-0.1c0.1,0,0.1,0,0.2,0.1c0.2,0.1,0.4,0.2,0.6,0
			c0.1-0.1,0.3-0.1,0.4-0.2c0.3-0.2,0.7-0.4,1-0.5c0.3-0.2,0.6-0.4,0.9-0.6c0.4-0.3,0.9-0.5,1.3-0.8c0.1-0.1,0.2-0.2,0.3-0.3
			c0.2-0.3,0.4-0.6,0.7-0.9c0.3-0.2,0.5-0.5,0.8-0.6c-0.1-0.2-0.1-0.4-0.2-0.6C45.3,34.6,45.1,34.8,44.8,35z"/>
		<path fill="#00D88D" d="M51.5,23.4c-0.7,0-1.3,0-2,0.1c-0.6,0.1-1.2,0.2-1.7,0.4c-0.4,0.1-0.8,0.3-1.2,0.5c-0.5,0.2-1,0.5-1.5,0.8
			c-0.1,0.1-0.3,0.1-0.4,0.1c-0.2,0-0.4,0-0.6,0c-0.1,0-0.2,0.1-0.3,0.2c0,0.1-0.1,0.1-0.1,0.2c-0.3-0.2-0.5-0.2-0.8-0.1
			c-0.3,0.1-0.6,0.1-0.9,0.3c-0.2,0.1-0.4,0.3-0.5,0.4c-0.1,0.1-0.1,0.2,0.1,0.2c0,0,0,0,0,0c0.2,0,0.4,0,0.6-0.1
			c0.2-0.1,0.5-0.2,0.7-0.3c0.1,0,0.2,0,0.3,0.1c0,0.1,0.1,0.1,0.2,0.1c0.1,0,0.2,0,0.3-0.1c0.2-0.1,0.4-0.2,0.6-0.4
			c0.2-0.2,0.5-0.3,0.8-0.4c0.1,0,0.3,0,0.4-0.1c0.3-0.1,0.7-0.3,1-0.4c0.3-0.1,0.6-0.2,0.9-0.3c0.3-0.1,0.7-0.2,1-0.2
			c0.3-0.1,0.6-0.1,0.8-0.1c0.6-0.1,1.1-0.2,1.6-0.3c0.3-0.1,0.6-0.1,0.9-0.1c0.3-0.1,0.7-0.2,1-0.2C52.4,23.5,52,23.5,51.5,23.4z"
			/>
		<path fill="#00D88D" d="M61.1,22.2C61.1,22.2,61.1,22.2,61.1,22.2c-0.3,0-0.6-0.1-0.9-0.2c-0.2-0.1-0.4-0.3-0.7-0.4
			c-0.3-0.2-0.6-0.3-0.9-0.5c-0.1-0.1-0.2,0-0.2,0.1c0,0.1,0,0.1,0,0.2c-0.4-0.2-0.8-0.4-1.2-0.6c0.1,0.3,0.3,0.5,0.5,0.6
			c0.5,0.4,1.1,0.5,1.7,0.7c0.3,0.1,0.7,0.2,1,0.3c0.2,0,0.4-0.1,0.5-0.1C61,22.3,61,22.3,61.1,22.2z"/>
		<path fill="#00D88D" d="M46.5,26.8c-0.2,0.1-0.5,0.2-0.7,0.3c-0.5,0.3-0.9,0.5-1.4,0.8c-0.1,0.1-0.2,0.1-0.3,0.1
			c-0.3,0-0.5,0.1-0.7,0.1c-0.5,0.2-0.9,0.4-1.4,0.3c0,0.1-0.1,0.2-0.1,0.2c-0.1,0.2-0.3,0.3-0.5,0.4c-0.2,0.1-0.4,0.2-0.6,0.3
			c-0.2,0.1-0.2,0.3,0,0.4c0,0,0,0,0-0.1c0-0.1,0-0.2,0.2-0.3c0.1-0.1,0.1,0,0.2,0.1c0.1,0.1,0.2,0.2,0.3,0.2c0.4,0,0.7-0.2,1-0.6
			c0-0.1,0.1-0.1,0.2-0.1c0.4,0,0.8-0.1,1.2-0.2c0.3-0.1,0.6-0.3,0.9-0.4c0.3-0.1,0.5-0.4,0.8-0.4c0.3-0.1,0.6-0.2,0.9-0.3
			c0.2-0.4,0.5-0.7,0.7-1C46.9,26.6,46.7,26.7,46.5,26.8z"/>
		<path fill="#00D88D" d="M61.3,4.5c0.3,0,0.6-0.1,0.9-0.1c0.2,0,0.4-0.1,0.6-0.1c0,0,0.1,0,0.1,0.1c0,0,0,0.1,0,0.1
			c0,0-0.1,0.1-0.1,0.1c0,0,0,0.1,0,0.2c0,0,0.1,0,0.1,0.1c0.1,0,0.3,0,0.4,0c0.4,0,0.9,0,1.3,0.1c0.5,0.1,1,0.1,1.6,0.2
			c0.3,0,0.7,0.1,1,0.2c0.5,0.1,0.9,0.1,1.4,0.2c0.6,0.1,1.2,0.2,1.7,0.3C70.9,5.9,71.5,6,72.1,6c0.1,0,0.2,0,0.4,0
			c0-0.1-0.1-0.1-0.1-0.1c-0.3-0.2-0.7-0.4-1-0.4c-0.4-0.1-0.9-0.2-1.3-0.2c-0.3,0-0.6,0-0.9-0.1c-0.5-0.1-1-0.1-1.5-0.2
			c-0.2-0.1-0.5-0.1-0.6-0.3c-0.1-0.2-0.3-0.2-0.5-0.2c-0.5,0-1-0.1-1.5-0.1c-0.6-0.1-1.3-0.2-1.9-0.2c-0.6,0-1.2,0-1.8-0.1
			c-0.2,0-0.4,0-0.7,0.1C60.8,4.4,61,4.5,61.3,4.5z"/>
		<path fill="#00D88D" d="M48.6,20.1c-0.4,0.1-0.9,0.1-1.3,0.1c0,0-0.1,0-0.1,0c0,0.2,0.1,0.3,0.3,0.2c0.1,0,0.2,0,0.3,0
			c0.1,0,0.2,0,0.4,0.1c-0.1,0-0.1,0.1-0.1,0.1c-0.3,0.1-0.5,0.1-0.8,0.2c-0.6,0-1.2,0-1.7,0.1c-0.2,0-0.5,0-0.7,0.1
			c-0.4,0.1-0.8,0.2-1.1,0.4c-0.1,0.1-0.2,0.2-0.4,0.3c0,0,0,0,0,0.1c0.2,0,0.3,0.1,0.5,0.1c0.2,0,0.5,0,0.7,0
			c0.3-0.1,0.7-0.1,1-0.1c0.1,0,0.3,0.1,0.4,0.1c0-0.1,0-0.1,0-0.2c0-0.1,0-0.1,0.1-0.1c0.2,0,0.4-0.1,0.7-0.1
			c0.5,0,1.1-0.1,1.6-0.1c0.9,0,1.8,0,2.7-0.2c0.2,0,0.3-0.1,0.5-0.2c-0.3-0.2-0.6-0.2-0.9-0.2c-0.6,0-1.2,0.1-1.8,0.2
			c-0.2,0-0.3,0.1-0.5,0.1c0,0,0,0,0,0c0,0,0.1-0.1,0.1-0.1c0.2-0.1,0.4-0.2,0.6-0.3c0.2,0,0.5-0.1,0.7-0.1c0.6,0,1.1,0,1.7-0.1
			c0.2,0,0.5-0.1,0.8-0.1c-0.1-0.1-0.1-0.1-0.1-0.1c-0.1,0-0.1,0-0.2,0c-0.1,0-0.2-0.1-0.3-0.1h-2.1C49.3,20,49,20.1,48.6,20.1z"/>
		<path fill="#00D88D" d="M66.5,7.4c-0.3-0.2-0.6-0.4-0.9-0.2c-0.2,0.1-0.4,0.1-0.6,0c-0.2-0.1-0.4-0.2-0.6-0.2
			c-0.3-0.1-0.5-0.1-0.6,0.1c-0.1,0.2-0.1,0.2,0.1,0.3c0,0,0,0,0.1,0c0.5,0.2,0.9,0.3,1.4,0.5c0.6,0.2,1.1,0.4,1.7,0.6
			c0.6,0.2,1.1,0.5,1.6,0.8c0.3,0.2,0.7,0.4,1,0.7c0.3,0.2,0.5,0.4,0.8,0.6c0.1,0.1,0.3,0.1,0.4,0c0,0,0-0.1,0.1-0.1c0,0,0,0,0,0
			c0.1,0.5,0.3,0.9,0.6,1.2c0.3,0.3,0.6,0.5,0.9,0.8c0.2,0.1,0.3,0.2,0.6,0.3c0-0.1,0-0.1,0-0.1c-0.1-0.2-0.2-0.5-0.4-0.7
			c-0.2-0.3-0.4-0.5-0.6-0.7c-0.5-0.5-1.1-1-1.6-1.4c-0.3-0.2-0.6-0.5-1-0.7c-0.4-0.2-0.8-0.4-1.3-0.6c-0.4-0.2-0.8-0.4-1.1-0.6
			C66.9,7.7,66.7,7.6,66.5,7.4z"/>
		<path fill="#00D88D" d="M63.1,38.5c0.1,0,0.1,0.1,0.1,0.1c0,0.3,0.1,0.6,0.2,0.8c0,0.1,0.1,0.3,0.1,0.4c0.4-0.3,0.4-0.6,0.3-1
			c-0.1-0.4-0.3-0.7-0.5-1.1c-0.2,0.1-0.3,0.2-0.5,0.4C62.9,38.3,63,38.4,63.1,38.5z"/>
		<path fill="#00D88D" d="M72.2,28.9c0.1,0.1,0.2,0.2,0.3,0.4c0-0.1,0.1-0.2,0.1-0.2c0.1-0.2,0-0.4-0.1-0.6
			c-0.2-0.3-0.3-0.5-0.4-0.8C72,27.6,72,27.5,72,27.3v1.1C72,28.6,72.1,28.8,72.2,28.9z"/>
		<path fill="#00D88D" d="M58.2,7.4c0.5,0.1,1,0.3,1.4,0.7c0,0,0.1,0.1,0.1,0c0.2,0,0.5-0.1,0.7-0.1C60.7,8,61,8,61.2,7.9
			c0.1,0,0.2,0,0.2,0.1c-0.1,0.2-0.3,0.1-0.3,0.4c0.2,0,0.4,0,0.5-0.1c0.2-0.1,0.4-0.2,0.5-0.4c0.1-0.2,0.2-0.4,0.4-0.5
			c-0.1,0-0.1-0.1-0.1-0.1c-0.5-0.1-0.9-0.2-1.4-0.2c-0.5,0-1,0-1.5-0.1c-0.5,0-1-0.2-1.4-0.5c0,0-0.1,0-0.1,0c-0.3,0-0.6,0-0.9,0
			c-0.3,0-0.5,0-0.8,0c-0.3,0.1-0.5,0.4-0.7,0.7c0.2,0,0.4,0,0.5,0.1C56.8,7.2,57.5,7.3,58.2,7.4z"/>
		<path fill="#00D88D" d="M57.6,40.9c-0.2,0.7-0.4,1.4-0.6,2.1c-0.1,0.5-0.3,1-0.4,1.5c0,0.1,0,0.2-0.1,0.3c0,0,0.1,0,0.1,0
			c0.2-0.2,0.4-0.5,0.6-0.7c0.3-0.4,0.6-0.9,0.7-1.4c0.1-0.3,0.2-0.7,0-1c0,0,0-0.1,0-0.2c0.3-0.3,0.5-0.6,0.6-1
			c0.1-0.2,0.1-0.4,0.1-0.6c-0.3,0.1-0.5,0.1-0.8,0.1C57.8,40.3,57.7,40.6,57.6,40.9z"/>
		<path fill="#00D88D" d="M45.8,18.4c-0.1,0-0.2,0.1-0.3,0.2c0.1,0,0.2,0.1,0.2,0.1c0.2,0,0.4,0,0.6,0c0-0.1,0.1-0.3,0.1-0.4
			C46.2,18.2,46,18.3,45.8,18.4z"/>
		<path fill="#00D88D" d="M72.9,37c0,0-0.1-0.1-0.1-0.1c0-0.6,0-1.1-0.2-1.7c-0.1-0.4-0.2-0.7-0.4-1c-0.1-0.2-0.2-0.4-0.4-0.7
			c0,0.5,0,0.9,0,1.4c0.1,0.4,0.2,0.7,0.4,1.1c0,0.1,0,0.2,0.1,0.3c-0.4-0.2-0.3-0.5-0.4-0.9c0,0.5,0.1,0.9,0.1,1.3
			c0.1,0,0.2-0.1,0.2-0.3c0.2,0.2,0.3,0.4,0.4,0.6c0,0,0,0-0.1,0.1c-0.1,0.2-0.1,0.5,0,0.7c0.1,0.2,0.1,0.3,0.2,0.5
			c0.1,0.3,0.2,0.5,0.2,0.8c0.2-0.2,0.3-0.4,0.4-0.6c0.1-0.4,0-0.7-0.2-1.1C73.2,37.3,73,37.1,72.9,37z"/>
		<path fill="#00D88D" d="M72.2,40c0,0.1,0.1,0.2,0.2,0.1c0,0,0.1,0,0.1-0.1c0.1-0.1,0.2-0.2,0.2-0.4h-0.5
			C72.2,39.7,72.2,39.8,72.2,40z"/>
		<path fill="#00D88D" d="M72.3,37.8C72.3,37.8,72.3,37.8,72.3,37.8c-0.1,0.1-0.1,0.1,0,0.2C72.3,38,72.3,37.9,72.3,37.8z"/>
		<path fill="#00D88D" d="M60.9,39.5c0.1,0.7,0.2,1.4,0.2,2.2c0,0.5-0.1,1-0.4,1.5c0,0-0.1,0.1-0.1,0c0,0-0.1,0-0.1-0.1
			c0-0.1,0-0.1,0-0.2c0-0.1,0.1-0.2,0-0.2c0-0.1-0.1-0.1-0.1-0.2c0,0-0.1,0-0.2,0c-0.1,0.1-0.2,0.2-0.2,0.3C60.1,43,60,43.2,60,43.4
			c-0.1,0.3-0.1,0.6-0.1,0.8c0,0.1,0,0.1,0.1,0.1c0.2,0,0.3-0.1,0.3-0.3c0.1-0.2,0.1-0.4,0.2-0.6c0.1,0,0.1,0.1,0.1,0.2
			c0,0.1-0.1,0.2-0.1,0.2c0,0.1,0,0.2,0,0.3c0,0.1,0.1,0.1,0.2,0.1c0,0,0.1,0,0.1-0.1c0.1-0.2,0.2-0.4,0.3-0.6
			c0.2-0.5,0.3-0.9,0.4-1.4c0.2-0.8,0.2-1.6,0.1-2.4c0-0.3-0.1-0.6-0.2-0.9c-0.2,0.1-0.4,0.2-0.6,0.3C60.9,39.3,60.9,39.4,60.9,39.5
			z"/>
		<path fill="#00D88D" d="M62.6,8.5c0.2,0,0.4,0,0.6,0c0.4,0,0.8,0.1,0.9,0.6c0.1,0,0.2-0.1,0.2-0.1c0.1-0.1,0.2-0.1,0.3,0
			c0.1,0.1,0.1,0.1,0.2,0.2C64.9,9.2,65,9.3,65,9.5c0.2-0.1,0.3-0.1,0.5,0c0.2,0.1,0.3,0.1,0.5,0.1c0.1,0,0.2,0,0.3-0.1
			c0.1,0.1,0.2,0.2,0.3,0.3c0.3,0.3,0.6,0.5,1,0.7c0.3,0.2,0.7,0.2,1-0.1c0.1-0.1,0.1-0.1,0-0.2c-0.1-0.1-0.2-0.2-0.3-0.2
			C68.1,9.9,68,9.7,68,9.5c0,0,0,0,0-0.1c-0.2,0.2-0.4,0.2-0.7,0.1c-0.2-0.1-0.4-0.2-0.6-0.3c-0.4-0.2-0.8-0.5-1.3-0.6
			c-0.2-0.1-0.4-0.1-0.6-0.1c-0.1,0-0.1,0-0.2,0c0-0.1,0-0.1,0-0.1c0-0.2-0.1-0.3-0.3-0.4C64.2,8,64,8,63.7,7.9
			c-0.3-0.1-0.6-0.1-0.9-0.4c-0.1,0-0.1,0-0.1,0c-0.1,0.1-0.1,0.2,0,0.3C62.7,8.1,62.7,8.3,62.6,8.5C62.6,8.4,62.6,8.5,62.6,8.5z"/>
		<path fill="#00D88D" d="M40.3,41.9c0.3-0.1,0.6-0.2,0.9-0.1c0.1,0.1,0.2,0,0.2-0.1c0-0.1,0-0.1,0-0.2c0,0,0-0.1,0.1-0.1
			c0,0,0.1,0,0.1,0.1c0.1,0.1,0.1,0.1,0.2,0.2c0.1,0.1,0.2,0.1,0.3,0c0.2-0.2,0.4-0.4,0.7-0.6c0,0,0.1,0,0.1,0c0,0,0,0.1,0,0.1
			c0,0,0,0.1,0,0.1c0.2,0,0.4,0,0.5-0.2c0.1-0.1,0-0.1-0.1-0.2c0,0-0.1,0-0.1,0c-0.1,0-0.1,0-0.2,0c0,0,0,0,0,0
			c0.1-0.1,0.2-0.2,0.3-0.3c0.2-0.1,0.4-0.2,0.6-0.4c0.2-0.1,0.3-0.4,0.3-0.6c0-0.1,0-0.1-0.1-0.1c-0.1,0-0.2,0-0.3,0
			c-0.2,0-0.4-0.1-0.7-0.1c0.2,0.2,0.2,0.3,0,0.5c-0.2,0.2-0.4,0.4-0.5,0.6c0,0.1-0.1,0.1-0.2,0c-0.1-0.1-0.1-0.1-0.2-0.2
			c-0.1-0.2-0.2-0.3-0.4-0.4c-0.1,0-0.1,0-0.2,0.1c0,0.1-0.1,0.2-0.3,0.2c0,0.1,0.1,0.2,0.2,0.2c0.1,0,0.1,0.1,0.2,0.1
			c0.1,0,0,0.1,0,0.1c-0.2,0.2-0.4,0.2-0.6,0c-0.1-0.1-0.3-0.2-0.4-0.3c0,0,0,0.1,0,0.1c0,0.3-0.2,0.5-0.4,0.6
			c-0.2,0.1-0.3,0.2-0.5,0.3c-0.2,0.2-0.3,0.4-0.3,0.7c0.1,0,0.1,0,0.2,0C39.9,42,40.1,41.9,40.3,41.9z"/>
		<path fill="#00D88D" d="M72.8,19.3c0.1,0.2,0.2,0.4,0.3,0.5c0.2,0.2,0.3,0.5,0.5,0.7c0.1,0.1,0.3,0.3,0.4,0.4
			c0.1,0.1,0.3,0.2,0.5,0.3c0,0,0.1,0.1,0.1,0.1c-0.1,0.4,0,0.8,0.3,1.1c0.2,0.2,0.4,0.2,0.6,0c0.1-0.1,0.1-0.2,0-0.2
			c-0.2-0.3-0.4-0.5-0.5-0.8c-0.1-0.2-0.2-0.3-0.3-0.5c-0.3-0.4-0.6-0.8-0.9-1.2c-0.2-0.3-0.5-0.6-0.7-0.9c-0.2-0.2-0.3-0.3-0.5-0.5
			c-0.3-0.2-0.5-0.5-0.8-0.7c0,0.2,0,0.4,0,0.6C72.2,18.5,72.5,18.9,72.8,19.3z"/>
		<path fill="#00D88D" d="M59.8,39.6c0,0.1,0,0.1,0,0.2c0,0.6,0,1.1-0.2,1.7c0,0.1-0.1,0.2-0.2,0.1c-0.1,0-0.2,0-0.2,0.1
			c-0.1,0.1-0.1,0.2-0.1,0.3c-0.1,0.4-0.1,0.8-0.3,1.2c0.2,0.1,0.3,0.1,0.4-0.1c0.1-0.1,0.1-0.3,0.1-0.4c0-0.1,0-0.1,0-0.2
			c0,0,0,0,0.1,0c0,0.1,0.1,0.1,0.1,0.2c0,0.3-0.1,0.5-0.2,0.7c-0.1,0.3-0.3,0.6-0.4,0.8c-0.1,0.2,0,0.4,0,0.5c0,0,0,0.1,0.1,0.1
			c0,0,0.1,0,0.1,0c0.1-0.1,0.1-0.1,0.1-0.2c0.2-0.3,0.3-0.5,0.5-0.8c0.2-0.5,0.4-1,0.5-1.5c0.1-0.4,0.2-0.9,0.3-1.3
			c0.1-0.5,0.1-1,0.1-1.6c-0.1,0-0.2,0.1-0.4,0.1C60,39.5,59.9,39.6,59.8,39.6z"/>
		<path fill="#00D88D" d="M49,21.7c-0.4,0.1-0.7,0.1-1.1,0.2c-0.5,0.1-1,0.1-1.5,0.2c-0.3,0-0.6,0-0.9,0c-0.1,0-0.1,0-0.2,0.1
			c-0.2,0.2-0.4,0.3-0.7,0.3c-0.3,0.1-0.6,0.1-0.9,0.3c-0.1,0.1-0.1,0.1-0.2,0.2c0.2,0,0.4,0.1,0.5,0.1c0.4,0,0.8,0.1,1.2,0
			c0.3-0.1,0.7-0.1,0.8-0.5c0-0.1,0.1-0.2,0.3-0.2c0.1,0,0.2,0,0.4,0c0.3,0,0.4-0.1,0.5-0.3c0,0,0.1-0.1,0.1-0.1
			c0.3,0,0.6,0.1,0.8,0.1c0.5,0.1,1.1,0,1.5-0.4c0.1-0.1,0.1-0.1,0.2,0c0.2,0.1,0.3,0.1,0.5,0.2c0.4,0.1,0.7,0,1.1-0.1
			c0.2-0.1,0.3-0.2,0.5-0.3c0,0,0,0,0,0c-0.2,0-0.4-0.1-0.5-0.1C50.6,21.4,49.8,21.5,49,21.7z"/>
		<path fill="#00D88D" d="M72.2,26.2c0.1-0.1,0.1-0.3,0.1-0.4c-0.1-0.2-0.2-0.4-0.4-0.5V26C72,26.1,72.1,26.2,72.2,26.2z"/>
		<path fill="#00D88D" d="M62.4,39.8C62.4,39.9,62.4,39.9,62.4,39.8c0.2-0.3,0.2-0.7,0.2-1.1c0-0.1,0-0.2-0.1-0.3
			c-0.2,0.1-0.3,0.2-0.5,0.3C62.1,39.1,62.2,39.5,62.4,39.8z"/>
		<path fill="#00D88D" d="M75.8,30.1c0,0-0.1-0.1-0.1-0.2c-0.1-0.4-0.2-0.7-0.4-1.1c-0.2-0.6-0.6-1.2-1.2-1.6C74,27.1,74,27,74,26.9
			c0-0.2,0-0.3,0-0.5c0-0.2-0.1-0.4-0.2-0.6c0,0-0.1-0.1-0.1-0.1c-0.1,0-0.2,0-0.3,0.1c-0.2,0-0.3,0.2-0.2,0.3
			c0.3,0.5,0.6,1,0.9,1.5c0.3,0.4,0.5,0.9,0.7,1.4c0.4,0.7,0.7,1.5,1.2,2.2c0.1,0.2,0.3,0.5,0.5,0.7c0.2-0.2,0.2-0.5,0.1-0.8
			C76.4,30.8,76.1,30.4,75.8,30.1z"/>
		<path fill="#00D88D" d="M45.1,31.1c-0.3,0.2-0.5,0.4-0.8,0.6c-0.2,0.1-0.4,0.3-0.6,0.4c-0.2,0.1-0.3,0.3-0.4,0.4
			c-0.5,0.5-1,1-1.5,1.6c-0.1,0.1-0.1,0.1-0.2,0.1c-0.2,0-0.4,0-0.6,0.2c-0.3,0.3-0.6,0.6-0.9,1c0,0,0,0,0,0
			c0.6-0.2,1.1-0.5,1.6-0.9c0.4-0.3,0.8-0.6,1.2-0.9c0.3-0.2,0.6-0.5,0.8-0.7c0.4-0.3,0.8-0.7,1.2-1c0.1-0.1,0.1-0.1,0.2-0.2
			c0-0.2,0-0.4,0-0.7C45.3,31,45.2,31,45.1,31.1z"/>
		<path fill="#00D88D" d="M65.3,40c0,0.1,0.1,0.3,0.1,0.4c0.1-0.3,0.1-0.5,0.1-0.8h-0.4C65.3,39.7,65.3,39.8,65.3,40z"/>
		<path fill="#00D88D" d="M68.9,40.1C68.9,40.1,68.9,40.1,68.9,40.1c-0.1,0.2-0.2,0.3-0.4,0.5c0,0.1-0.1,0.1-0.2,0.2c0,0,0,0,0,0
			c0-0.1,0,0,0-0.1c0-0.3,0.1-0.6,0.1-0.6h-0.6c0,0,0.1,1.3,0.2,2c0.1-0.1,0.1-0.3,0.1-0.3c0-0.2,0.1-0.4,0.3-0.6c0,0,0.1,0,0.1,0
			c0,0.1,0.1,0.2,0.1,0.4c0.1-0.1,0.1-0.2,0.1-0.2c0.3-0.4,0.5-0.7,0.6-1.2c0-0.1,0,0,0,0L68.9,40.1C68.9,40,68.9,40,68.9,40.1z"/>
		<path fill="#00D88D" d="M70.2,12.2c0.4,0.3,0.7,0.6,1.1,0.9c0.2,0.2,0.5,0.3,0.8,0.4c0,0.1,0,0.2,0.1,0.3c0.2,0.2,0.3,0.4,0.5,0.5
			c0.2,0.1,0.4,0.2,0.6,0.3c0.1,0,0.2,0,0.3,0.1c0-0.1,0-0.1,0-0.1c-0.1-0.3-0.3-0.6-0.6-0.8c-0.4-0.3-0.8-0.5-1.2-0.7
			c-0.1-0.1-0.2-0.2-0.3-0.3c-0.1-0.1-0.2-0.3-0.4-0.4c-0.4-0.4-0.7-0.7-1.1-1.1c-0.3-0.2-0.6-0.4-0.9-0.6c-0.2-0.1-0.4-0.1-0.6,0
			c0,0,0.1,0.1,0.1,0.1C69.2,11.3,69.7,11.8,70.2,12.2z"/>
		<path fill="#00D88D" d="M55.1,10.9c-0.4-0.1-0.8-0.1-1.1-0.2c-0.5-0.1-0.9-0.2-1.4-0.3c-0.5-0.1-1-0.1-1.4,0.2
			c-0.2,0.1-0.3,0.3-0.5,0.4c0.2,0.1,0.4,0.2,0.6,0.3c0,0,0.1,0,0.1,0c0.2-0.1,0.5-0.2,0.8-0.2c0.3,0.1,0.7,0.1,1,0.2
			c0.5-0.2,1-0.3,1.6-0.4C54.9,10.9,55,10.9,55.1,10.9z"/>
		<path fill="#00D88D" d="M76.5,28.2c-0.2-0.3-0.4-0.5-0.5-0.8c-0.2-0.3-0.4-0.7-0.5-1.1c0,0,0-0.1-0.1-0.1c-0.2-0.1-0.4,0-0.6,0
			c0.2,0.7,0.5,1.4,0.9,2c0.4,0.6,0.8,1.2,1.3,1.7c0.1-0.1,0.1-0.4,0.1-0.6C76.9,28.9,76.7,28.6,76.5,28.2z"/>
		<path fill="#00D88D" d="M71.8,22.3c0.2,0.3,0.5,0.6,0.7,0.9c0.4,0.5,0.7,1.1,1.2,1.5c0.1,0.1,0.3,0.2,0.4,0.3c0,0,0-0.1,0-0.1
			c-0.1-0.2-0.2-0.5-0.3-0.7c-0.2-0.5-0.4-0.9-0.8-1.3c-0.1-0.1-0.3-0.2-0.5-0.2c-0.1,0-0.1,0-0.1-0.1c0-0.2-0.2-0.5-0.3-0.6
			c-0.1-0.2-0.4-0.3-0.4-0.5L71.8,22.3C71.7,22.3,71.8,22.3,71.8,22.3z"/>
		<path fill="#00D88D" d="M75.6,25.2c0.2-0.1,0.3-0.2,0.4-0.3c0,0,0-0.1,0-0.1c-0.4-0.3-0.6-0.7-0.9-1.1c-0.3-0.5-0.6-1-0.9-1.5
			c-0.3-0.4-0.7-0.8-1.1-1.1c-0.1-0.1-0.2-0.1-0.3-0.2c0,0.2,0.1,0.6,0.2,0.8c0.3,0.5,0.6,0.9,1,1.3c0.3,0.3,0.6,0.6,0.9,1
			c0.2,0.3,0.4,0.6,0.4,1C75.3,25.1,75.5,25.2,75.6,25.2z"/>
		<path fill="#00D88D" d="M71.8,30.4c0.1,0.1,0.2,0.3,0.3,0.4c0.1,0.2,0.2,0.5,0.3,0.7c0.1,0.2,0.2,0.4,0.4,0.5c0-0.1,0-0.2-0.1-0.3
			c-0.1-0.4-0.3-0.8-0.5-1.1c-0.2-0.4-0.7-0.8-0.7-1.2v1C71.7,30.4,71.8,30.4,71.8,30.4z"/>
		<path fill="#00D88D" d="M56.6,20.9c-0.4-0.2-0.7-0.3-1.1-0.5c-0.3-0.1-0.7-0.2-1-0.2c-0.6-0.1-1.3-0.1-1.9,0.2
			c-0.3,0.1-0.5,0.3-0.7,0.5c0.1,0,0.2,0,0.3,0c0.4,0,0.8,0,1.2,0c0.5,0,0.9,0.1,1.4,0.1c0.5,0,1.1,0.1,1.6,0.1
			C56.6,21,56.7,21,56.6,20.9C56.7,20.9,56.7,20.9,56.6,20.9z"/>
		<path fill="#00D88D" d="M39.8,37.3C39.8,37.4,39.8,37.4,39.8,37.3c0.3,0,0.5-0.1,0.8-0.2c0.4-0.2,0.7-0.4,1-0.6
			c0.6-0.3,1-0.8,1.5-1.2c0.3-0.3,0.6-0.5,0.9-0.8c0.2-0.1,0.3-0.3,0.5-0.4c0,0,0,0,0,0c-0.1,0-0.1,0-0.2,0c0,0-0.1,0-0.1,0
			c-0.1-0.1-0.1-0.1-0.2,0c-0.1,0.1-0.2,0.1-0.2,0.2c-0.1,0.2-0.3,0.2-0.5,0.1c-0.1,0.2-0.3,0.5-0.4,0.7c-0.3,0.4-0.7,0.8-1.1,1
			c-0.5,0.3-1,0.7-1.5,1C40,37.1,39.9,37.2,39.8,37.3z"/>
		<path fill="#00D88D" d="M70.7,6.5c-0.3-0.1-0.6-0.1-0.9-0.2c-0.2,0-0.4-0.1-0.6-0.2c0,0,0,0,0,0c0.1,0.1,0.2,0.2,0.3,0.3
			c0.3,0.3,0.7,0.5,1.1,0.6c0.6,0.1,1.2,0.2,1.7,0.3c0.3,0.1,0.7,0.1,1,0.3c0.2,0.1,0.3,0.2,0.5,0.4c0-0.2-0.1-0.3-0.2-0.5
			c-0.1-0.2-0.3-0.4-0.6-0.5c-0.2-0.1-0.3-0.2-0.5-0.2c-0.4-0.1-0.8-0.2-1.2-0.3C71.2,6.6,70.9,6.6,70.7,6.5z"/>
		<path fill="#00D88D" d="M53.8,21.3c-0.5,0-1,0-1.4,0.2c0,0,0,0,0,0c0,0,0.1,0.1,0.1,0.1c0.5,0.3,1,0.3,1.5,0c0.1,0,0.1,0,0.2,0
			c0.5,0.2,0.9,0.3,1.4,0.5c0.5,0.2,1,0.3,1.5,0.2c0.2,0,0.3-0.1,0.5-0.2c0,0,0,0,0,0c0,0-0.1,0-0.1,0c-0.3-0.1-0.6-0.2-0.9-0.3
			c-0.4-0.1-0.7-0.2-1.1-0.3C54.9,21.4,54.4,21.3,53.8,21.3z"/>
		<path fill="#00D88D" d="M73.1,8.1C73.1,8.1,73.1,8.1,73.1,8.1C72.8,8,72.6,8,72.4,8c-0.2,0-0.3,0.1-0.4,0.2c0,0,0,0.1,0,0.1
			c0,0.1,0.1,0.1,0.2,0.1c0.2,0.1,0.4,0.3,0.6,0.4c0.5,0.3,1.1,0.7,1.6,1.1c0.3,0.2,0.7,0.5,1,0.7c0.1,0.1,0.3,0.2,0.4,0.3
			c0-0.3-0.2-0.5-0.4-0.7c-0.3-0.3-0.6-0.6-1-0.8C74,9,73.5,8.7,73.1,8.1z"/>
		<path fill="#00D88D" d="M52,9.5c0.2,0.1,0.2,0.1,0.1,0.3c0.3,0,0.6,0,0.9,0c0.2,0,0.4-0.1,0.5-0.2c0.1-0.1,0.2-0.2,0.3-0.3
			c0,0.1,0.1,0.1,0.1,0.2c0,0.1,0,0.1,0.1,0.2c0.1,0,0.1,0.1,0.2,0.1c0.2,0,0.3-0.1,0.5-0.2c0.1,0,0.3-0.2,0.2-0.3
			c0-0.1-0.1-0.2-0.3-0.2c0,0-0.1,0-0.1,0c-0.1,0-0.2-0.1-0.1-0.2c0,0,0-0.1,0-0.1c-0.4-0.1-0.8,0-1.1,0.1C52.8,9,52.4,9.1,52,9.2
			c-0.1,0-0.1,0.1,0,0.2C51.9,9.4,52,9.4,52,9.5z"/>
		<path fill="#00D88D" d="M76.8,26.3c-0.2-0.3-0.3-0.7-0.5-1c0-0.1,0-0.2-0.1-0.2c-0.1,0-0.1,0-0.2,0.1c-0.1,0.1-0.2,0.1-0.2,0.2
			c0,0,0,0.1,0,0.2c0.1,0.4,0.1,0.9,0.3,1.3c0.1,0.3,0.3,0.5,0.7,0.5c0.1,0,0.1,0,0.2,0c0,0.1,0,0.1,0,0.2c0,0.4,0.3,0.7,0.5,0.9
			c0,0,0,0,0.1,0c0-0.2,0-0.4-0.1-0.6C77.4,27.2,77.1,26.7,76.8,26.3z"/>
		<path fill="#00D88D" d="M67,40.9c0,0.4,0.1,0.7,0.3,1.1c0,0.1,0.1,0.1,0.1,0.3c0,0,0-0.1,0-0.1c0.1-0.4,0.2-0.6,0.2-1
			c0-0.5-0.1-1.2-0.2-1.2h-0.5C66.9,40,66.9,40.5,67,40.9z"/>
		<path fill="#00D88D" d="M77.7,24.9c-0.2-0.4-0.4-0.7-0.9-0.8c-0.1,0-0.1-0.1-0.1-0.2c0-0.1,0.1-0.2,0.1-0.3c0.1-0.1,0-0.2-0.1-0.2
			c-0.1,0-0.2,0-0.4,0c-0.1,0.4,0,0.8,0.2,1.2c0.2,0.3,0.5,0.6,0.9,0.7c0.3,0.1,0.4,0.4,0.2,0.6c0,0.1-0.1,0.1-0.1,0.2
			c0,0,0,0.1,0,0.1c0.1,0.2,0.3,0.4,0.5,0.5c0.2,0.1,0.3,0,0.4-0.1c-0.2-0.3-0.3-0.6-0.4-0.9C77.9,25.5,77.8,25.2,77.7,24.9z"/>
		<path fill="#00D88D" d="M53.7,42.9c0.2-0.2,0.3-0.5,0.4-0.7c0.2-0.3,0.4-0.7,0.5-1c0-0.1,0-0.2-0.1-0.2c-0.1,0-0.2,0-0.3,0
			c-0.1,0-0.1,0-0.2,0c0,0,0,0,0,0c-0.8,0.9-1.2,1.9-1.6,3c0,0,0.1,0,0.1,0c0,0,0.1,0,0.1-0.1C53.2,43.6,53.4,43.3,53.7,42.9z"/>
		<path fill="#00D88D" d="M40.3,40.8c0-0.1,0-0.1,0-0.2c0.1-0.1,0.1-0.3,0.2-0.3c0.2-0.1,0.4-0.2,0.7-0.3c0.3-0.1,0.5-0.2,0.8-0.4
			c0.2-0.1,0.3-0.3,0.4-0.5c-0.3-0.1-0.7,0-1,0.2c-0.2,0.1-0.4,0.3-0.6,0.4c-0.2,0.2-0.5,0.3-0.8,0.3c-0.1,0-0.3,0-0.4,0
			c0,0.4-0.1,0.7-0.1,1.1c0,0,0,0,0,0c0.1,0,0.1-0.1,0.2-0.1C39.8,40.8,40,40.6,40.3,40.8z"/>
		<path fill="#00D88D" d="M73.1,16.3c-0.1,0.1,0,0.1,0.1,0.2c0.3,0.1,0.5,0.2,0.7,0.4c0.4,0.3,0.7,0.8,1,1.2
			c0.1,0.2,0.3,0.4,0.5,0.5c0,0,0.1,0,0.2,0.1c0-0.1,0-0.1,0-0.2c0,0,0,0,0-0.1c0-0.1,0-0.2,0.1-0.1c-0.1-0.1-0.1-0.2-0.2-0.3
			c-0.4-0.5-0.8-0.9-1.3-1.3c-0.3-0.3-0.7-0.7-1-1c-0.1-0.1-0.2-0.1-0.3-0.1c-0.2,0-0.4-0.5-0.4,0.5c0.1,0,0.2,0,0.3,0
			C73.2,16,73.2,16,73.1,16.3C73.1,16.3,73.1,16.3,73.1,16.3z"/>
		<path fill="#00D88D" d="M65.7,39.6c0,0.6,0.2,1.2,0.3,1.8c0,0.4,0.2,0.8,0.3,1.3c0,0,0.1,0.1,0.1,0.1c0.5-0.5,0.5-0.8-0.1-1.1
			c0,0,0.1,0,0.1-0.1c0.1-0.1,0.3-0.3,0.4-0.4c0.1-0.1,0.1-0.1,0-0.2c-0.1-0.3-0.2-0.4-0.3-0.7c0-0.2-0.1-0.3-0.1-0.3h-0.8
			C65.7,40,65.7,39.6,65.7,39.6z"/>
		<path fill="#00D88D" d="M70.7,9.5c0.2,0.2,0.4,0.4,0.6,0.6c0.5,0.4,0.9,0.7,1.4,1c0.4,0.3,0.7,0.6,1,1c0,0,0.1,0.1,0.1,0.1
			c0.2,0.1,0.4,0.2,0.6,0.2c0.2,0.1,0.3,0.1,0.5,0c-1.4-1.1-2.6-2.3-4.2-3.1C70.6,9.5,70.6,9.5,70.7,9.5z"/>
		<path fill="#00D88D" d="M40.9,43.3c0,0,0.1,0,0.1,0c0.2,0,0.4-0.1,0.7-0.1c0.4-0.1,0.4-0.1,0.5-0.6c0,0,0-0.1,0-0.1
			c0-0.1,0-0.2,0-0.2c0-0.1,0-0.1-0.1-0.2c0,0-0.1,0-0.1-0.1c-0.1-0.1-0.2,0-0.3,0.1c-0.2,0.2-0.4,0.4-0.6,0.6
			c-0.2,0.2-0.5,0.3-0.8,0.3c0,0-0.1,0-0.1,0.1c-0.1,0.1-0.1,0.2-0.2,0.3c-0.1,0.2-0.2,0.3-0.4,0.5c0.1,0.1,0.2,0.1,0.3,0
			c0.1-0.1,0.2-0.2,0.2-0.3c0.1-0.2,0.2-0.2,0.3,0c0,0.1,0.1,0.1,0.2,0c0,0,0.1-0.1,0.1-0.2C40.7,43.3,40.7,43.3,40.9,43.3z"/>
		<path fill="#00D88D" d="M45,32.7c-0.2,0-0.3,0-0.5,0c-0.1,0-0.3,0.1-0.4,0.2c0.1,0.1,0.2,0.3,0.4,0.3c0.2,0,0.4,0,0.6-0.2
			c0,0,0.1,0,0.1,0c0,0,0,0.1,0,0.1c0,0,0,0.1,0,0.1c-0.1,0.1-0.1,0.3-0.2,0.4c0,0.1-0.1,0.2-0.1,0.3c0.1,0,0.1,0,0.2,0
			c0.1,0,0.3-0.1,0.4-0.1c-0.1-0.4-0.1-0.7-0.1-1.1C45.2,32.7,45.1,32.7,45,32.7z"/>
		<path fill="#00D88D" d="M47.7,15.1c0,0-0.1,0-0.1,0c-0.1,0-0.2,0.1-0.4,0.1c-0.2,0-0.5,0-0.7-0.2c0,0.1,0,0.1,0,0.2
			c0,0.1,0,0.1-0.1,0.2c-0.1,0.2-0.1,0.2,0.1,0.3c0,0,0,0,0,0c0.1,0.1,0.3,0,0.3,0.2c0.1,0,0.1,0,0.2-0.1c0.1-0.1,0.2-0.3,0.2-0.4
			C47.6,15.3,47.7,15.2,47.7,15.1z"/>
		<path fill="#00D88D" d="M78.8,21.4c0.1-0.1,0.2-0.1,0.3-0.2c-0.1-0.1-0.2-0.3-0.3-0.5c-0.1-0.2-0.1-0.4-0.1-0.6
			c-0.1,0-0.1,0-0.2,0c-0.2,0-0.3-0.1-0.4-0.3c-0.1-0.2-0.1-0.4-0.1-0.6c0-0.1,0-0.1-0.1-0.1c-0.3,0-0.3-0.1-0.3-0.4
			c0-0.1,0-0.2,0-0.3c0,0-0.2,0-0.2,0c-0.1,0-0.2,0.1-0.2,0.2c0,0,0,0.1,0,0.1c0.1,0.2,0.2,0.5,0.1,0.7c0.1,0.1,0.2,0.2,0.3,0.3
			c0.1,0.1,0.2,0.2,0.3,0.2c0,0-0.1,0.1-0.1,0.2c-0.1,0.2,0,0.4,0.1,0.5c0.2,0.2,0.4,0.4,0.5,0.7C78.6,21.5,78.7,21.5,78.8,21.4z"/>
		<path fill="#00D88D" d="M72.1,24.7c0.2,0.2,0.5,0.5,0.5,0.8c0.2-0.1,0.4-0.2,0.4-0.4c0-0.4-0.3-0.7-0.5-0.9
			c-0.2-0.3-0.9-0.6-0.9-0.8v1C71.7,24.5,72,24.6,72.1,24.7z"/>
		<path fill="#00D88D" d="M54.7,40.3c-0.1,0.1-0.1,0.2-0.2,0.3c0.1,0.1,0.3,0.2,0.5,0.1c0.2-0.1,0.3-0.2,0.4-0.4c-0.2,0-0.3,0-0.5,0
			C54.9,40.3,54.8,40.3,54.7,40.3z"/>
		<path fill="#00D88D" d="M43.2,41.3c-0.2,0.1-0.4,0.3-0.5,0.4c-0.1,0.1-0.2,0.3-0.3,0.4c-0.1,0.1,0,0.1,0,0.2c0.2,0,0.3,0,0.5,0.1
			c0.4,0,0.7-0.1,1-0.3c0.3-0.2,0.4-0.4,0.5-0.8c-0.1,0-0.1,0-0.2-0.1C43.9,41.1,43.5,41.1,43.2,41.3z"/>
		<path fill="#00D88D" d="M78.3,23.3c0,0-0.1,0-0.1,0c0,0.1-0.1,0.1-0.1,0.2c0,0.2,0,0.3,0,0.5c0,0.1-0.1,0.1-0.1,0.2
			c0,0-0.1-0.1-0.2-0.1c0,0,0,0,0-0.1c-0.1-0.2-0.2-0.4-0.2-0.5c-0.1-0.2-0.2-0.4-0.4-0.5c-0.2,0.3-0.1,0.6,0.1,0.9
			c0.2,0.3,0.5,0.5,0.8,0.7c0.2,0.1,0.4,0.2,0.7,0.3c0.1-0.3,0.1-0.6,0.2-0.9c0,0,0-0.1-0.1-0.1C78.6,23.6,78.4,23.5,78.3,23.3z"/>
		<path fill="#00D88D" d="M62.1,40.8c0,0.3,0,0.6,0,0.8c0,0.5,0.2,1,0,1.6c0.4-0.3,0.6-0.9,0.7-1.5c0-0.5-0.1-1-0.4-1.5
			C62.2,40.4,62.1,40.6,62.1,40.8z"/>
		<path fill="#00D88D" d="M75.5,31.8c-0.1-0.3-0.4-0.6-0.7-0.8c-0.1,0.3-0.1,0.6,0.1,0.8c0.1,0.1,0.2,0.3,0.4,0.4
			c0.1,0.1,0.1,0.1,0,0.2c-0.1,0-0.1,0.1-0.2,0.2c0.1,0,0.1,0.1,0.1,0.1c0.2,0.1,0.2,0.2,0.3,0.3c0,0.1,0,0.2,0,0.3
			c0,0.1,0,0.2,0,0.2c0.1,0,0.2,0,0.3,0c0.1,0,0.2,0,0.2,0c-0.1-0.4-0.2-0.7-0.3-1C75.7,32.3,75.6,32.1,75.5,31.8z"/>
		<path fill="#00D88D" d="M72.5,20.7C72.5,20.7,72.5,20.7,72.5,20.7c0-0.2-0.1-0.3-0.1-0.4c-0.1-0.3-0.2-0.6-0.5-0.9v0.9
			C72,20.5,72.2,20.7,72.5,20.7z"/>
		<path fill="#00D88D" d="M75.2,20c0.1,0.4,0.2,0.7,0.4,1.1c0.1,0.4,0.3,0.7,0.7,0.9c0.1,0.1,0.2,0.1,0.3,0.2
			C76.6,21.2,75.8,20,75.2,20z"/>
		<path fill="#00D88D" d="M77,22.5c0.2,0,0.3,0.1,0.4,0.3c0,0.1,0.1,0.1,0.1,0.2c0.1,0.1,0.2,0.1,0.3-0.1c0-0.1,0.1-0.2,0.3-0.3
			c0-0.3-0.1-0.5-0.3-0.8c-0.1-0.1-0.2-0.1-0.3-0.1c0,0-0.1,0-0.1,0c0,0,0-0.1,0-0.1c0-0.1,0.1-0.2,0.1-0.3c0.1-0.2,0-0.3-0.2-0.3
			c0,0-0.1,0-0.1,0c-0.1,0-0.1,0-0.2,0.1c0,0.1,0,0.3,0,0.4c0,0.1,0.1,0.2,0.1,0.3c0,0.1,0,0.2,0,0.3C77.1,22.2,77.1,22.3,77,22.5z"
			/>
		<path fill="#00D88D" d="M70.1,13.7c0.2,0.1,0.4,0.2,0.6,0.3c0.2,0.1,0.2,0.2,0.2,0.4c0,0.1,0,0.2,0.1,0.2c0.2,0.1,0.4,0.1,0.5,0.2
			c0-0.1,0.1-0.2,0.1-0.3c0,0,0,0,0,0c0-0.1,0-0.1-0.1-0.2c-0.1-0.3-0.4-0.5-0.7-0.7c-0.3-0.2-0.5-0.3-0.8-0.5
			c-0.1-0.1-0.2-0.2-0.4-0.4c-0.1,0.1-0.1,0.2-0.2,0.3c0,0,0,0.1,0,0.1C69.8,13.3,69.9,13.5,70.1,13.7z"/>
		<path fill="#00D88D" d="M74.8,30.1c0,0,0-0.1-0.1-0.1c-0.2-0.1-0.3-0.3-0.4-0.5c-0.1-0.2-0.2-0.5-0.3-0.7
			c-0.1-0.2-0.2-0.3-0.4-0.4c-0.2,0.3-0.2,0.6-0.3,0.9c0.4,0.1,0.6,0.2,0.7,0.6c0.1,0.2,0.1,0.4,0.1,0.6c0,0.1,0.1,0.1,0.2,0.1
			C74.6,30.5,74.7,30.3,74.8,30.1z"/>
		<path fill="#00D88D" d="M70.9,42.8c-0.2-0.1-0.2-0.3-0.2-0.4c0-0.3,0.1-0.5,0.1-0.8c0-0.1,0-0.1-0.1-0.2c-0.1-0.1-0.3-0.1-0.4-0.2
			c0,0.1,0,0.2-0.1,0.3c-0.1,0.5-0.1,0.9,0,1.4c0.1,0.2,0.2,0.4,0.4,0.6c0.1-0.2,0.2-0.3,0.2-0.5C71,42.9,70.9,42.8,70.9,42.8z"/>
		<path fill="#00D88D" d="M75.8,18.8c0,0.9,0.5,1.6,1.1,1.9C77.2,19.9,76.4,18.9,75.8,18.8z"/>
		<path fill="#00D88D" d="M72.7,29.5c0,0.2,0,0.4,0,0.6c0.1,0.3,0.2,0.6,0.4,0.8c0.1,0.1,0.2,0.3,0.4,0.4c0.2-0.3,0.2-0.8-0.1-1.1
			c-0.2-0.3-0.4-0.6-0.5-0.9C72.8,29.3,72.7,29.4,72.7,29.5z"/>
		<path fill="#00D88D" d="M73.6,31.7c-0.1,0-0.1,0.1-0.1,0.2c0,0.2,0.1,0.3,0.2,0.5c0.2,0.4,0.4,0.7,0.9,0.9c0,0,0-0.1,0-0.1
			c0-0.4,0-0.9-0.2-1.3C74.2,31.7,73.9,31.6,73.6,31.7z"/>
		<path fill="#00D88D" d="M63.3,41.7c-0.3,0.2-0.4,0.6-0.5,0.9c0,0.3,0,0.7,0.3,0.9c0.1,0.1,0.1,0.1,0.2,0.2
			c0.1-0.7,0.1-1.4,0.1-2.1C63.4,41.7,63.4,41.7,63.3,41.7z"/>
		<path fill="#00D88D" d="M64.3,38.3c0.2-0.3,0.2-0.6,0.2-0.9c0-0.2,0-0.3-0.1-0.5c-0.2,0.2-0.4,0.4-0.7,0.6
			C63.8,37.8,64,38.2,64.3,38.3z"/>
		<path fill="#00D88D" d="M42.6,32.8c0.1-0.2,0.3-0.4,0.4-0.6c-0.7,0-1.6,0.7-1.8,1.3c0.2,0,0.4,0,0.5-0.1
			C42.1,33.3,42.4,33.1,42.6,32.8z"/>
		<path fill="#00D88D" d="M61.9,42.5c-0.2,0.1-0.3,0.2-0.4,0.3c-0.1,0.2-0.2,0.5-0.2,0.7c-0.1,0.5-0.1,0.9-0.2,1.4
			C61.7,44.6,62.2,43,61.9,42.5z"/>
		<path fill="#00D88D" d="M77.6,17.7c0.1,0.1,0.3,0.1,0.4,0.2c-0.1-0.7-0.4-1.3-0.7-1.9c-0.2,0.2-0.3,0.4-0.3,0.7
			C77,17.2,77.2,17.5,77.6,17.7z"/>
		<path fill="#00D88D" d="M75.6,14.1c0,0,0,0.1,0,0.1c0,0.1,0,0.2,0.1,0.2c0.1,0.2,0.1,0.4-0.1,0.5c0.1,0.1,0.3,0.2,0.4,0.2
			c0.1,0.1,0.3,0.2,0.4,0c0.1,0.1,0,0.2,0,0.3c-0.1,0.1-0.1,0.2-0.2,0.3c0,0,0,0,0,0c0.1,0,0.1,0,0.2,0c0.1-0.1,0.3-0.1,0.4,0
			C76.7,15,76.4,14.4,75.6,14.1z"/>
		<path fill="#00D88D" d="M64.1,42.2C64.1,42.2,64.1,42.2,64.1,42.2c0.1-0.4,0.2-0.8,0.2-1.1c0-0.3-0.1-0.5-0.3-0.8
			c-0.1-0.1-0.2-0.2-0.3-0.3c0,0.2,0,0.3,0,0.5c0,0.4,0,0.9,0.2,1.3C63.9,42,64,42.1,64.1,42.2z"/>
		<path fill="#00D88D" d="M74.6,35.4c0-0.1,0-0.1-0.1-0.2c-0.1-0.1-0.2-0.1-0.4-0.2c-0.3,0.8-0.1,1.6,0.5,2c0-0.3,0-0.5,0-0.7
			C74.6,36,74.6,35.7,74.6,35.4z"/>
		<path fill="#00D88D" d="M71.3,40.2c0.2-0.1,0.2-0.4,0.2-0.7H71C71,39.7,71.2,40,71.3,40.2z"/>
		<path fill="#00D88D" d="M69.6,41.5c-0.2,0.3-0.4,1-0.3,1.4c0,0.2,0.1,0.4,0.2,0.5c0.1,0.1,0.2,0.1,0.2-0.1c0,0,0-0.1,0-0.1
			c0.1-0.4,0.2-0.7,0.1-1.1C69.8,41.9,69.7,41.6,69.6,41.5z"/>
		<path fill="#00D88D" d="M74.2,13.1c-0.1-0.1-0.2,0-0.3,0.1c0,0.2,0.1,0.4,0.2,0.6c0,0,0.1,0.1,0.1,0.1c0.1,0,0.2,0.1,0.4,0.1
			c0.3,0.1,0.5,0,0.7-0.4c-0.1,0-0.2,0-0.3-0.1C74.7,13.4,74.4,13.2,74.2,13.1z"/>
		<path fill="#00D88D" d="M75.2,16.2c0,0.3,0.1,0.5,0.3,0.6c0.2,0.2,0.5,0.2,0.8,0.3c0.1-0.5-0.5-1.1-1-1.2
			C75.2,16.1,75.2,16.2,75.2,16.2z"/>
		<path fill="#00D88D" d="M69.9,39.7c0,0.2,0.1,0.3,0.2,0.4c0.2,0.2,0.2,0.3,0.1,0.6c0,0,0,0.1,0,0.1c0.1,0.1,0.2,0.2,0.4,0.2
			c0.2,0,0.2,0,0.2-0.1c0-0.1,0-0.2,0-0.4c0,0,0,0,0,0c-0.3-0.1-0.4-0.2-0.3-0.5c0-0.1,0-0.2,0-0.3L69.9,39.7
			C69.9,39.6,69.9,39.6,69.9,39.7z"/>
		<path fill="#00D88D" d="M43.9,27.2c0.1-0.2,0.2-0.3,0.2-0.5c-0.3,0.1-0.6,0.1-0.9,0.4c-0.2,0.2-0.3,0.4-0.3,0.7
			c0.2-0.1,0.3-0.1,0.5-0.1C43.5,27.5,43.7,27.4,43.9,27.2z"/>
		<path fill="#00D88D" d="M75.2,34.5c-0.2-0.2-0.4-0.3-0.2-0.6c0,0,0,0,0,0c-0.1-0.1-0.2-0.1-0.3-0.2c0,0-0.1,0-0.1,0.1
			c-0.3,0.5-0.1,1.2,0.6,1.3c0.1,0,0.2,0,0.2-0.2C75.4,34.7,75.3,34.6,75.2,34.5z"/>
		<path fill="#00D88D" d="M59.3,22.7C59.3,22.7,59.3,22.7,59.3,22.7c-0.3-0.1-0.5-0.3-0.7-0.4c-0.2-0.1-0.4-0.1-0.6-0.1
			c-0.2,0-0.4,0.1-0.4,0.4c0.2,0,0.4,0.1,0.6,0.1c0.1,0,0.2,0.1,0.3,0.1C58.8,22.8,59.1,22.7,59.3,22.7
			C59.3,22.7,59.3,22.7,59.3,22.7z"/>
		<path fill="#00D88D" d="M60.5,42.4c0.1,0,0.1,0.1,0.1,0c0-0.1,0.1-0.1,0.1-0.2c0.2-0.4,0.1-0.8,0-1.3c-0.1,0.1-0.2,0.1-0.2,0.2
			c-0.1,0.2-0.3,0.4-0.3,0.7C60.3,42,60.3,42.2,60.5,42.4z"/>
		<path fill="#00D88D" d="M47.2,37.9c0.2,0.1,0.3,0.1,0.4,0c-0.1-0.1-0.1-0.1-0.2-0.2C47.4,37.8,47.3,37.8,47.2,37.9z"/>
		<path fill="#00D88D" d="M73.3,35.7c0.1,0.6,0.1,1.2,0.5,1.7c0.1,0.1,0.1,0.1,0.2,0c0.1-0.2,0.1-0.5,0-0.7
			C73.7,36.4,73.5,36.1,73.3,35.7z"/>
		<path fill="#00D88D" d="M41.7,35.2c-0.6-0.1-1.2,0.5-1.3,1C40.9,36.3,41.5,35.6,41.7,35.2z"/>
		<path fill="#00D88D" d="M72.6,26.6c0,0-0.1,0-0.1,0c-0.1,0.1-0.1,0.3,0,0.5c0.1,0.3,0.3,0.5,0.6,0.7c0.1,0,0.1,0,0.2,0
			c0-0.3,0-0.5-0.1-0.7C73,26.9,72.8,26.7,72.6,26.6z"/>
		<path fill="#00D88D" d="M76.3,23.2c0,0,0.1-0.1,0.1-0.2c-0.1-0.2-0.2-0.3-0.3-0.5c-0.1-0.2-0.4-0.2-0.5-0.1
			c-0.1,0.2-0.1,0.4,0,0.5c0.1,0.2,0.3,0.4,0.5,0.5C76.1,23.4,76.2,23.3,76.3,23.2z"/>
		<path fill="#00D88D" d="M69,43.8c0.2-0.2,0.2-1.2,0-1.5C68.3,42.7,68.6,43.6,69,43.8z"/>
		<path fill="#00D88D" d="M74.3,25.2c0,0-0.1,0-0.1,0c-0.1,0.1-0.2,0.3-0.1,0.5c0.1,0.2,0.4,0.3,0.6,0.4c0,0,0.1,0,0.1-0.1
			c0-0.1,0.1-0.1,0.1-0.2c0.1-0.1,0-0.2-0.1-0.2C74.7,25.4,74.5,25.3,74.3,25.2z"/>
		<path fill="#00D88D" d="M74.1,34.8c0-0.3-0.1-0.4-0.4-0.5c0.1-0.1,0.1-0.3,0.2-0.4c0,0,0,0-0.1,0c-0.1-0.1-0.1-0.2-0.2-0.2
			c0,0-0.1-0.1-0.2,0c0,0-0.1,0.1-0.1,0.1c-0.1,0.3,0,0.4,0.3,0.6c0,0.1,0,0.1-0.1,0.2C73.5,34.8,73.9,35,74.1,34.8
			C74.1,34.9,74.1,34.9,74.1,34.8z"/>
		<path fill="#00D88D" d="M74.4,14.8c-0.1,0.1-0.2,0.2-0.3,0.3C74,15.3,74,15.5,74,15.6c0,0,0,0.1,0.1,0.1c0.2,0,0.5,0,0.7,0
			c0.1,0,0.2-0.1,0.1-0.2c0-0.1-0.1-0.1-0.1-0.2c-0.1-0.1-0.1-0.1-0.2-0.1C74.5,15.1,74.4,15,74.4,14.8
			C74.4,14.9,74.4,14.8,74.4,14.8z"/>
		<path fill="#00D88D" d="M78.5,16.4c0-0.4-0.1-0.7-0.4-1c-0.1,0.1-0.3,0.2-0.4,0.3C77.7,16,78.1,16.4,78.5,16.4z"/>
		<path fill="#00D88D" d="M68.5,8c0.1-0.3-0.1-0.4-0.3-0.5c-0.4-0.1-0.7-0.1-1.1-0.4c0,0,0,0,0,0c0.1,0.1,0.1,0.3,0.2,0.3
			c0.2,0.2,0.4,0.3,0.6,0.3C68.2,7.9,68.4,8,68.5,8z"/>
		<path fill="#00D88D" d="M78.2,18.5c-0.2,0.2-0.2,0.4,0,0.6c0.1,0.1,0.2,0.2,0.4,0.3c0.1,0.1,0.3,0.3,0.3,0.5
			C79,19.6,78.6,18.6,78.2,18.5z"/>
		<path fill="#00D88D" d="M42.1,27.6c-0.1,0-0.2,0-0.3,0c-0.1,0-0.2,0-0.3,0c-0.3,0-0.5,0.2-0.6,0.5C41.3,28.2,41.9,27.9,42.1,27.6z
			"/>
		<path fill="#00D88D" d="M76.4,17.4c-0.1,0.2,0,0.4,0,0.5c0.1,0.1,0.2,0.3,0.3,0.4c0.1,0.1,0.2,0.2,0.3,0.3c0,0,0,0,0.1,0
			c0-0.1,0-0.3-0.1-0.4c-0.1-0.3-0.3-0.5-0.4-0.8C76.5,17.3,76.5,17.4,76.4,17.4z"/>
		<path fill="#00D88D" d="M72,32.4c0,0,0,0.1,0,0.1c0,0.1,0.1,0.1,0.1,0.1c0,0,0.1-0.1,0.1-0.1c0,0,0-0.1,0-0.1
			c0.1-0.3,0-0.7-0.3-0.9c0,0.1,0,0.2-0.2,0.3v0.3C72,32.2,72,32.2,72,32.4z"/>
		<path fill="#00D88D" d="M46.6,43.8c-0.1-0.1-0.2-0.1-0.3,0c-0.2,0.2-0.2,0.6,0.1,0.7c0,0,0.1,0,0.2,0c0.2-0.1,0.3-0.3,0.3-0.5
			c-0.1,0-0.1-0.1-0.2-0.1C46.7,43.9,46.7,43.8,46.6,43.8z"/>
		<path fill="#00D88D" d="M73.1,34.4c-0.1,0-0.2-0.1-0.3-0.1c-0.1,0.5,0.1,1.1,0.5,1.3c0.1-0.1,0-0.3,0-0.4
			c-0.1-0.1-0.1-0.2-0.2-0.3c-0.1-0.1-0.1-0.3,0-0.4C73.1,34.5,73.1,34.4,73.1,34.4z"/>
		<path fill="#00D88D" d="M40.9,34c0.1-0.1,0.1-0.3,0.2-0.5c0-0.1,0-0.2,0-0.2c-0.1,0-0.1,0-0.2,0c-0.2,0.1-0.4,0.3-0.4,0.5
			c0,0.2,0,0.2,0.2,0.3C40.7,34.2,40.8,34.1,40.9,34z"/>
		<path fill="#00D88D" d="M75,8.8c0.2,0.1,0.3,0,0.4-0.2c-0.3,0-0.4-0.1-0.6-0.3c-0.1-0.1-0.2-0.3-0.3-0.3c-0.1,0-0.2-0.1-0.2-0.1
			c0,0.1,0,0.2,0,0.3C74.4,8.5,74.7,8.7,75,8.8z"/>
		<path fill="#00D88D" d="M72.5,15.7c0,0,0.1,0,0.1,0c0.1-0.1,0.1-0.2,0.2-0.4c0-0.1,0-0.1-0.1-0.1c-0.1-0.1-0.2-0.1-0.3-0.2
			c-0.1-0.1-0.1-0.1-0.2-0.2c0,0,0,0,0,0c0,0.1,0,0.3,0,0.4C72.1,15.4,72.3,15.6,72.5,15.7z"/>
		<path fill="#00D88D" d="M62.3,43.9c-0.1,0.2-0.2,0.4-0.3,0.6c0,0,0,0.1,0.1,0.1c0.2,0.1,0.4,0,0.5-0.2c0.1-0.2,0.1-0.4,0.2-0.7
			c-0.1,0-0.2,0-0.2,0C62.4,43.8,62.3,43.9,62.3,43.9z"/>
		<path fill="#00D88D" d="M45.4,19.6c-0.4-0.1-0.8,0.1-0.9,0.4C44.8,20.3,45.2,20.1,45.4,19.6z"/>
		<path fill="#00D88D" d="M70.8,44c-0.1,0-0.1,0-0.2,0c0,0,0-0.1-0.1-0.1c-0.1,0.1-0.1,0.1-0.2,0.2c-0.1,0.2-0.1,0.4,0,0.6
			c0,0,0.1,0.1,0.1,0.1c0.1,0,0.1,0.1,0.1,0c0,0,0.1-0.1,0.1-0.1c0.1,0,0.1-0.1,0.1-0.2C70.8,44.3,70.7,44.2,70.8,44z"/>
		<path fill="#00D88D" d="M43.9,33.3c-0.4,0-0.8,0.3-0.9,0.7C43.3,34,43.9,33.7,43.9,33.3z"/>
		<path fill="#00D88D" d="M62.8,39.2c0,0.2,0,0.3,0.1,0.5c0,0.1,0.1,0.3,0.3,0.3c0,0,0.1,0,0.1,0c0.1-0.1,0.1-0.4,0-0.5
			C63,39.3,62.9,39.2,63,39C62.8,39,62.8,39,62.8,39.2z"/>
		<path fill="#00D88D" d="M48.3,40.8c-0.3-0.1-0.7,0.3-0.9,0.7C47.8,41.5,48.3,41.1,48.3,40.8z"/>
		<path fill="#00D88D" d="M40.7,32c0.3,0,0.4-0.2,0.5-0.4c-0.1-0.1-0.3-0.2-0.4-0.1c-0.1,0.1-0.2,0.1-0.4,0.2c-0.1,0-0.1,0.1,0,0.1
			C40.5,32,40.6,32,40.7,32z"/>
		<path fill="#00D88D" d="M47.1,43.9c0.1,0,0.2,0,0.2-0.1c0-0.1,0.1-0.2,0.1-0.3c0-0.2-0.1-0.2-0.2-0.2c-0.2,0-0.4,0.3-0.4,0.4
			C46.9,43.9,47,43.9,47.1,43.9z"/>
		<path fill="#00D88D" d="M71.8,40.7c0-0.1-0.2-0.1-0.2,0c-0.1,0.2-0.2,0.3-0.2,0.5c0.2,0,0.3,0.1,0.5,0.1c0-0.1,0-0.2,0-0.3
			C71.8,40.9,71.8,40.8,71.8,40.7z"/>
		<path fill="#00D88D" d="M40.5,42c-0.1,0.1-0.2,0.2-0.2,0.3c0,0.1,0.2,0.2,0.3,0.1c0.2-0.1,0.3-0.2,0.4-0.4
			C40.9,41.9,40.7,41.9,40.5,42z"/>
		<path fill="#00D88D" d="M63.1,40.7c0,0.2,0.1,0.4,0.1,0.6c0.3-0.1,0.3-0.1,0.2-0.4c-0.1-0.2-0.1-0.4-0.1-0.6
			C63.2,40.4,63.1,40.6,63.1,40.7z"/>
		<path fill="#00D88D" d="M43,23.1c0.2,0,0.3-0.2,0.3-0.4c-0.3-0.1-0.5-0.1-0.7,0.2C42.7,23.1,42.8,23.2,43,23.1z"/>
		<path fill="#00D88D" d="M56.2,43.5c0.1,0.1,0.2,0,0.2-0.1c0-0.1,0.1-0.2,0.1-0.2c0.1-0.1,0-0.2-0.1-0.2c0,0-0.1,0-0.1,0
			c0,0,0,0,0,0c-0.2,0-0.1,0-0.1,0c-0.2,0-0.3,0.2-0.2,0.4C56.1,43.4,56.2,43.4,56.2,43.5z"/>
		<path fill="#00D88D" d="M72.3,32.9c-0.1,0-0.1,0.1-0.1,0.2c0,0,0,0.1,0.1,0.1c0.1,0.1,0.1,0.2,0.2,0.3c0.1,0,0.2-0.1,0.2-0.2
			c0-0.2,0-0.3-0.2-0.4C72.4,32.8,72.3,32.8,72.3,32.9z"/>
		<path fill="#00D88D" d="M57.6,22.9C57.6,22.9,57.6,22.9,57.6,22.9C57.6,22.9,57.6,22.9,57.6,22.9C57.6,22.9,57.6,22.9,57.6,22.9z"
			/>
		<path fill="#00D88D" d="M46.2,39c0.2-0.2,0.4-0.4,0.6-0.6c-0.3-0.1-0.6,0.2-0.9,0.6C46,39.1,46.1,39.1,46.2,39z"/>
		<path fill="#00D88D" d="M63.3,7C63.2,6.8,63,6.9,62.9,7c0,0,0,0.1-0.1,0.1c0.2,0.1,0.4,0.2,0.6,0.3C63.5,7.2,63.5,7.1,63.3,7z"/>
		<path fill="#00D88D" d="M42.7,34.4c0-0.1,0-0.1-0.1-0.1c-0.1,0-0.2,0-0.3,0.1c-0.1,0.1-0.2,0.1-0.3,0.2c0,0.1,0.1,0.1,0.2,0.1
			C42.4,34.8,42.6,34.6,42.7,34.4z"/>
		<path fill="#00D88D" d="M71.2,42.4c-0.1,0-0.1,0.1-0.2,0.2c0,0,0,0,0,0c0,0.1,0,0.3,0.2,0.4c0,0,0.1,0,0.1,0
			c0.1-0.1,0.1-0.2,0.1-0.2C71.5,42.6,71.3,42.4,71.2,42.4z"/>
		<path fill="#00D88D" d="M40.7,39.3c0.2,0,0.3-0.1,0.3-0.3c0-0.1,0-0.2-0.1-0.2c-0.2,0-0.3,0.1-0.4,0.2
			C40.4,39.2,40.5,39.2,40.7,39.3C40.6,39.3,40.7,39.3,40.7,39.3z"/>
		<path fill="#00D88D" d="M73.1,32.6c0,0.1-0.1,0.1-0.1,0.2c0,0,0,0.1,0,0.1c0,0.1,0.1,0.2,0.2,0.3c0,0,0.1,0,0.1,0
			c0-0.1,0.1-0.3,0.1-0.4C73.3,32.8,73.2,32.7,73.1,32.6z"/>
		<path fill="#00D88D" d="M50.2,39.5c0.3,0.1,0.5,0.2,0.8,0.3l0,0C50.7,39.7,50.5,39.6,50.2,39.5z"/>
		<path fill="#00D88D" d="M55.8,40.2L55.8,40.2L55.8,40.2c0.2,0,0.4,0,0.5,0v0C56.2,40.2,56,40.2,55.8,40.2z"/>
		<path fill="#00D88D" d="M56.9,40.2L56.9,40.2c0.2,0,0.4-0.1,0.6-0.1l0,0C57.4,40.1,57.1,40.1,56.9,40.2z"/>
	</g>
	<g>
		<path d="M143.4,27c1.8,0,3.1,0.4,4.1,1.3c0.9,0.9,1.4,2.3,1.4,4.1c0,1-0.1,1.8-0.3,2.5c-0.2,0.7-0.5,1.4-1,1.9
			c-0.4,0.5-1,0.9-1.7,1.2c-0.7,0.3-1.5,0.4-2.5,0.4h-3.9V27H143.4z M143.5,37.2c0.2,0,0.4,0,0.6,0c0.3,0,0.5-0.1,0.8-0.2
			c0.3-0.1,0.6-0.2,0.9-0.4c0.3-0.2,0.5-0.5,0.8-0.8c0.2-0.3,0.4-0.7,0.6-1.2c0.1-0.5,0.2-1.1,0.2-1.8c0-0.7-0.1-1.3-0.2-1.8
			c-0.1-0.5-0.4-1-0.7-1.4c-0.3-0.4-0.7-0.7-1.2-0.9c-0.5-0.2-1.1-0.3-1.8-0.3H141v8.9H143.5z"/>
		<path d="M159.4,38.4l-2.6-9.6h0l-2.6,9.6h-1.6L149.7,27h1.5l2.2,9.5h0L156,27h1.6l2.5,9.5h0l2.3-9.5h1.5L161,38.4H159.4z"/>
		<path d="M167.6,27l3.6,9.6l3.6-9.6h2.1v11.4h-1.4V29h0l-3.6,9.5h-1.3L167,29h0v9.5h-1.4V27H167.6z"/>
	</g>
</g>
</svg>
