<?xml version="1.0" encoding="utf-8"?>
<!-- Generator: Adobe Illustrator 17.1.0, SVG Export Plug-In . SVG Version: 6.00 Build 0)  -->
<!DOCTYPE svg PUBLIC "-//W3C//DTD SVG 1.1//EN" "http://www.w3.org/Graphics/SVG/1.1/DTD/svg11.dtd">
<svg version="1.1" id="Calque_1" xmlns="http://www.w3.org/2000/svg" xmlns:xlink="http://www.w3.org/1999/xlink" x="0px" y="0px"
	 viewBox="0 0 1144 293" enable-background="new 0 0 1144 293" xml:space="preserve">
<g>
	<path fill="#FFFFFF" d="M0,46.7V0h207.2v46.7h-75.8v206.1H75.8V46.7H0z"/>
	<path fill="#FFFFFF" d="M221.7,69.8v34h0.7c2.4-5.7,5.5-10.9,9.6-15.8c4-4.8,8.6-9,13.8-12.4c5.2-3.4,10.7-6.1,16.6-8
		c5.9-1.9,12-2.8,18.4-2.8c3.3,0,7,0.6,11,1.8v46.7c-2.4-0.5-5.2-0.9-8.5-1.2c-3.3-0.4-6.5-0.5-9.6-0.5c-9.2,0-17,1.5-23.4,4.6
		c-6.4,3.1-11.5,7.3-15.4,12.6c-3.9,5.3-6.7,11.5-8.3,18.6c-1.7,7.1-2.5,14.8-2.5,23v82.5h-50.3V69.8H221.7z"/>
	<path fill="#FFFFFF" d="M606.5,102.7c-8,0-14.8,1.8-20.2,5.5c-5.4,3.7-9.9,8.4-13.3,14.2c-3.4,5.8-5.8,12.2-7.3,19.1
		c-1.4,7-2.1,13.9-2.1,20.7c0,6.6,0.7,13.3,2.1,20.2c1.4,6.8,3.7,13,6.9,18.6c3.2,5.5,7.5,10.1,12.9,13.6c5.4,3.5,12,5.3,19.8,5.3
		c12,0,21.3-3.4,27.8-10.1c6.5-6.7,10.6-15.8,12.2-27.1H694c-3.3,24.3-12.8,42.9-28.3,55.6c-15.6,12.7-35.5,19.1-59.8,19.1
		c-13.7,0-26.3-2.3-37.7-6.9c-11.5-4.6-21.2-11-29.2-19.3c-8-8.3-14.3-18.1-18.8-29.6c-4.5-11.4-6.7-24-6.7-37.7
		c0-14.2,2.1-27.3,6.2-39.5c4.1-12.2,10.2-22.7,18.2-31.5c8-8.9,17.8-15.8,29.4-20.7c11.6-5,24.8-7.4,39.7-7.4
		c10.9,0,21.3,1.4,31.3,4.2c10,2.8,19,7.1,26.9,12.9c7.9,5.8,14.3,13,19.3,21.6c5,8.6,7.8,18.8,8.5,30.6h-49.2
		C640.4,113.2,628,102.7,606.5,102.7z"/>
	<path fill="#FFFFFF" d="M756.7,208.9c7.6,7.3,18.4,11,32.6,11c10.1,0,18.9-2.5,26.2-7.6c7.3-5.1,11.8-10.4,13.5-16.1h44.3
		c-7.1,22-17.9,37.7-32.6,47.1c-14.6,9.4-32.3,14.2-53.1,14.2c-14.4,0-27.4-2.3-39-6.9c-11.6-4.6-21.4-11.2-29.4-19.7
		c-8-8.5-14.2-18.6-18.6-30.5c-4.4-11.8-6.6-24.8-6.6-39c0-13.7,2.2-26.4,6.7-38.2c4.5-11.8,10.9-22,19.1-30.6
		c8.3-8.6,18.1-15.4,29.6-20.4c11.4-5,24.1-7.4,38.1-7.4c15.6,0,29.2,3,40.7,9c11.6,6,21.1,14.1,28.5,24.3
		c7.4,10.2,12.8,21.7,16.1,34.7c3.3,13,4.5,26.6,3.5,40.7H744.3C745,189.8,749.1,201.6,756.7,208.9z M813.5,112.6
		c-6-6.6-15.2-9.9-27.4-9.9c-8,0-14.7,1.4-20,4.1c-5.3,2.7-9.6,6.1-12.7,10.1c-3.2,4-5.4,8.3-6.7,12.7c-1.3,4.5-2.1,8.5-2.3,12h81.8
		C823.7,128.9,819.5,119.2,813.5,112.6z"/>
	<g>
		<path fill="#00D88D" d="M348.8,213.4c-1.5-1-3.1-1.7-4.8-2.1c0.4,1.4,0.9,2.7,1.5,3.9c1.6,3.1,3.9,5.5,6.7,7.3
			c1.1,0.7,2.3,1.3,3.5,1.8c0-1.4-0.3-2.7-0.9-4.1C353.5,217.3,351.4,215.1,348.8,213.4z"/>
		<path fill="#00D88D" d="M382.3,219.9c-2.7-1.1-4.7-3.1-6.6-5.3c-1.3-1.6-2.5-3.3-3.8-4.9c-1.6-2-3.2-4.1-5.4-5.7
			c-1.6-1.1-3.1-2.3-5.2-2.2c-0.9,0-1.9,0-2.8,0c-1.6,0-3.1-0.5-4.5-1.2c-1.5-0.8-3-1.7-4.6-2.5c-1.8-0.9-3.7-1.4-5.6-1.5
			c-0.3,1.2-0.5,2.4-0.6,3.7c2.3,0.1,4.6,0.3,6.9,0.6c3.3,0.5,6.5,1.4,9.3,3.5c2.3,1.7,4.6,3.3,7,5c2.1,1.4,3.6,3.2,3.8,5.8
			c0.1,0.7,0.2,1.4,0.3,2.1c0.3,1.4,0.7,2.6,2.5,2.7c0.7,0,1.3,0.3,1.9,0.5c0.2,0.1,0.5,0.1,0.6,0.3c0.8,1,1.8,1.9,2.5,3
			c0.7,1.1,1.2,2.2,1.6,3.3c1-0.1,2-0.2,3-0.3c-0.2-2.1-0.3-4.1,0.1-6.2C382.7,220.3,382.5,220,382.3,219.9z"/>
		<path fill="#00D88D" d="M373.4,191.2c-3.2-1.3-6.6-2.1-10-2.8c-3.1-0.7-6.2-1.7-9.2-2.7c-0.7-0.2-1.4-0.6-2-1.2c0,0,0,0-0.1,0
			c-0.9,0.7-1.7,1.4-2.5,2.2c0.1,0.1,0.3,0.3,0.4,0.3c1.5,0.8,2.9,1.7,4.5,2.3c1.9,0.7,3.9,1.3,5.9,1.8c2.8,0.7,5.6,1.2,8.4,1.8
			c3.1,0.7,6.1,1.6,8.9,3.3c0.5,0.3,1.1,0.6,1.6,0.9c0-0.6-0.2-1-0.4-1.5C377.8,193.4,375.6,192.1,373.4,191.2z"/>
		<path fill="#00D88D" d="M360.3,180.3c-2.3,0.8-4.4,1.8-6.3,3c1.2-0.1,2.4,0,3.6,0.3c3.3,0.9,6.6,2,9.9,3c1.1,0.3,2.2,0.6,3.3,0.9
			c0-2.1-1.2-3.3-2.5-4.3c-1.5-1.1-3.3-1.7-5.1-2.2C362.2,180.7,361.2,180.5,360.3,180.3z"/>
		<path fill="#00D88D" d="M408.6,183c-2.8-2.3-5.8-4.1-9-5.7c-2.2-1.1-4.4-2.2-6.6-3.3c-1.1,0.2-2.3,0.4-3.4,0.5c1,0.5,2.1,1,3,1.5
			c3.5,2,7,4.1,10.4,6.3c2.9,1.8,5.7,3.8,8.5,5.8c0.9,0.6,1.8,1.4,2.8,2.1c0-0.3,0-0.3,0-0.4C412.9,187.1,410.9,184.9,408.6,183z"/>
		<path fill="#00D88D" d="M367.9,114.2c3.3,0.7,6.6,1.4,9.9,2.1c2.6,0.6,5.1,1.4,7.6,1.9c2.7,0.6,5.5,0.9,8.3,0.3
			c1.1-0.2,1.1-0.2,1.4,0.9c0.1,0.7,0.3,1.3,1.3,1.4c0-0.5,0.1-0.9,0.1-1.4c-0.1-0.9-0.4-1.8-0.4-2.7c-0.1-0.8-0.5-1-1.1-1.2
			c-2.6-0.7-5.1-1.5-7.7-2.2c-2.4-0.7-4.8-1.3-7.2-1.8c-2.3-0.5-4.5-1-6.8-1.4c-2.6-0.5-5.2-0.9-7.8-1.3c-1.5-0.2-3-0.4-4.5-0.4
			c-1,0-2.1,0-3.1,0c-1.3,1-2.4,2.2-3.4,3.6c2.3,0.3,4.5,0.6,6.8,1C363.4,113.4,365.7,113.8,367.9,114.2z"/>
		<path fill="#00D88D" d="M365.6,178.7c0.3-0.1,0.6-0.2,0.9-0.4c-0.7,0.2-1.4,0.4-2,0.6c0,0,0,0,0.1,0
			C364.9,178.9,365.3,178.8,365.6,178.7z"/>
		<path fill="#00D88D" d="M358.7,128.3c3.1,0.6,6.1,1.5,9.1,2.3c4.3,1.1,8.4,2.7,12.4,4.5c2.7,1.2,5.3,2.6,7.9,3.9
			c0.3,0.1,0.6,0.2,0.9,0.2c2.2-0.4,4.2,0.4,6,1.4c1.6,0.9,3.2,1.8,4.8,2.8c1.3-0.4,2.5-0.9,3.6-1.4c-1.3-0.7-2.5-1.3-3.8-2
			c-2.4-1.3-4.8-2.9-7.2-4.2c-2.1-1.1-4.4-2.1-6.6-3c-3.1-1.2-6.2-2-9.5-2.2c-1,0-1.8-0.1-2.6-0.9c-1.8-1.6-4-2.5-6.3-3
			c-2.5-0.6-5-0.8-7.5-0.5c-0.9,0.1-1.7,0.1-2.6-0.5c-0.9-0.7-2-1.3-3-1.8c-1.4-0.8-2.9-1.2-4.4-1.5c-0.3,1.4-0.6,2.9-0.8,4.5
			c0.1,0,0.1,0,0.2,0C352.3,127.3,355.5,127.7,358.7,128.3z"/>
		<path fill="#00D88D" d="M361.3,210.4c-0.2,0-0.6-0.3-0.6-0.5c-0.2-1.3-0.9-2.3-1.7-3.2c-2.6-2.7-6-3.4-9.5-3.9
			c-0.2,0-0.6,0.4-0.7,0.6c-0.1,0.6-0.1,1.3-0.2,1.9c-0.1,0.6-0.4,0.9-1,0.7c-1.5-0.4-2.9-0.9-4.4-1.3c0,1.5,0.2,3,0.4,4.4
			c0.5,0.2,1,0.4,1.5,0.6c2.5,1,4.8,2.5,6.9,4.2c2.3,1.9,4.5,3.9,6.2,6.4c1.1,1.7,2.3,3.3,3.4,5c0.1,0.2,0.3,0.4,0.4,0.7
			c0.1,0,0.2,0.1,0.3,0.1c0.3,0.1,0.7,0.1,1,0.2c0-0.1,0-0.1,0-0.2c0.3-2.5-0.5-4.7-1.5-6.9c-1.6-3.2-4-5.9-6.6-8.3
			c-1.6-1.4-3.5-2.5-5.3-3.8c-0.1-0.1-0.2-0.2-0.4-0.4c0.6,0,1,0.1,1.5,0.1c2.9,0,5.3,1.1,7.4,3c1.4,1.3,2.8,2.8,4.1,4.1
			c0.6,0.7,1.3,1.4,1.9,2.1c-1.4,0.6-1.5,1.1-0.6,2.2c1.2,1.5,2.8,2.5,4.4,3.6c0.1,0.1,0.3,0,0.4,0.1c0.1-0.3,0.1-0.5,0.2-0.8
			c0.5-2.3,0.2-4.5-1-6.6C366.3,211.9,364.1,210.6,361.3,210.4z"/>
		<path fill="#00D88D" d="M374.5,201.4c-2-1.6-4.1-3-6.3-4.3c-2-1.2-4.3-2.1-6.4-3c-1.2-0.5-2.4-0.8-3.7-1c-2.2-0.4-4.4-0.8-6.4-1.8
			c-1.5-0.7-2.6-1.7-3.5-3c-0.8,0.9-1.5,1.9-2.1,3c0.1,0,0.2,0.1,0.3,0.1c4.2,1.4,8.3,3.2,12.2,5.4c2.7,1.5,5.2,3.3,7.5,5.3
			c2,1.7,3.7,3.5,5.2,5.6c0.1,0.2,0.4,0.4,0.6,0.4c0.5,0.2,1.1,0.2,1.6,0.4c2.7,0.7,5,2.2,6.6,4.4c1.3,1.7,2.2,3.7,3.3,5.6
			c1.1,1.9,2.1,3.9,3.3,5.8c0.3,0.5,0.7,1,1.2,1.5c0.6-0.1,1.1-0.3,1.7-0.4c-0.9-4.8-2.8-9.2-5.5-13.3
			C381.4,208,378.3,204.4,374.5,201.4z"/>
		<path fill="#00D88D" d="M413.4,175.7c-0.4,0.3-0.6,0.2-0.9-0.3c-0.6-1.1-1.3-2.1-2.1-3c-0.7-0.8-1.5-1.5-2.3-2.2
			c-0.5,0.2-0.9,0.3-1.4,0.5c-0.9,0.3-1.7,0.6-2.6,0.8c2.8,1.9,5.5,3.9,8.3,6c0.8,0.6,2.3,1.3,2.3,2.1v-3.7
			C414.7,175.4,413.9,175.3,413.4,175.7z"/>
		<path fill="#00D88D" d="M370.4,104.4c1.6,0.1,2.8,0.4,3.4,2.1c0,0.1,0.1,0.1,0.1,0.1c0.1,0.9,0.8,0.9,1.4,0.9c2,0,4.1-0.1,6.1-0.2
			c2.4-0.2,4.8-0.1,7.2,0.6c1,0.3,2,0.7,3,1.1c0.1-0.2,0.2-0.4,0.2-0.5c-0.3-1.4-0.8-2.7-2-3.6c-1.3-1-2.8-1.6-4.3-2.1
			c-1.9-0.6-1.9-0.7-3.1,0.8c-0.4,0.5-0.9,0.7-1.4,0.5c-1.7-0.4-3.4-0.9-5.1-1.3c-0.8-0.2-1.7-0.4-2.5-0.6c-3,0.5-5.7,1.2-8.2,2.2
			C366.7,104.3,368.5,104.3,370.4,104.4z"/>
		<path fill="#00D88D" d="M392.5,206.6c-1.4-1.7-2.8-3.4-4.2-5.1c-0.2-0.3-0.3-0.6-0.5-1c0.6,0.1,1.1,0.1,1.5,0.2
			c2,0.4,3.2,1.8,4.2,3.4c0.9,1.5,1.7,3.1,3.1,4.3c1,0.9,2,1.9,3.5,2c-0.1-0.2-0.1-0.3-0.1-0.5c-0.9-1.7-1.8-3.5-2.9-5.2
			c-0.6-0.9-1.2-1.8-2-2.6c-1-1.1-2.1-2.1-3.2-3.2c-2.4-2.3-4.9-4.5-7.7-6.2c-2.5-1.6-5.1-3.1-7.7-4.6c-1.2-0.7-2.4-1.1-3.7-1.6
			c0,0.1-0.1,0.2-0.1,0.2c2.1,1.7,4.1,3.4,6.2,5.1c1.1,0.9,2.2,1.9,3.5,2.7c1.7,1.1,3.5,2.1,5.2,3.1c0.2,0.1,0.3,0.6,0.3,0.8
			c-0.2,0.7-0.9,0.9-1.7,0.4c-0.8-0.4-1.6-0.9-2.4-1.3c0,0.1-0.1,0.1-0.1,0.2c0.2,0.3,0.3,0.6,0.5,0.8c1.4,1.9,2.9,3.7,4.3,5.7
			c1.6,2.2,3.1,4.5,4.6,6.9c1.1,1.7,2.2,3.4,3.2,5.1c0.9,1.7,1.8,3.4,2.7,5.1c1.3-0.9,2.5-1.8,3.6-2.7c-1.4-2.3-3-4.3-4.9-6.3
			C395.7,210.3,394.1,208.5,392.5,206.6z"/>
		<path fill="#00D88D" d="M374.9,225.3c-0.9-0.8-2-1.3-3-2c-0.1,0.1-0.1,0.2-0.2,0.2c0,0.2,0,0.4,0.1,0.7c0.3,1,0.5,2,0.8,3
			c0.5,0,0.9,0,1.4,0c0.9,0,1.7,0,2.5-0.1C376,226.5,375.6,225.8,374.9,225.3z"/>
		<path fill="#00D88D" d="M357.5,120c0.7-0.3,1.4-0.5,1.1-1.6c-0.1-0.2,0-0.4,0.1-0.7c0.1-0.5,0-0.7-0.5-0.7
			c-1.2-0.1-2.4-0.3-3.6-0.4c-0.9-0.1-1.8-0.2-2.7-0.3c-0.6,1.2-1,2.5-1.4,3.8C352.7,120.7,355.1,120.9,357.5,120z"/>
		<path fill="#00D88D" d="M406.5,198.5c-1.6-2.5-3.2-4.9-4.9-7.3c-1.1-1.5-2.5-2.9-3.8-4.2c-2.6-2.4-5.2-4.7-8-6.9
			c-2.3-1.7-4.7-3.3-7.3-4.7c-1.6,0.2-3.2,0.4-4.8,0.7c1.4,0.6,2.8,1.3,4.1,2.1c2.5,1.5,4.8,3.1,7.1,4.9c2.2,1.8,4.4,3.7,6.4,5.8
			c2,2,3.9,4.2,5.6,6.5c2.3,2.9,4.4,5.9,6.5,8.9c0.9,1.4,1.8,2.8,2.6,4.2c0.1-0.3,0.2-0.5,0.4-0.8c0,0,0-0.1,0-0.1
			C409.5,204.4,408.3,201.3,406.5,198.5z"/>
		<path fill="#00D88D" d="M411.9,168.4c0.9,0.6,1.8,1.3,2.8,1.9v-4C413.7,167.1,412.9,167.7,411.9,168.4z"/>
		<path fill="#00D88D" d="M399.8,105.5c0.3-0.1,0.4-0.4,0.6-0.6c0.2-0.2,0.4-0.4,0.6-0.7c0.2,0.3,0.6,0.6,0.6,0.9
			c0,0.6-0.1,1.2-0.2,1.9c1.2,0.1,2.5,0.4,3.7,0.4c1,0.1,1.9,0.3,2.7,0.6c-0.9-0.8-1.9-1.6-3-2.2c-2.9-1.8-6.3-2.9-10.2-3.5
			c-0.3,0.1-0.6,0.3-0.8,0.5c-0.1,0.1-0.3,0.5-0.2,0.7C394.7,105,398.1,106.1,399.8,105.5z"/>
		<path fill="#00D88D" d="M392.6,216.3c-0.6-1.4-1.1-2.9-1.7-4.3c-0.2-0.6-1-1-1.5-0.8c-0.7,0.3-0.4,0.8-0.2,1.3
			c0.4,1,0.8,2.1,1.1,3.1c0.9,2.9,1.7,5.7,2.6,8.6c1-0.4,2-0.9,2.9-1.4c-0.1-0.2-0.2-0.4-0.3-0.6
			C394.6,220.2,393.5,218.3,392.6,216.3z"/>
		<path fill="#00D88D" d="M409.7,137.1c0.3-0.6,0.6-1.1,0.8-1.6c0.2-0.5,0.4-1,0.7-1.6c-12.7-7.4-25.9-13.2-40.6-14.8
			c-0.5-0.1-1.1-0.1-1.6-0.2c0,0.1-0.1,0.2-0.1,0.3c1.2,0.6,2.4,1.3,3.6,1.8c2.5,1.1,5,2.2,7.6,3.1c2.9,1,5.8,1.8,8.7,2.8
			c3.3,1.2,6.6,2.3,9.9,3.7c3.5,1.4,6.8,3.2,9.8,5.5C408.8,136.5,409.2,136.7,409.7,137.1z"/>
		<path fill="#00D88D" d="M410.2,200.8c-0.2,0.3-0.3,0.7,0.2,1.1c0.6,0.4,1.2,0.9,1.8,1.4c0.2-0.7,0.5-1.4,0.7-2.1
			c-0.6-0.2-1.1-0.6-1.7-0.8C410.9,200.3,410.4,200.6,410.2,200.8z"/>
		<path fill="#00D88D" d="M404.4,187.5c-0.1,1.5,0.3,2.6,0.9,3.7c1,1.7,2.6,3,4,4.4c1.4,1.3,2.6,2.6,3.9,4c0.2-1,0.4-2.1,0.6-3.1
			c0-0.3,0.1-0.5,0.1-0.8c-2.5-2.6-5.2-4.8-7.9-7.1C405.5,188.2,405,187.9,404.4,187.5z"/>
		<path fill="#00D88D" d="M399.9,175.1c3.2,1.8,6.3,3.7,9.4,5.6c0.9,0.6,1.8,1.2,2.7,1.7c0.1-0.1,0.1-0.1,0.2-0.2
			c-1.3-1.4-2.6-2.9-4-4.3c-2.2-2.1-4.5-4-7.1-5.5c-1.4,0.4-2.9,0.7-4.4,1C397.8,173.9,398.9,174.5,399.9,175.1z"/>
		<path fill="#00D88D" d="M390.8,129.7c-3.3-1.3-6.6-2.6-10-3.2c-1.8-0.3-3.6-0.6-5.4-0.9c-0.3,0-0.6,0-0.8,0c0,0.1,0,0.1,0,0.2
			c10.4,5.5,21.5,9.6,32.2,14.7c0.3-0.1,0.5-0.3,0.8-0.4c-1.4-1.1-2.8-2.3-4.3-3.3c-2.1-1.4-4.2-2.7-6.4-4
			C394.8,131.6,392.8,130.5,390.8,129.7z"/>
		<path fill="#00D88D" d="M368.2,227c0.1,0,0.2,0,0.3,0c-0.1-0.1-0.2-0.2-0.3-0.3C368.2,226.8,368.2,226.9,368.2,227z"/>
		<path fill="#00D88D" d="M414.1,120c-0.1-0.6-0.2-1.2-0.4-1.8c-0.5,0.3-0.8,0.7-1.1,1.1c0.1,0.1,0.1,0.1,0.2,0.2
			C413.3,119.6,413.7,119.8,414.1,120z"/>
		<path fill="#00D88D" d="M398.9,112c0.7,1.3,2.3,2.2,1.6,4.2c1.6-1.1,3-0.9,4.4,0c0.7,0.4,1.4,0.9,2.2,1.2c0.7,0.3,1.4,0.4,2.2,0.6
			c0.1-1.9-0.9-3.2-1.9-4.2c-1.6-1.5-3.5-2.7-5.6-3.5c-2.5-1-5-1.8-7.5-2.8c-1.1-0.4-1.4-0.1-1.3,1.1
			C393.4,111.4,396.1,113.1,398.9,112z"/>
		<path fill="#00D88D" d="M397.9,119.8c0.2,0.4,0.3,0.7,0.4,1c1,1.6,2.5,2.6,4,3.4c1.9,1,3.9,1.7,5.9,2.3c1.7,0.5,3.4,0.6,5.2,0.7
			c0.4,0,0.8,0,1.2,0c0-0.3,0-0.5,0-0.8c0-0.1,0-0.2,0-0.4c-1.1-0.6-2.2-1.2-3.2-1.8c-2.1-1.3-4.2-2.5-6.6-3.3
			C402.7,120,400.4,119.7,397.9,119.8z"/>
		<path fill="#00D88D" d="M371.3,195.4c0,0.1-0.1,0.1-0.1,0.2c4.7,6.1,11.1,10.5,16.8,15.6c0.1-0.1,0.2-0.1,0.3-0.2
			c-0.3-1.2-0.5-2.6-1.1-3.6c-1-1.8-2.4-3.3-4-4.6c-3-2.4-6.4-4.2-9.7-6.2C372.7,196.1,372,195.8,371.3,195.4z"/>
		<path fill="#00D88D" d="M346.5,194.2c-0.5-0.4-0.9-0.8-1.4-1.1c-0.2,0.4-0.4,0.8-0.5,1.3c1,0.2,1.9,0.5,3,0.8
			C347.1,194.7,346.8,194.5,346.5,194.2z"/>
		<path fill="#00D88D" d="M392.7,194.9c0.5,1.7,1.8,2.9,3,4.1c0.7,0.7,1.6,1.2,2.4,1.8c0.9,0.7,1.8,1.4,2.8,2.1
			c0.6-1.3,0.5-2.8-0.2-3.8c-1.9-2.7-4.6-4.2-7.9-5C392.6,194.4,392.6,194.7,392.7,194.9z"/>
		<path fill="#00D88D" d="M378.6,182.9c0-1-0.3-1.9-1.1-2.6c-2-1.7-4.4-1.9-6.8-1.7c-0.5,0-0.9,0.2-1.5,0.3c0.4,1.1,1.2,1.6,2,2.1
			c2,1.3,4.2,2,6.5,2.6C378.2,183.7,378.6,183.5,378.6,182.9z"/>
		<path fill="#00D88D" d="M361,117.8c-0.9,0.3-0.7,0.8-0.6,1.4c0.4,1.4,1.4,2.3,2.7,3c1.2,0.7,1.8,0.3,1.9-1.1
			c0.1-1.4,0.1-1.4,1.5-1.1c0.1,0,0.2,0,0.2,0c0.1-0.9,0.2-1.7,0.3-2.7c-1.6-0.3-3.3-0.7-5-1C361.9,116.8,361.6,117.6,361,117.8z"/>
		<path fill="#00D88D" d="M386.2,183.4c0,0.4,0,0.8,0,1.1c0.1,1.1,0.6,2,1.5,2.6c1.4,1,2.9,1.9,4.4,2.9c0.6,0.4,1.2,0.7,1.9,1
			C394.1,188.2,390.1,184.9,386.2,183.4z"/>
		<path fill="#00D88D" d="M401.2,183.8c-1.6-2-4-3-6.3-3.9c-0.3,2.2,3.9,5.8,6.8,7.1C402.1,185.7,402,184.8,401.2,183.8z"/>
		<path fill="#00D88D" d="M402.7,206.9c-0.5,0.7-0.5,1.4-0.2,2.1c0.6,1.4,1.4,2.7,0.1,4.1c1.6,0.2,2,0.5,3,2
			c0.3-0.3,0.6-0.7,0.9-1.1C406.4,211.5,404.6,207.5,402.7,206.9z"/>
		<path fill="#00D88D" d="M385.2,186.5c-1.1-1.7-2.9-2.2-4.6-3c-0.2,3.1,1.7,5.5,4.7,6C385.8,188.5,385.8,187.5,385.2,186.5z"/>
		<path fill="#00D88D" d="M413.4,133.6c0.3-0.7,0.5-1.4,0.7-2.1c-0.3-0.2-0.7-0.4-1-0.5c-0.9-0.4-1.8-0.7-2.9-1.2
			c0.1,0.4,0,0.8,0.2,1.1C411.1,132.2,412.1,133,413.4,133.6z"/>
	</g>
	<g>
		<path fill="#00D88D" d="M328.9,268.8c-0.8,1.2-1.5,2.4-2.2,3.7c0.1,0.1,0.1,0.2,0.2,0.2c0.3-0.2,0.7-0.2,1-0.5
			c1.8-2,3.5-3.9,5.2-5.9c2-2.4,3.8-5,6.1-7.1c-0.6-0.1-1.2-0.2-1.8-0.3c-1.5,1.5-2.9,3.1-4.3,4.7
			C331.5,265.2,330.1,267,328.9,268.8z"/>
		<path fill="#00D88D" d="M324.4,82.2c-0.1,0.2-0.2,0.5-0.3,0.7c0.4-0.3,0.9-0.6,1.3-0.8c-0.1-0.2-0.3-0.4-0.5-0.6
			C324.7,81.7,324.5,81.9,324.4,82.2z"/>
		<path fill="#00D88D" d="M467.9,234.4c-0.2-0.8-0.3-1.5-0.5-2.2c-0.7-2.3-1.6-4.6-2.3-6.9c0.1,1.1,0.1,2.2,0.2,3.3
			C465.7,230.9,465.4,233.2,467.9,234.4z"/>
		<path fill="#00D88D" d="M423.2,70.6c-1.4-0.2-2.6,0-3.8,0.4c4.9,1.1,9.6,2.5,14.1,4.3c-1-0.6-2.1-1.3-3.1-1.9
			C428.2,72,425.8,70.9,423.2,70.6z"/>
		<path fill="#00D88D" d="M441.9,262.9c0.1,0.1,0.2,0.1,0.3,0.2c0.4-0.4,0.8-0.7,1.1-1.2c0.8-1.1,1.5-2.2,2.2-3.3
			c0.1-0.2,0.1-0.5,0.1-0.8c-0.1-0.7-0.2-0.9-0.3-1.9h-2.9c-0.1,2-0.3,3.5-0.5,5.2C442,261.8,441.9,262.3,441.9,262.9z"/>
		<path fill="#00D88D" d="M333,266.2c-1.7,2-3.5,4-5.2,5.9c-0.2,0.3-0.6,0.3-1,0.5c-0.1-0.1-0.1-0.2-0.2-0.2
			c0.7-1.2,1.4-2.5,2.2-3.7c1.3-1.8,2.6-3.6,4.1-5.3c1.4-1.6,2.9-3.1,4.3-4.7c-1.7-0.3-3.3-0.7-4.9-1.1c-1.7,1.9-3.5,3.9-5.3,5.7
			c-1.6,1.6-3.3,3-5,4.5c-0.3,0.3-0.7,0.6-1.3,1c0.7-0.1,1.1-0.1,1.5-0.2c0,0.1,0.1,0.1,0.1,0.2c-0.6,0.6-1.2,1.2-1.8,1.9
			c-1.3,1.5-2.4,3.1-3.7,4.6c-1.8,2.1-3.7,4.3-6.3,5.3c-1.2,0.5-1.9,1.1-2.3,2.4c-1.2,3.8-4,6.2-7.4,8c-1.1,0.6-2.1,1.8-3.2,1.8
			c1.8,0,3.6,0,5.3,0c0.3-1,0.7-2,1-3c0.4,0.4,0.8,0.8,1.2,1.1c0.3,0.2,0.6,0.3,0.9-0.1c0.9-1.3,1.8-2.7,2.9-4
			c1.2-1.5,2.5-2.9,4-4.1c3.8-3,7.7-5.8,11.7-8.8c-0.1,0.3-0.1,0.4-0.1,0.5c-0.9,2.1-2.3,3.8-3.9,5.3c-2.3,2.2-4.6,4.3-6.9,6.4
			c-0.6,0.6-1.1,1.3-1.6,2c0.3,0.2,0.5,0.2,0.6,0.1c2.9-1.6,5.7-3.2,8.2-5.2c1.6-1.3,3.2-2.6,4.7-4c1.5-1.4,2.9-3,4.2-4.5
			c1.8-2.1,3.6-4.3,5.3-6.5c1.8-2.5,3.6-5,5.3-7.6c0.2-0.3,0.4-0.7,0.7-1c-0.7-0.1-1.4-0.2-2.1-0.3C336.7,261.3,335,263.8,333,266.2
			z"/>
		<path fill="#00D88D" d="M301.3,241.2c-2.9,2.1-5.9,4.1-8.9,6.2c-2,1.4-3.9,2.7-6,4c-0.5,0.3-0.8,0.7-0.9,1.3
			c-0.1,0.9-0.3,1.8-0.3,2.6c0.1,1.3,0.6,2.4,1.9,3c0.1-0.7,0.1-1.3,0.3-1.8c0.2-1,0.9-1.1,1.7-0.5c0.3,0.3,0.6,0.5,0.9,0.8
			c1.5-2.8,1.8-3,4.3-4.9c1.7-1.3,3.5-2.5,5.2-3.8c1.6-1.2,3-2.7,3.3-4.9c0-0.2,0.5-0.5,0.8-0.6c0.5-0.2,1.1-0.4,1.6-0.5
			c-0.7-0.8-1.3-1.5-1.9-2.3C302.6,240.2,301.9,240.7,301.3,241.2z"/>
		<path fill="#00D88D" d="M309.6,246.3c-1.8,1.4-3.6,2.8-5.5,4.1c-2.4,1.6-4.9,3-7.4,4.5c-0.8,0.4-1.6,0.8-1.8,1.8
			c-0.1,0.5-0.2,1.1-0.3,1.6c-0.1,2.7-1.2,4-3.9,4.4c-2.2,0.3-3,1.1-3.1,3.5c1.2-0.4,2.3-0.6,3.4-1.1c3.3-1.3,6.3-3,9-5.2
			c3.3-2.8,6.5-5.6,9.7-8.5c1-0.9,1.9-1.8,2.8-2.7c-0.5-0.4-1.1-0.8-1.6-1.2C310.4,247.1,310,246.7,309.6,246.3z"/>
		<path fill="#00D88D" d="M320.5,260.6c-1.9,1.9-3.9,3.6-5.8,5.5c-2.3,2.3-4.7,4.4-7.4,6.1c-2.5,1.6-5.1,3.1-7.7,4.5
			c-2.6,1.4-5.3,2.8-7.9,4.1c-4.8,2.4-9.6,4.7-14,7.7c-1.2,0.8-2.4,1.7-3.5,2.6c0.3,0.7,0.6,1.8,0.8,1.8c1.7,0,3.3,0,5,0
			c1.8-1,3.7-1.6,5.4-2.7c3.7-2.4,7.3-4.9,10.9-7.3c2.9-1.9,6-3.4,9.5-4.1c1.5-0.3,1.5-0.3,1.8-1.9c0-0.2,0.1-0.3,0.1-0.5
			c0.8-2.2,2-3.2,4.1-2.3c0.3,0.1,0.6,0.4,0.6,0.6c0,0.2-0.3,0.5-0.5,0.7c-0.7,0.7-1.6,1.4-1.6,2.6c1.8,0.3,2.8-0.5,2.9-2.3
			c0.1-0.9,0.1-2,0.6-2.7c0.8-1.3,1.8-2.6,3-3.6c3.3-3.3,6.7-6.5,10.2-9.7c1-0.9,2-1.8,3-2.7c-1.8-0.5-3.6-1.1-5.3-1.8
			C323.7,257.3,322.1,259,320.5,260.6z"/>
		<path fill="#00D88D" d="M361.4,260.3c-0.3,0.7-0.6,1.3-1,2c-1.5,2.6-3.3,5-5,7.4c-1.9,2.6-3.8,5.1-5.7,7.7c-1.7,2.4-3.5,4.8-5,7.3
			c-1,1.6-1.7,3.3-2.5,4.9c-0.4,0.8-0.6,1.5-1,2.4c0.8,0.1,1.4,0,1.9,0.1c0.4,0.1,0.9,0.8,0.3,0.8c0.5,0,1,0,1.5,0
			c0.2,0,0.5-0.4,0.7-0.7c0.6-1.1,1.3-2.2,1.9-3.3c1.6-2.8,3.2-5.6,4.7-8.5c0.9-1.8,1.7-3.7,2.4-5.6c0.3-0.7,0.6-1.2,1.3-1.7
			c2-1.5,3.8-3.2,5.2-5.2c1.8-2.5,3.2-5.2,4.2-8C363.9,260.1,362.7,260.2,361.4,260.3L361.4,260.3z"/>
		<path fill="#00D88D" d="M368.3,262.7c0.1,0.9-0.2,1.8-1.1,2.2c-0.6,0.3-1.2,0.5-1.8,0.6c-0.6,0.2-1.2,0.4-1.5,1
			c-0.3,0.5-0.7,1-1,1.5c-1,1.5-2,3-3,4.6c-1.7,2.8-3.4,5.6-5.2,8.4c-1.3,2.2-2.7,4.3-4,6.4c-1.1,1.9-2.2,3.5-3.3,5.5
			c1.6,0,3.1,0,4.7,0c0.5-1,1-2,1.6-3c2.1-3.9,4.2-7.8,6.2-11.8c1.6-3.1,3.2-6.2,4.8-9.2c0.1-0.2,0.2-0.3,0.4-0.5
			c0.1,0.3,0.3,0.4,0.2,0.6c0,0.7-0.1,1.5-0.2,2.2c-0.1,0.7,0.2,1.2,0.9,1.6c0.7,0.4,1-0.2,1.3-0.6c0.4-0.5,0.9-1.1,1.3-1.7
			c1.5-2.1,2.3-4.6,2.8-7.1c0.3-1.4,0.5-2.8,0.7-4.3c-1.4,0.2-2.8,0.4-4.1,0.6C368.2,260.7,368.2,261.7,368.3,262.7z"/>
		<path fill="#00D88D" d="M418.6,254.1c-0.1-0.6-0.2-1.2-0.3-1.8c-1,1.6-1.4,3.3-1.6,5c-0.4,3-0.2,6,0.3,9c0.5,2.9,0.9,5.8,1.3,8.7
			c0.4,3.7,0.5,7.4-0.4,11c-0.1,0.3-0.3,0.6-0.4,0.8c-0.3-0.2-0.7-0.3-0.8-0.5c-0.3-0.6-0.5-1.2-0.5-1.9c-0.1-1.9,0-3.8,0-5.7
			c0-1.3-1.1-3.1-2.4-3.1c0.1,0.7,0.2,1.4,0.2,2c0.1,3.5-0.4,7-1.1,10.5c-0.3,1.7-0.8,3.8-1.2,4.8c1.2,0,2.3,0,3.5,0
			c0.3-1,0.6-1.7,0.9-2.6c0.2-0.5,0.7-0.9,1-1.3c0.3,0.4,0.6,0.9,0.9,1.3c0,0,0.1-0.1,0.1-0.2c2.1-3.9,3-8,3.2-12.4
			c0.2-4.1-0.3-8.1-0.9-12.1C419.8,261.9,419.2,258,418.6,254.1z"/>
		<path fill="#00D88D" d="M340,284.9c-1.1-0.5-2.2-1-3.2-1.5c-2.3,1.8-4.6,3.4-6.8,5.2c-1.8,1.4-3.4,3.5-5.2,4.5c1.3,0,2.7,0,4,0
			c1-1,2-2.2,3.6-2.6c0.2-0.1,0.5-0.1,0.9-0.1c-0.5,1-0.9,1.7-1.3,2.7c1.7,0,3.5,0,5.2,0c1.3-2,2.5-4.4,3.3-6.9
			C340.7,285.5,340.6,285.1,340,284.9z"/>
		<path fill="#00D88D" d="M426.1,268.8c-0.3-1-0.8-2-1.3-2.8c-0.4-0.6-1.1-1-1.8-1.5c-0.1,1.9-0.3,3.5-0.4,5.1
			c0,0.7-0.1,1.5,0.1,2.2c0.2,0.7,0.6,1.7,1.2,2c1,0.4,0.7,0.8,0.5,1.5c-0.7,2.6-1.5,5.1-2,7.7c-0.7,3.6-0.7,7,1.9,10
			c0.3,0,0.6,0,0.8,0c0.2-1,0.7-3.1,0.6-4.6c-0.1-3.6-0.3-7.1-0.5-10.6c-0.1-2.5-0.3-4.9,0.5-7.3C426,269.9,426.3,269.3,426.1,268.8
			z"/>
		<path fill="#00D88D" d="M377,279.6c-0.5,0.7-1.1,1.1-1.9,0.4c0,0.2-0.1,0.4-0.1,0.5c0,1.7-0.7,3.1-1.6,4.4
			c-0.8,1.1-1.8,2.2-2.5,3.4c-1.2,1.9-1.4,2.8,0.3,4.8c0.5,0,1,0,1.5,0c0.1,0,0.1-0.3,0.2-0.4c1.1-1.5,2.2-3,3.4-4.5
			c1.2-1.7,2.4-3.4,2.8-5.5c0.2-0.9,0.1-1.9-0.1-2.8C378.6,279,377.5,278.9,377,279.6z"/>
		<path fill="#00D88D" d="M431.4,278.8c0-0.6-0.4-0.8-0.9-0.8c-0.7,0-1.1,0.4-1.2,1c-0.4,2.3-0.8,4.6-1.2,6.9
			c-0.4,2.4-0.7,5.1-1,7.1c1.3,0,2.7,0,4,0c0,0,0-0.1,0-0.1C432.3,288.2,431.8,283.5,431.4,278.8z"/>
		<path fill="#00D88D" d="M431.2,293L431.2,293L431.2,293z"/>
		<path fill="#00D88D" d="M437.3,277.3c-0.6-0.3-1.3-0.6-2-0.9c-0.1,0.4-0.2,0.7-0.2,1.1c-0.4,3.4-0.8,6.8-1.2,10.2
			c-0.2,1.8-0.3,3.3-0.5,5.3c1.1,0,2.2,0,3.3,0c0,0,0-0.4,0-0.6c0-4.9-0.4-9.7,0.7-14.5C437.5,277.7,437.4,277.4,437.3,277.3z"/>
		<path fill="#00D88D" d="M441.8,275.1c0-0.1-0.2-0.4-0.3-0.4c-1-0.3-2,0.5-2,1.5c0.1,2.1,0.1,4.1,0.3,6.2c0.4,3.6,0.8,7.6,1.3,10.6
			c0.3,0,0.6,0,0.8,0c1.4-2,1.5-5,1.1-7.7C442.5,281.9,441.4,278.6,441.8,275.1z"/>
		<path fill="#00D88D" d="M363.4,282.8c-0.9-0.5-1.8-0.9-2.8-1.3c-1,2.3-2.1,4.5-3,6.7c-0.5,1.3-0.4,2.5,0.5,3.6
			c0.4,0.6,0.3,0.9-0.4,0.9c-0.6,0-1.2-0.2-1.8-0.1c-0.3,0-0.5,0.4-0.8,0.4c1.4,0,2.8,0,4.2,0c0.5-1,1-2.3,1.6-3.5
			c0.9-2,1.9-4,2.8-6C363.7,283.3,363.6,282.9,363.4,282.8z"/>
		<path fill="#00D88D" d="M407.8,283.3c-0.8,1.9-1.5,3.7-1.8,5.7c-0.2,1.3-0.4,3-0.7,4c1.6,0,3.2,0,4.8,0c0.1,0,0.3-0.4,0.3-0.7
			c0.3-2.5,0.4-5-0.9-7.4C409.3,284.2,408.8,283.6,407.8,283.3z"/>
		<path fill="#00D88D" d="M293.7,288.5c-2.3,0.8-4.4,1.9-6.4,3.3c-0.6,0.4-1.2,1.2-1.8,1.2c2.8,0,5.7,0,8.5,0c1.8-1,3.7-2.9,4.9-5
			C297,287.5,295.3,287.9,293.7,288.5z"/>
		<path fill="#00D88D" d="M447.2,289c-0.4-0.1-1-0.1-1.4,0.1c-0.4,0.2-0.8,0.7-0.8,1.2c-0.1,0.9,0,1.7,0,2.7c0.6,0,1.1,0,1.7,0
			c0.3-1,0.6-1.9,0.9-2.9C447.5,289.7,447.4,289.1,447.2,289z"/>
		<path fill="#00D88D" d="M400.7,289.9c-0.5,1-1,2.1-1.4,3.1c0.9,0,1.9,0,2.8,0c0.4,0,0.8-1.5,1.3-2.4c-0.8-0.4-1.4-0.7-2.1-1
			C401.2,289.6,400.8,289.7,400.7,289.9z"/>
		<path fill="#00D88D" d="M389.3,293c0.9,0,1.8,0,2.7,0c0.2-1,0.4-2.5,0.6-3.9c-0.6,0.2-1.1,0.3-1.4,0.5
			C390,290.4,389.7,292,389.3,293z"/>
		<path fill="#00D88D" d="M377.9,290c-0.3,0-0.6,0.2-0.9,0.4c-0.5,0.3-1.1,0.7-1.6,1.1c-0.2,0.1-0.4,0.2-0.5,0.4
			c-0.2,0.4-0.3,1.2-0.5,1.2c1,0,2,0,3,0c0.3-1,0.6-1.6,1-2.4C378.7,290,378.4,289.9,377.9,290z"/>
		<path fill="#00D88D" d="M332.4,290.4c-1.6,0.4-2.6,1.6-3.6,2.6c1.1,0,2.1,0,3.2,0c0.4-1,0.8-1.7,1.3-2.7
			C332.9,290.4,332.7,290.4,332.4,290.4z"/>
		<path fill="#00D88D" d="M316.7,290.9c-0.5,0.7-1.1,2.1-1.6,2.1c1.6,0,3.1,0,4.7,0c-0.2,0-2.2-2.1-2.9-2
			C316.8,291,316.8,290.9,316.7,290.9z"/>
		<path fill="#00D88D" d="M386.7,289.4c-0.3,1.3-0.5,2.6-0.7,3.6c0.6,0,1.2,0,1.8,0c0.1,0,0.2-1.5,0.1-2.2
			C387.9,290.1,387.5,289.6,386.7,289.4z"/>
		<path fill="#00D88D" d="M363.1,293c0.9,0,1.9,0,2.8,0c0.2,0,0.5-1.2,0.7-1.8c-0.1-0.1-0.1-0.1-0.2-0.2
			C365.1,291.4,363.9,292,363.1,293z"/>
		<path fill="#00D88D" d="M396.1,291.9c-0.6-0.1-1.4,1.1-1.8,1.1c0.9,0,1.8,0,2.7,0C397,293,396.7,292,396.1,291.9z"/>
		<path fill="#00D88D" d="M311,293c0.1,0,0.2-0.6,0.4-1c-1.3,0-2.3,1-3.2,1C309.1,293,310,293,311,293z"/>
		<path fill="#00D88D" d="M382.5,292.1c-0.8,0-1.6,0.9-2.1,0.9c0.9,0,1.8,0,2.7,0C383.4,293,383.1,292.1,382.5,292.1z"/>
		<path fill="#00D88D" d="M297.5,230.4c-0.5,0.3-1,0.5-1.5,0.8c-2.4,1.2-4.8,2.5-6.7,4.6c-0.6,0.7-1.2,1.6-1.8,2.3
			c0.1,0.1,0.1,0.2,0.2,0.3c0.5-0.1,1,0,1.5-0.2c1.5-0.6,3-1.1,4.5-1.8c1.4-0.7,2.7-1.6,4.1-2.4c0.3-0.1,0.6-0.1,0.9-0.1
			c-0.8,1-1.7,1.8-2.6,2.6c-2.2,1.9-4.3,3.8-6.5,5.6c-1.7,1.3-3.5,2.5-5.4,3.7c-0.2,0.2-0.7,0-1,0c0-0.3,0-0.7,0.1-0.9
			c0.2-0.5,0.5-1,0.8-1.6c0.4-0.9,0.1-1.3-0.8-1.4c-1.3-0.1-2.1,0.7-2.8,1.5c-1.1,1.2-1.7,2.7-2.4,4.2c-0.5,1.1-0.9,1.2-1.8,0.3
			c-0.4-0.4-0.7-0.8-1.2-1.1c-0.7-0.5-1.5-0.1-1.4,0.6c0.1,1.9,0.8,3.7,2,5.4c0.3-0.7,0.5-1.2,0.9-1.7c0.2-0.3,0.5-0.6,0.8-0.6
			c3.7-0.1,7-1.6,10.2-3.4c3.2-1.9,6.2-4.1,9.7-5.6c0.3-0.1,0.5-0.4,0.7-0.7c0.8-1.5,1.6-3,2.5-4.5c0.1-0.1,0.2-0.3,0.3-0.4
			C299.5,234.1,298.5,232.3,297.5,230.4C297.6,230.4,297.6,230.4,297.5,230.4z"/>
		<path fill="#00D88D" d="M343.9,264.3c-0.1,0.3-0.3,0.6-0.4,0.8c-0.1,0-0.2-0.1-0.3-0.1c0-0.3,0-0.7,0-1c0-0.5,0.1-1.1-0.6-1.3
			c-0.7-0.3-0.9,0.4-1.2,0.8c-2.2,3.7-5,7-7.8,10.4c-1.7,2.1-3.4,4.2-5,6.3c-2.1,2.7-3.7,5.7-5.3,8.6c-0.1,0.1,0,0.3,0,0.5
			c0.7-0.5,1.4-0.9,2-1.4c2.5-2,5-4,7.3-6.2c2.7-2.6,5.3-5.2,7.7-8c2.5-2.8,4.8-5.8,7.1-8.8c1.1-1.4,2.1-2.9,3-4.4
			c-1.9-0.1-3.8-0.2-5.6-0.4C344.5,261.4,344.2,262.9,343.9,264.3z"/>
		<path fill="#00D88D" d="M371.1,37.4c0.6,0.1,1.3,0,1.9,0.2c2.9,0.7,5.8,1.4,8.7,2c1.1,0.2,2.2,0.2,3.3,0c1.5-0.2,2.4-1.1,3.1-2.4
			c0.1-0.2,0.4-0.5,0.5-0.4c0.2,0.1,0.5,0.3,0.5,0.5c0.1,0.5,0,1-0.1,1.5c-0.1,0.5-0.4,1-0.6,1.5c1.2,0.4,2.3,0.8,3.5,1.1
			c3.8,0.8,7.5,1.6,11.3,2.5c0.6,0.1,0.8,0,1-0.5c0.2-0.5,0.4-1,0.7-1.4c0.3-0.7,0.6-0.6,1,0c0.2,0.3,0.4,0.6,0.7,0.7
			c0.9,0.2,1.8,0.5,2.7,0.4c1.2-0.1,2.5-0.5,3.7-0.7c2.3-0.4,4.6-0.6,6.3,1.4c0.2-0.1,0.3-0.2,0.4-0.3c0.1-0.1,0.1-0.1,0.2-0.2
			c1.4-1.8,3.2-2.2,5.2-1.6c2.1,0.6,4.2,1.4,6.2,2.2c1.8,0.7,3.6,1.1,5.5,0.9c1-0.1,1.8-0.5,2.5-1.2c0.4-0.3,0.6-0.3,0.8,0.1
			c0.2,0.4,0.4,0.8,0.7,1.1c1.6,1.7,3.2,3.4,5,4.9c1.8,1.6,3.8,3,5.8,4.4c1.9,1.3,3.9,2.4,5.9,3.6c1.4,0.8,2.8,1.6,4.2,2.4
			c5.7,3.1,11.3,6.2,16.6,10.1c3.9,2.9,7.3,6.2,9.8,10.4c0.2,0.3,0.6,0.5,0.9,0.7c0.7,0.3,1.6,0.3,2.2,0.8c1.3,1.1,2.6,2.3,3.8,3.6
			c1.3,1.4,2.4,3,4.2,3.8c1.1,0.5,3.2,0,3.9-1c-1.4-1.1-2.9-2.1-4.2-3.2c-1.4-1.2-2.8-2.5-3-4.5c0-0.3-0.4-0.6-0.7-0.8
			c-1.3-0.8-2.7-1.4-4-2.2c-3.4-2.2-6-5.3-8.9-8c-2.1-2-4.2-4-6.8-5.2c-3.1-1.5-6.3-2.8-9.4-4.3c-2.5-1.2-4.4-3.1-5.2-5.9
			c-0.2-0.6-0.5-1-1-1.4c-1.9-1.2-3.8-2.6-5.8-3.8c-2.8-1.7-5.6-3.4-8.5-4.9c-2.2-1.1-4.5-2.1-6.9-3c-2.3-0.9-4.6-1.7-7-2.4
			c-2.8-0.8-5.6-1.3-8.4-2c-0.3-0.1-0.8-0.1-1.1,0.1c-1.4,0.7-2.9,1-4.4,1.2c-1,0.1-1.9,0.6-2.9,0.9c-0.4,0.1-0.9,0.3-1.3,0.2
			c-1.5-0.4-3-1.1-4.6-1.5c-3.1-0.8-6.3-1.6-9.5-2.4c-3.2-0.8-6.4-1-9.7-0.8c-1.4,0.1-2.8,0.3-4.1,0.6c-1.4,0.4-2,0.3-2.8-0.9
			c-0.3-0.4-0.4-0.9-0.7-1.2c-0.4-0.5-0.9-0.9-1.5-1.5c-0.6,1.2-1.1,2.1-1.5,2.9c-0.8-0.3-1.6-0.5-2.3-0.8c-0.9-0.4-2.2-0.3-2.2-1.8
			c-0.2,0-0.3-0.1-0.5-0.1c-2.4,0.2-4.3,2.8-4.1,5C370.5,37.1,370.9,37.4,371.1,37.4z"/>
		<path fill="#00D88D" d="M468.2,109.8c0.4,0.2,0.8,0.6,0.9,1c0.6,1.4,1.2,2.7,2.3,3.7c1.9,1.9,3.8,3.7,5.8,5.5
			c2,1.9,4.1,3.7,6.4,5.6c0.2-0.5,0.5-1.1,0.6-1.6c0.4-2.2-1.7-4.2-4-4.2c-0.3,0-0.6-0.2-0.9-0.3c0.2-0.3,0.2-0.6,0.5-0.8
			c0.9-0.8,1.1-1.9,0.3-2.5c-0.7-0.6-1.4-1.2-2.1-1.8c-2.5-2.2-5.1-4.3-7.6-6.5c-2.1-1.8-4.2-3.7-6.3-5.4c-0.8-0.7-1.7-1.4-2.5-2
			c0.8,1.9,1.4,4,1.9,6.1C464.9,107.9,466.5,109,468.2,109.8z"/>
		<path fill="#00D88D" d="M385,67.9c-2.3-0.5-4.5-1.1-6.7-1.8c-3.3-1-6.5-2.3-9.7-3.3c-3-0.9-6.1-1.7-9.1-2.5
			c-1.8-0.5-2.4,0-2.6,1.8c-0.1,1-0.2,1.9-0.3,3c2.9-0.3,6.2,0.5,8.7-2.3c0,0.7,0,1.2-0.2,1.7c-0.2,0.5-0.5,1-0.8,1.6
			c1,0.3,1.8,0.6,2.7,0.8c1.5,0.5,3,1,4.5,1.5c4.3-0.4,8.6-0.6,13-0.6C384.7,67.8,384.8,67.9,385,67.9z"/>
		<path fill="#00D88D" d="M395.3,66.9c-0.7-0.4-1.3-0.8-2-1.2c-0.3,0.7-0.6,1.2-0.8,1.7c-0.1,0.2-0.2,0.4-0.2,0.5
			c1.9,0.1,3.8,0.2,5.8,0.3C397.1,67.9,396.2,67.4,395.3,66.9z"/>
		<path fill="#00D88D" d="M378.5,268c-0.6,2.8-1.7,5.4-2.6,8.2c1.5-0.9,2.6-2.1,3.6-3.5c2.6-3.6,4.1-7.7,5.1-12
			c0.3-1.4,0.4-2.8,0.6-4.3c-1.5,0.4-3.1,0.8-4.6,1.2C379.9,261.1,379.2,264.5,378.5,268z"/>
		<path fill="#00D88D" d="M288.1,193.9c-3.1,1.6-6,3.3-9,5.1c-4.9,2.9-9.5,6.3-14,9.9c-1.7,1.4-3.3,2.8-5,4.2
			c-0.4,0.4-0.8,0.8-1.2,1.2c0.1,0.1,0.1,0.1,0.2,0.2c1.5-0.7,3-1.4,4.5-2.1c4-2.1,7.9-4.2,11.8-6.3c3.3-1.7,6.6-3.5,9.8-5.2
			c2.7-1.4,5.3-2.8,8-4.2c0.2-1.9,0.6-3.8,1-5.6C292.2,191.9,290.1,192.9,288.1,193.9z"/>
		<path fill="#00D88D" d="M316.8,88.5c-1.4,0.3-2.7,0.8-4,1.4c-1.5,0.7-2.9,1.6-4.4,2.4c1.4,0.2,2.8,0.3,4.2,0.4
			C313.9,91.3,315.3,89.9,316.8,88.5z"/>
		<path fill="#00D88D" d="M423.2,70.6c2.6,0.4,4.9,1.4,7.1,2.8c1,0.6,2.1,1.3,3.1,1.9c1.6,0.7,3.3,1.4,4.8,2.1c3,1.4,5.7,3.1,8.3,5
			c0.4,0.1,0.8,0.1,1.2,0.2c0-1.7-0.9-3-1.8-4c-3.4-3.4-7.5-5.7-12-7.1c-0.7-0.2-1.5-0.3-2.1-0.7c-1.4-0.9-2.7-2-4.1-2.9
			c-1.4-0.9-2.8-1.7-4.3-2.4c-3.4-1.5-6.8-2.9-10.2-4.2c-1.4-0.6-2.8-1-4-1.4c-0.8,0.8-1.3,1.4-2,2c-0.5,0.4-0.9,0.3-0.9-0.4
			c-0.1-0.7-0.2-1.3-0.2-2.1c-1.6,0-3.1,0.1-4.6,0c-2-0.2-4-0.7-6-1.2c-2.7-0.7-5.3-1.5-7.9-2.2c-1.9-0.5-3.7-1.1-5.4-1.6
			c-0.8,0.8-1.4,1.5-2.1,2.2c-0.4,0.4-0.7,0.4-1.2,0.1c-1.9-1.2-3.9-2.4-5.9-3.6c-2.5-1.5-5.1-2.3-8-1.9c-0.7,0.1-1.1-0.1-1.4-0.7
			c-0.6-1.4-1.8-2-3.1-2.3c-2.4-0.6-4.9-1.2-7.4-1.8c0,0-0.1,0-0.1,0.1c-0.3,1.3-1.3,1.9-2.4,2.5c-0.7,0.4-1.4,0.9-1.5,1.9
			c1.3,0.6,2.5,1.3,4,1.3c2.1,0,4.1,0,6.2,0.1c0.3,0,0.5,0.2,0.8,0.3c-0.1,0.3-0.2,0.5-0.4,0.8c-0.3,0.4-0.6,0.7-0.9,1.1
			c0,0.1,0.1,0.2,0.1,0.3c0.8,0.1,1.5,0.1,2.2,0.3c3.1,0.9,6.2,1.9,9.3,2.9c2.3,0.8,4.7,0.9,7.2,0.5c0.3-0.1,0.8,0.1,1,0.3
			c0.6,0.6,1.1,1.3,1.6,2c0.9,1.2,1.7,2.4,3.1,3c0.5,0.2,1,0.3,1.5,0.5c0.1-0.5,0.2-1.1,0.2-1.6c-0.1-0.6,0.2-0.8,0.7-0.7
			c1.6,0.2,3.1,0.3,4.7,0.5c2.9,0.4,5.8,0.8,8.7,1.2c3.5,0.5,6.8,1.6,9.6,3.7c0.2,0.1,0.7,0.1,0.8,0c0.8-0.8,1.6-1.7,2.3-2.5
			c0.4,0.3,1,0.8,1.6,1c0.8,0.3,1.7,0.4,2.5,0.5c1.3,0.2,1.7,1,1.1,2.2c-0.3,0.7-0.6,1.3-0.8,2c1.1,0.2,2.2,0.4,3.3,0.6
			C420.6,70.5,421.9,70.4,423.2,70.6z"/>
		<path fill="#00D88D" d="M312.9,250.8c-1.1,1.4-2,3-3,4.4c-0.1,0.1,0,0.3,0,0.6c1.5-0.8,3-1.5,4.4-2.4c1-0.6,2-1.3,2.9-1.9
			c-1.1-0.6-2.1-1.3-3.2-2C313.6,250,313.2,250.4,312.9,250.8z"/>
		<path fill="#00D88D" d="M315.5,255.1c-2.9,1.6-5.8,3.1-8.6,4.8c-3.6,2.2-7.3,4.5-10.7,7c-2.8,2-5.4,4.4-8,6.7c-1.1,1-2.1,2-3.2,3
			c-0.5,0.5-0.8,0.3-1.2-0.1c-0.1-0.1-0.2-0.3-0.4-0.5c-2.6,2.7-5.9,3.9-9.3,4.9c-3,0.9-6,1.8-8.5,3.7c-0.9,0.7-1.8,1.5-2.7,2.2
			c0.1,0,0.2,0.1,0.3,0.1c0.2,0.5,0.3,1,0.5,1.5c0.2,0.4,0.3,0.9,0.6,1.2c0.4,0.6,0.9,0.4,1.3-0.4c0.2-0.4,0.6-0.7,0.8-1
			c0.2,0.3,0.5,0.6,0.6,0.9c0.6,1.3,1.7,1.4,2.6,0.3c0.5-0.7,1-1.4,1.4-2.2c0.3-0.7,0.5-1.4,0.8-2.1c0.5-1.1,1.4-1.9,2.7-1.9
			c0.8,0,1.1,0.6,0.8,1.4c-0.3,0.7-0.6,1.3-0.9,2.1c2.2-0.2,4.1-1,5.8-2c2.6-1.4,4.9-3.2,7-5.3c0.3-0.3,0.8-0.5,1.2-0.6
			c1.7-0.1,3.3-0.9,4.7-1.8c1.2-0.8,2.2-1.7,2.4-3.2c0.1-0.9,0.5-1.5,1.3-2c1.6-1.1,3.2-2.4,4.8-3.5c1.6-1.1,3.3-2.2,4.9-3.2
			c2.8-1.6,5.7-3.1,8.4-4.8c2-1.2,3.8-2.5,5.7-3.8c0.9-0.6,1.8-1.2,2.7-1.9c-1.4-0.6-2.8-1.2-4.1-1.9
			C318.1,253.6,316.8,254.4,315.5,255.1z"/>
		<path fill="#00D88D" d="M324.9,157.6c-0.3,0-0.7,0.1-1,0.3c-2.1,0.9-4.1,1.9-6.3,2.6c-4,1.1-8.1,2-12.1,3c-3.2,0.8-6.3,1.7-9.4,3
			c-2.1,0.9-4,2-5.8,3.5c-1.5,1.3-2.9,2.8-4.3,4.2c-0.1,0.1-0.2,0.4-0.3,0.6c1.1-0.2,2-0.6,2.9-0.9c2.8-1,5.6-1.9,8.4-2.8
			c3.1-1,6.2-2,9.3-2.9c0.6-0.2,1.3-0.4,1.9-0.5c1.3-1.2,2.7-2.3,4.1-3.3C316.2,161.5,320.4,159.3,324.9,157.6z"/>
		<path fill="#00D88D" d="M324.4,82.2c0.1-0.2,0.3-0.5,0.5-0.7c0.2,0.2,0.3,0.4,0.5,0.6c0.6-0.4,1.2-0.8,1.8-1.1
			c2.1-1.3,4.4-2.4,6.6-3.5c-1.6,0.1-3.1,0.7-4.5,1.8c-0.5,0.4-1.2,0.2-1.3-0.4c-0.1-0.4,0.1-0.9,0.2-1.3c0.1-0.3,0.2-0.6,0.5-1.2
			c-1.1,0.2-2,0.3-2.8,0.6c-2.3,1.1-4.2,3-7.1,3.6c0.7,1,1.2,2,2,2.7c0.5,0.6,1,0.8,1.5,0.8c0.6-0.4,1.2-0.8,1.7-1.2
			C324.2,82.7,324.2,82.4,324.4,82.2z"/>
		<path fill="#00D88D" d="M303.9,105.4c-0.9,1-1.9,1.6-3.1,1.9c-1,0.3-2,0.6-2.9,1c-0.5,0.2-0.9,0.5-1.4,0.7c0,0.1,0,0.2,0.1,0.2
			c1,0.3,2,0.8,3,1c0.8,0.2,1.6,0.2,2.4,0.3c0.6-1.8,1.4-3.6,2.2-5.3C304,105.3,303.9,105.3,303.9,105.4z"/>
		<path fill="#00D88D" d="M296.1,183.5c-2.7,1.1-5.4,2.2-8.1,3.3c-3.6,1.5-7.2,3-10.7,4.6c-2.8,1.2-5.5,2.5-8.3,3.7
			c-1.5,0.7-3.1,1.4-4.6,2.2c-2,1-3.9,2.1-5.9,3.1c-0.6,0.4-1.3,0.8-1.9,1.2c0,0.1,0.1,0.2,0.1,0.3c2.5-0.5,5.1-1,7.6-1.6
			c2.5-0.6,4.9-1.4,7.3-2.2c3.1-1.1,6.2-2.2,9.2-3.5c3-1.2,6-2.6,8.9-4c1.8-0.9,3.7-1.9,5.5-2.8c0.5-1.6,1-3.2,1.7-4.6
			C296.6,183.3,296.3,183.4,296.1,183.5z"/>
		<path fill="#00D88D" d="M298.6,126.5c-0.6,0.3-1.3,0.7-1.9,1.1c-0.9,0.6-1.7,1.4-2.6,2c0,0.1,0.1,0.2,0.1,0.3
			c2.3-0.3,4.5-0.9,6.8-0.9h-2.6C298.5,128,298.6,127.3,298.6,126.5z"/>
		<path fill="#00D88D" d="M366.1,148.4c-1.2-0.9-2.3-1.9-3.9-1.9c-0.3,0-0.7-0.1-1-0.1c-3.4-0.4-6.8-0.8-10.2-1.1
			c-4.6-0.3-9.2-0.7-13.8-0.7c-5.2,0-10.4,0.2-15.6,0.5c-2.2,0.1-4.4,0.5-6.6,0.6c-2.5,0.1-3.3,1-4.3,3.1c-0.2,0.5-0.5,0.7-1,0.7
			c-1.7,0.2-3.4,0.3-5.1,0.5c-3.6,0.5-7.2,1.1-10.7,1.8c-2.9,0.6-5.7,1.4-8.6,2.2c-2.8,0.8-5.5,1.6-8.3,2.4
			c-2.4,0.8-4.7,1.7-7.1,2.4c-1,0.3-1.3,1-1.6,2c5.1,0.3,10.1,0.4,15-1.7c1.6-0.7,3.1-1.6,4.2-3c0.6-0.8,1.1-0.9,1.9-0.4
			c1.8,1,3.8,1,5.6,0.5c2.3-0.7,4.4-1.7,6.6-2.6c1.5-0.6,2.9-1.5,4.4-1.9c3.1-0.9,6.2-1.7,9.4-2.3c3.6-0.6,7.2-1.2,10.8-1.4
			c4.5-0.2,8.9-0.1,13.4,0c1.6,0,3.2,0.2,4.8,0.4c2.9,0.4,5.8,0.7,8.7,1.2c1,0.2,2,0.3,3,0.5c3.5-0.5,7-1,10.5-1.5
			C366.5,148.6,366.3,148.5,366.1,148.4z"/>
		<path fill="#00D88D" d="M290,226.1c-2.6,1.8-5,3.9-7.5,5.8c-1.6,1.2-3.3,2.4-5,3.6c-0.5,0.3-1,0.6-1.6,0.9
			c-0.6-0.9-0.1-2.4-1.7-2.5c-0.3,1.1-0.7,1.8-1.9,2.1c-1.2,0.3-1.9,1.1-2,2.5c-0.1,0.7-0.4,1.5-0.8,2.2c-1,1.6-2.4,2.9-3.9,3.9
			c-3.2,2.2-6.7,3.7-10.5,4.4c-0.5,0.1-0.7,0.3-0.8,0.9c-0.1,0.9-0.4,1.9-0.9,2.5c-0.8,1-1.8,1.9-2.8,2.8c-0.1,0.1-0.2,0.3-0.3,0.5
			c0.2,0.1,0.4,0.2,0.6,0.2c1.1,0.1,2.1-0.2,3.1-0.6c1.2-0.5,1.9-1.8,1.6-3.1c-0.1-0.2-0.1-0.4-0.2-0.9c0.5,0.2,0.8,0.2,1.1,0.4
			c1.3,0.9,2.6,1.3,4,0.3c0.8-0.6,1.7-0.9,2.5-1.4c2.1-1.2,4.3-2.3,6.4-3.5c2-1.2,4-2.4,6-3.7c2.8-1.7,5.6-3.5,8.3-5.3
			c0.7-0.5,1.5-1.1,2-1.8c1.3-2.1,2.9-4.1,4.7-5.8c1.7-1.6,3.5-3,5.4-4.1c-0.4-1.2-0.8-2.4-1.1-3.6
			C293.2,223.8,291.6,224.9,290,226.1z"/>
		<path fill="#00D88D" d="M333.2,151.5c-4.4-0.3-8.7-0.1-13,0.5c-3.8,0.5-7.5,1.4-11.1,2.5c-2.7,0.8-5.3,1.8-7.9,3
			c-3.4,1.5-6.7,3.3-10,5c-0.9,0.4-1.7,0.6-2.6,0.5c-1.2-0.2-2.4-0.2-3.6-0.1c-0.9,0.1-1.6,0.5-2,1.4c-0.2,0.4-0.5,0.9-0.7,1.3
			c-1.6-1-3.4-1.3-5.1-1c-1.9,0.4-3.9,0.8-5.5,1.9c-1.2,0.8-2.3,1.7-3.3,2.7c-0.8,0.8-0.5,1.2,0.5,1.5c0.1,0,0.2,0,0.2,0
			c1.4,0.3,2.7-0.1,4-0.6c1.6-0.5,3.1-1.1,4.7-1.7c0.8-0.3,1.4,0,1.9,0.8c0.2,0.3,0.7,0.7,1.1,0.7c0.7,0,1.4-0.2,2-0.5
			c1.3-0.8,2.7-1.6,3.9-2.6c1.6-1.3,3.3-2,5.3-2.3c0.9-0.2,1.8-0.2,2.6-0.5c2.2-0.8,4.4-1.8,6.6-2.6c1.8-0.7,3.7-1.3,5.6-1.8
			c2.2-0.6,4.5-1,6.7-1.4c1.8-0.3,3.6-0.7,5.5-0.9c3.6-0.5,7.2-1,10.6-2.2c1.9-0.7,3.9-0.9,5.8-0.7c2.1-0.5,4.2-1,6.4-1.5
			C338.9,152.1,336,151.7,333.2,151.5z"/>
		<path fill="#00D88D" d="M394.9,143.8c0-0.1,0-0.1,0-0.3c-2.1,0.4-4.1-0.1-5.9-1.1c-1.5-0.8-2.9-1.8-4.4-2.6
			c-1.8-1.1-3.7-2.2-5.6-3.2c-0.8-0.4-1.2,0-1.1,0.9c0,0.4,0,0.8,0,1.4c-2.6-1.3-5.1-2.4-7.7-3.7c0.7,1.9,1.9,3.1,3.3,4.1
			c3.3,2.5,7.2,3.2,11.1,4.3c2.2,0.6,4.5,1.1,6.6,1.9c1.2-0.2,2.4-0.5,3.5-0.7C394.7,144.5,394.8,144.2,394.9,143.8z"/>
		<path fill="#00D88D" d="M300.9,173.1c-1.5,0.6-3,1.3-4.4,2.1c-3,1.7-5.9,3.4-8.8,5.1c-0.6,0.3-1.2,0.7-1.9,0.7
			c-1.6,0-3.2,0.4-4.7,0.9c-3,1-6,2.4-9.2,1.7c-0.2,0.5-0.4,1-0.7,1.4c-0.9,1.2-2.1,1.9-3.5,2.5c-1.3,0.5-2.7,1-4,1.7
			c-1.4,0.7-1.4,1.7-0.2,2.6c-0.1-0.1-0.1-0.3-0.2-0.4c-0.3-0.8-0.2-1,1.1-1.8c0.7-0.4,0.8,0.1,1.1,0.5c0.5,0.6,1.1,1.1,2,1.1
			c2.8,0,4.8-1.3,6.2-3.7c0.3-0.5,0.6-0.7,1.2-0.7c2.5-0.3,5.1-0.4,7.6-1.1c2.1-0.6,4-1.7,6-2.8c1.8-1,3.2-2.4,5.3-2.9
			c1.9-0.5,3.8-1.1,5.6-1.7c1.4-2.3,3-4.5,4.6-6.5C303.1,172.2,302,172.6,300.9,173.1z"/>
		<path fill="#00D88D" d="M396.6,29.4c2.1,0.2,4.1-0.5,6.1-0.8c1.2-0.2,2.5-0.4,3.7-0.5c0.2,0,0.7,0.3,0.7,0.5
			c0.1,0.3-0.1,0.7-0.3,0.9c-0.2,0.3-0.7,0.5-0.8,0.8c-0.2,0.3-0.2,0.7-0.1,1c0.1,0.2,0.5,0.3,0.7,0.3c1,0.1,1.9,0.1,2.9,0.1
			c2.9,0.2,5.7,0.3,8.6,0.6c3.4,0.3,6.8,0.8,10.2,1.3c2.2,0.3,4.3,0.7,6.5,1.1c3,0.5,6,1,8.9,1.4c3.8,0.6,7.5,1.3,11.3,1.8
			c3.7,0.5,7.5,0.7,11.2,1c0.8,0.1,1.6,0,2.4,0c-0.3-0.4-0.6-0.6-0.9-0.8c-2.1-1.2-4.3-2.3-6.7-2.8c-2.8-0.6-5.5-1.1-8.3-1.5
			c-1.9-0.3-3.8-0.2-5.6-0.5c-3.1-0.4-6.3-0.4-9.4-1.2c-1.5-0.4-3.1-0.8-4.1-2c-0.9-1.1-2-1.3-3.4-1.4c-3.2-0.1-6.3-0.4-9.5-0.8
			c-4.2-0.5-8.3-1.2-12.5-1.5c-3.9-0.3-7.9-0.3-11.8-0.3c-1.4,0-2.8,0.3-4.4,0.5C393.4,28.3,394.8,29.2,396.6,29.4z"/>
		<path fill="#00D88D" d="M314.5,130c-2.8,0.4-5.6,0.4-8.5,0.7c-0.2,0-0.5,0-0.7,0.1c0.1,1.1,0.8,1.7,1.8,1.6
			c0.7-0.1,1.5-0.2,2.2-0.3c0.8,0,1.5,0.2,2.3,0.7c-0.4,0.2-0.6,0.4-0.8,0.5c-1.6,0.4-3.3,0.9-4.9,1c-3.7,0.2-7.5,0.2-11.2,0.4
			c-1.5,0.1-3.1,0.1-4.6,0.4c-2.5,0.5-4.9,1.2-7,2.6c-0.8,0.6-1.6,1.3-2.4,1.9c0,0.1,0.1,0.2,0.1,0.4c1.1,0.2,2.2,0.5,3.2,0.5
			c1.5,0,3,0,4.4-0.3c2.2-0.4,4.4-0.7,6.6-0.4c0.9,0.1,1.8,0.3,2.8,0.5c-0.1-0.4-0.1-0.8-0.2-1.1c-0.2-0.6,0-0.9,0.6-1
			c1.5-0.2,2.9-0.6,4.3-0.7c3.5-0.2,7-0.4,10.6-0.4c5.9-0.1,11.8,0.2,17.6-1.3c1.1-0.3,2.1-0.7,3.3-1c-2-1.1-3.9-1.4-5.8-1.5
			c-3.9-0.2-7.8,0.4-11.7,1.1c-1.1,0.2-2.2,0.3-3.3,0.5c0-0.1,0-0.1-0.1-0.2c0.2-0.2,0.4-0.4,0.6-0.5c1.2-0.8,2.4-1.5,3.8-1.7
			c1.5-0.3,3-0.8,4.6-0.9c3.7-0.2,7.3-0.2,11-0.4c1.6-0.1,3.1-0.5,4.9-0.9c-0.3-0.4-0.4-0.5-0.5-0.6c-0.3-0.1-0.7-0.1-1-0.3
			c-0.6-0.3-1.3-0.6-1.9-0.6h-13.8C318.7,129,316.6,129.7,314.5,130z"/>
		<path fill="#00D88D" d="M430,48.1c-1.8-1.2-3.7-2.4-6.1-1.5c-1.2,0.5-2.4,0.3-3.7-0.2c-1.2-0.5-2.4-1-3.6-1.5
			c-1.7-0.6-3-0.6-4,0.7c-0.9,1.1-0.8,1.4,0.6,1.8c0.1,0,0.3,0.1,0.4,0.1c3,1.1,6.1,2.1,9.1,3.3c3.6,1.4,7.3,2.6,10.8,4.2
			c3.6,1.6,7.1,3.4,10.5,5.3c2.3,1.3,4.4,2.8,6.4,4.3c1.7,1.3,3.3,2.7,4.9,4.1c0.8,0.7,1.9,0.7,2.6-0.1c0.2-0.2,0.3-0.4,0.4-0.6
			c0.1,0.1,0.2,0.1,0.3,0.2c0.3,3.1,1.8,5.6,4,7.7c1.9,1.8,4,3.3,6.1,4.9c1.1,0.8,2.3,1.4,3.6,2.2c-0.1-0.4-0.1-0.6-0.2-0.8
			c-0.7-1.5-1.3-3.2-2.3-4.6c-1.1-1.7-2.5-3.3-3.9-4.8c-3.2-3.5-6.9-6.5-10.6-9.4c-2-1.6-4-3.2-6.3-4.3c-2.7-1.3-5.4-2.6-8.1-3.9
			c-2.5-1.2-4.9-2.4-7.1-4.1C432.6,50.1,431.4,49,430,48.1z"/>
		<path fill="#00D88D" d="M408.1,248.9c0.4,0.1,0.8,0.6,0.8,1c0,1.9,0.6,3.6,1.2,5.4c0.2,0.8,0.4,1.6,0.6,2.5
			c2.3-1.6,2.7-3.8,2.2-6.3c-0.6-2.6-1.9-4.8-3.2-7c-1,0.8-2.1,1.6-3.2,2.3C406.7,248,407.2,248.5,408.1,248.9z"/>
		<path fill="#00D88D" d="M466.7,186.8c0.7,0.8,1.5,1.5,2.3,2.4c0.3-0.6,0.5-1,0.6-1.4c0.4-1.3,0-2.6-0.6-3.8
			c-1-1.7-2.1-3.3-3.1-4.9c-0.5-0.7-0.2-1.5-1.2-2.3v7.4C465.7,185.1,466,185.9,466.7,186.8z"/>
		<path fill="#00D88D" d="M376.6,48.1c3.5,0.7,6.8,1.7,9.4,4.2c0.2,0.2,0.5,0.3,0.8,0.3c1.5-0.2,3-0.4,4.5-0.6
			c1.6-0.3,3.2-0.6,4.7-0.8c0.7-0.1,1.1,0.1,1.2,0.7c-0.5,1.1-2.1,0.8-2,2.4c1.2-0.1,2.3-0.1,3.4-0.3c1.4-0.3,2.3-1.3,3.1-2.5
			c0.8-1.2,1.5-2.3,2.3-3.5c-0.4-0.2-0.6-0.4-0.8-0.4c-2.9-0.9-5.9-1.4-9-1.5c-3.2-0.2-6.5-0.2-9.7-0.5c-3.3-0.3-6.3-1.2-8.8-3.6
			c-0.2-0.2-0.5-0.2-0.7-0.2c-2,0-4.1,0.1-6.1,0c-1.7-0.1-3.4-0.3-5.1,0.3c-2.2,0.7-3.5,2.3-4.2,4.5c1.2,0.1,2.3,0.3,3.5,0.3
			C367.5,46.9,372.1,47.2,376.6,48.1z"/>
		<path fill="#00D88D" d="M372.6,264.6c-1.3,4.5-2.7,9-4.1,13.5c-0.9,3.2-1.8,6.4-2.6,9.5c-0.1,0.5-0.3,1-0.4,1.7
			c0.3-0.2,0.4-0.2,0.5-0.3c1.3-1.6,2.6-3.2,3.8-4.8c1.9-2.7,3.6-5.6,4.6-8.8c0.7-2.1,1-4.2-0.1-6.3c-0.1-0.3-0.1-0.8,0.1-1
			c1.8-1.8,3.2-3.9,4-6.4c0.4-1.2,0.8-2.5,0.9-3.8c-1.6,0.4-3.3,0.7-4.9,0.9C373.7,260.8,373.1,262.7,372.6,264.6z"/>
		<path fill="#00D88D" d="M296.3,119c-0.8,0.3-1.5,0.8-2.2,1.2c0.6,0.3,1.1,0.4,1.6,0.4c1.2-0.1,2.5-0.2,3.7-0.3
			c0.2-0.9,0.3-1.8,0.5-2.7C298.7,118,297.5,118.5,296.3,119z"/>
		<path fill="#00D88D" d="M471.3,239.2c-0.2-0.3-0.5-0.6-0.5-0.9c-0.1-3.7-0.2-7.3-1.2-10.9c-0.6-2.3-1.4-4.6-2.3-6.7
			c-0.6-1.5-1.6-2.9-2.5-4.2c0,3,0.1,6,0.3,8.9c0.7,2.3,1.6,4.6,2.3,6.9c0.2,0.7,0.3,1.4,0.5,2.2c-2.4-1.3-2.2-3.5-2.6-5.7
			c0.2,2.9,0.5,5.8,0.8,8.7c0.8-0.2,1.5-0.5,1.6-1.8c1,1.3,1.9,2.4,2.8,3.6c-0.1,0.1-0.2,0.3-0.4,0.6c-0.7,1.6-0.7,3.2-0.2,4.8
			c0.3,1.1,0.8,2.2,1.1,3.4c0.5,1.7,1,3.4,1.6,5.2c1.3-1.1,2-2.4,2.3-4.1c0.4-2.4-0.1-4.7-1.3-6.8
			C473.1,241,472.1,240.2,471.3,239.2z"/>
		<path fill="#00D88D" d="M466.8,258.4c0,0.9,0.5,1.1,1.3,0.7c0.3-0.2,0.6-0.3,0.8-0.5c0.7-0.8,1.2-1.6,1.1-2.6h-3.3
			C466.6,257,466.8,257.6,466.8,258.4z"/>
		<path fill="#00D88D" d="M467.8,244.6c-0.3,0-0.5-0.1-0.6-0.1c0.1,0.5,0.2,1,0.3,1.5C467.5,245.5,467.6,245,467.8,244.6z"/>
		<path fill="#00D88D" d="M394,255.5c0.7,4.7,1.5,9.3,1.3,14.1c-0.2,3.4-0.9,6.5-2.7,9.4c-0.1,0.2-0.4,0.3-0.6,0.3
			c-0.2,0-0.5-0.3-0.5-0.5c0-0.3,0.1-0.7,0.2-1.1c0.1-0.5,0.4-1,0.3-1.4c0-0.4-0.4-0.9-0.7-1.1c-0.2-0.2-0.8,0-1.1,0.2
			c-0.5,0.5-1.1,1-1.3,1.6c-0.4,1.2-0.7,2.4-0.9,3.6c-0.3,1.8-0.5,3.7-0.8,5.5c-0.1,0.7,0.2,0.8,0.8,0.7c1-0.2,1.7-0.9,2-1.8
			c0.5-1.3,0.9-2.6,1.3-4c0.6,0.1,0.9,0.6,0.7,1.2c-0.1,0.5-0.4,1.1-0.5,1.6c-0.1,0.6-0.3,1.3-0.2,1.8c0.1,0.3,0.7,0.6,1.1,0.8
			c0.2,0.1,0.6-0.2,0.7-0.5c0.7-1.3,1.5-2.6,2-4c1-3,2.1-6,2.8-9c1.2-5.1,1.4-10.3,0.7-15.6c-0.2-1.9-0.6-3.7-1-5.5
			c-1.3,0.6-2.6,1.2-4,1.7C393.9,254.2,394,254.9,394,255.5z"/>
		<path fill="#00D88D" d="M404.7,54.8c1.2,0,2.4-0.1,3.6,0c2.6,0.2,4.9,1,6,3.8c0.5-0.3,1.1-0.5,1.5-0.8c0.6-0.4,1.1-0.6,1.7,0
			c0.4,0.4,1,0.7,1.5,1.1c0.9,0.5,1.6,1.1,1.7,2.3c1-0.6,2-0.5,3.1-0.2c1.1,0.3,2.2,0.5,3.3,0.8c0.8,0.2,1.3,0,1.8-0.7
			c0.7,0.7,1.4,1.3,2.1,2c1.9,1.9,4,3.5,6.4,4.6c2.2,1,4.7,1.1,6.5-0.9c0.4-0.4,0.4-0.7,0-1c-0.6-0.5-1.2-1-1.9-1.3
			c-1.4-0.6-2.1-1.5-1.9-3.1c0-0.1,0-0.3,0-0.5c-1.4,1.1-2.9,1.2-4.4,0.6c-1.3-0.5-2.6-1.1-3.9-1.8c-2.7-1.3-5.2-3.2-8.2-4
			c-1.2-0.3-2.4-0.3-3.7-0.5c-0.3,0-0.7,0.1-1.1,0.2c0-0.3,0-0.6,0-0.8c0.1-1.3-0.5-2.3-1.8-2.6c-1.7-0.4-3.4-0.7-5-1
			c-2.1-0.4-4.2-0.9-5.9-2.3c-0.3-0.3-0.6-0.2-0.8,0.2c-0.5,0.7-0.6,1.5-0.3,2.2c0.4,1.2,0.6,2.3-0.3,3.4
			C404.6,54.6,404.6,54.7,404.7,54.8z"/>
		<path fill="#00D88D" d="M260.6,270.8c1.8-0.7,3.7-1.1,5.6-0.4c0.9,0.3,1.3,0,1.2-1c0-0.4,0-0.8,0-1.2c0-0.2,0.3-0.6,0.4-0.6
			c0.2,0,0.5,0.2,0.7,0.4c0.4,0.4,0.8,1,1.3,1.4c0.7,0.6,1.3,0.5,2-0.1c1.4-1.3,2.8-2.7,4.3-4c0.2-0.1,0.4-0.2,0.6-0.2
			c0.1,0.3,0.2,0.5,0.2,0.8c0,0.3-0.1,0.5-0.2,0.8c1.4,0.2,2.6-0.1,3.5-1.1c0.4-0.5,0.3-0.9-0.4-1.1c-0.3,0-0.5,0-0.8,0
			c-0.3,0-0.7-0.1-1-0.1c0-0.1-0.1-0.2-0.1-0.3c0.6-0.6,1.2-1.2,1.9-1.7c1.2-0.9,2.5-1.6,3.6-2.5c1.2-0.9,1.7-2.3,1.7-3.8
			c0-0.5,0-0.9-0.8-0.6c-0.7,0.2-1.4,0.3-2.1,0.2c-1.4-0.1-2.9-0.4-4.2-0.6c1.2,1.4,1.1,1.6-0.2,3.1c-1.1,1.2-2.5,2.3-2.9,4
			c-0.2,0.6-0.6,0.7-1,0.2c-0.4-0.4-0.8-0.9-1.1-1.4c-0.7-1.1-1.6-1.9-2.8-2.5c-0.6-0.3-0.9-0.1-1,0.4c-0.3,0.9-0.8,1.4-1.8,1.5
			c0.2,0.8,0.4,1.1,1.1,1.6c0.4,0.2,0.7,0.5,1.1,0.8c0.3,0.3,0.3,0.6-0.1,1c-1.3,1-2.3,1.1-3.7,0c-0.9-0.6-1.8-1.2-2.7-1.9
			c-0.1,0.3-0.1,0.4-0.2,0.5c-0.1,1.8-1.2,3-2.7,3.9c-1,0.6-2,1.2-2.9,1.9c-1.5,1.1-1.8,2.7-1.7,4.6c0.5-0.1,0.9-0.1,1.2-0.3
			C257.9,271.9,259.3,271.3,260.6,270.8z"/>
		<path fill="#00D88D" d="M470.8,124.7c0.8,1.1,1.4,2.4,2.2,3.5c1.1,1.5,2.2,3,3.4,4.4c0.7,0.9,1.6,1.6,2.6,2.3
			c1,0.7,2.1,1.2,3.1,1.8c0.2,0.1,0.5,0.5,0.4,0.7c-0.8,2.7,0,5,2,6.9c1.3,1.2,2.6,1.3,4.1,0.2c0.6-0.4,0.6-1,0.3-1.5
			c-1.2-1.7-2.3-3.4-3.5-5.1c-0.7-1-1.3-2-2-2.9c-1.9-2.5-3.9-5.1-5.9-7.6c-1.5-1.9-3.1-3.9-4.8-5.7c-1-1.1-2.1-2.1-3.2-3.1
			c-1.6-1.6-3.2-3.2-4.9-4.7c0.1,1.3,0.2,2.6,0.2,4C467.2,119.9,469.1,122.2,470.8,124.7z"/>
		<path fill="#00D88D" d="M386.7,256c0,0.4,0,0.8-0.1,1.2c-0.2,3.7-0.2,7.3-1.3,10.9c-0.2,0.6-0.3,1-1.1,1c-0.4,0-1.1,0.2-1.3,0.5
			c-0.4,0.6-0.8,1.4-0.9,2.1c-0.4,2.6-0.7,5.2-2,7.6c1.1,0.7,1.9,0.6,2.3-0.6c0.3-0.9,0.5-1.9,0.7-2.8c0.1-0.4,0.2-0.9,0.3-1.3
			c0.1,0,0.2,0,0.4,0c0.2,0.5,0.5,0.9,0.5,1.4c0.1,1.7-0.7,3.1-1.4,4.5c-0.9,1.8-1.9,3.6-2.5,5.5c-0.4,1.1-0.2,2.3-0.2,3.5
			c0,0.2,0.2,0.4,0.4,0.5c0.1,0,0.4-0.2,0.5-0.3c0.3-0.4,0.7-0.8,0.9-1.3c1-1.8,2-3.6,3-5.4c1.6-3.1,2.7-6.3,3.5-9.7
			c0.7-2.8,1.2-5.6,1.6-8.4c0.5-3.4,0.8-6.8,0.8-10.2c-0.8,0.3-1.6,0.5-2.4,0.8C387.8,255.7,387.3,255.9,386.7,256z"/>
		<path fill="#00D88D" d="M316.9,140.1c-2.3,0.4-4.6,0.8-6.9,1.1c-3.2,0.4-6.3,0.9-9.5,1.1c-2,0.2-4.1,0-6.1,0
			c-0.4,0-0.8,0.2-1.1,0.4c-1.1,1.3-2.7,1.8-4.3,2.2c-1.9,0.5-4,0.6-5.6,1.9c-0.5,0.4-0.8,0.8-1.4,1.3c1.3,0.3,2.3,0.6,3.3,0.7
			c2.5,0.3,5,0.6,7.5,0.1c2.2-0.4,4.3-0.9,5.4-3.1c0.3-0.7,0.9-1,1.7-1c0.8,0.1,1.6,0,2.3,0.1c1.7,0.3,2.8-0.4,3.6-1.9
			c0.1-0.2,0.5-0.4,0.8-0.4c1.8,0.3,3.6,0.7,5.4,1c3.5,0.5,6.9-0.1,9.7-2.4c0.5-0.4,0.8-0.3,1.4-0.1c1,0.4,2.1,0.9,3.2,1.1
			c2.4,0.4,4.8,0.2,7-1c1.1-0.6,2.1-1.3,3.2-2c0-0.1-0.1-0.2-0.1-0.3c-1.2-0.1-2.3-0.4-3.5-0.4C327.5,138.5,322.2,139.1,316.9,140.1
			z"/>
		<path fill="#00D88D" d="M466.8,169.7c0.6-0.9,0.8-1.8,0.5-2.8c-0.4-1.5-1.6-2.5-2.6-3.4v4.6C465.7,168.7,466.1,169.2,466.8,169.7z
			"/>
		<path fill="#00D88D" d="M403.4,257.6c0.1,0.2,0.2,0.3,0.4,0.5c0.7-2.6,1-5.1,0.9-7.7c0-0.7-0.2-1.4-0.5-2
			c-1.1,0.7-2.2,1.3-3.3,1.9C401.7,252.7,402.6,255.1,403.4,257.6z"/>
		<path fill="#00D88D" d="M490.2,194.7c-0.3-0.3-0.6-0.7-0.7-1.2c-0.9-2.4-1.6-4.8-2.5-7.2c-1.6-4.1-4-7.6-7.5-10.3
			c-0.7-0.6-1.1-1.2-1.1-2.1c-0.1-1.1,0-2.1-0.2-3.2c-0.3-1.3-0.8-2.5-1.4-3.7c-0.1-0.2-0.6-0.4-1-0.4c-0.7,0-1.3,0.3-1.9,0.4
			c-1.1,0.2-1.6,1.2-1,2.1c2,3.3,4.1,6.6,6,9.9c1.6,2.9,3.1,5.9,4.6,8.8c2.5,4.8,4.8,9.7,7.6,14.4c0.9,1.5,1.9,3,3,4.6
			c1.5-1.6,1.5-3.4,1-5.1C494,199,492.3,196.7,490.2,194.7z"/>
		<path fill="#00D88D" d="M292,200.8c-1.7,1.2-3.4,2.4-5.1,3.6c-1.2,0.9-2.5,1.8-3.7,2.8c-1,0.9-1.9,1.9-2.9,2.8
			c-3.4,3.2-6.7,6.6-9.7,10.3c-0.3,0.4-0.7,0.7-1.3,0.5c-1.5-0.3-2.8,0.2-3.8,1.3c-1.9,2-3.8,4.1-5.7,6.2c0.1,0.1,0.1,0.1,0.1,0.1
			c3.8-1.3,7.3-3.3,10.5-5.5c2.8-1.9,5.4-4,8-6.1c1.8-1.5,3.6-3,5.3-4.5c2.6-2.3,5.1-4.6,7.8-6.8c0.4-0.3,0.8-0.7,1.3-1
			c0-1.5,0.1-2.9,0.2-4.3C292.7,200.4,292.3,200.6,292,200.8z"/>
		<path fill="#00D88D" d="M422.6,258.4c0.2,0.9,0.5,1.7,0.9,2.8c0.8-1.8,0.9-3.2,0.9-5.2h-2.4C422.1,257,422.4,257.6,422.6,258.4z"
			/>
		<path fill="#00D88D" d="M445.6,257.9c0,0.3,0,0.6-0.1,0.8c-0.7,1.1-1.5,2.2-2.2,3.3c-0.3,0.4-0.8,0.8-1.1,1.2
			c-0.1-0.1-0.2-0.1-0.3-0.2c0-0.6,0.1-1.1,0.1-1.7c0.1-1.8,0.3-3.2,0.5-5.2h-3.8c0,5,0.8,9.4,1.6,14.2c0.7-0.4,0.7-1,0.6-1.5
			c-0.1-1.5,0.8-2.5,1.9-3.4c0.1-0.1,0.6,0,0.7,0.2c0.3,0.8,0.5,1.6,0.8,2.6c0.4-0.6,0.6-1.1,0.9-1.5c1.8-2.8,3.2-5.7,3.9-9
			c0.1-0.5,0.2-1.6,0.2-1.6h-3.9C445.4,257,445.5,257.2,445.6,257.9z"/>
		<path fill="#00D88D" d="M454.1,79c2.3,2.1,4.8,3.9,7.4,5.6c1.6,1,3.2,1.9,5,2.3c0.2,0.6,0.2,1.4,0.6,1.8c1,1.2,2,2.4,3.2,3.3
			c1.2,0.9,2.8,1.5,4.2,2.1c0.6,0.2,1.2,0.3,1.9,0.5c-0.1-0.4-0.1-0.7-0.2-0.9c-0.6-2.2-2-3.8-3.7-5c-2.4-1.7-5.1-3-7.6-4.5
			c-0.8-0.5-1.5-1-2.1-1.7c-0.8-0.8-1.5-1.8-2.3-2.6c-2.4-2.3-4.7-4.7-7.2-6.9c-1.7-1.5-3.6-2.8-5.8-3.6c-1.2-0.5-2.4-0.7-3.8-0.3
			c0.2,0.3,0.3,0.6,0.5,0.7C447.5,72.9,450.8,76,454.1,79z"/>
		<path fill="#00D88D" d="M356.6,70.4c-2.5-0.3-4.9-0.6-7.3-1c-3-0.6-5.9-1.4-8.9-2c-3.2-0.6-6.3-0.4-9.1,1.4
			c-1.1,0.7-2.1,1.6-3.3,2.6c1.5,0.7,2.7,1.3,3.9,1.8c0.2,0.1,0.4,0,0.6-0.1c1.6-1,3.3-1.3,5-1c2.3,0.3,4.5,0.8,6.7,1.3
			c3.3-1,6.6-1.9,10.1-2.6C355,70.7,355.8,70.6,356.6,70.4z"/>
		<path fill="#00D88D" d="M494.5,182.5c-1.1-1.7-2.4-3.4-3.5-5.2c-1.3-2.2-2.6-4.4-3.2-6.9c-0.1-0.3-0.3-0.6-0.5-0.7
			c-1.4-0.8-2.7,0.1-4.2,0.2c1.2,4.7,3.1,9,5.5,13.1c2.4,4,5.2,7.7,8.6,11c0.6-0.8,0.8-2.9,0.6-4.1
			C497.3,187.1,496,184.8,494.5,182.5z"/>
		<path fill="#00D88D" d="M464.8,144.1c1.3,1.9,2.7,3.8,4,5.7c2.3,3.4,4.7,6.8,7.9,9.6c0.8,0.7,1.7,1.3,2.6,2
			c0.1-0.3,0.1-0.4,0.1-0.5c-0.6-1.6-1.1-3.2-1.7-4.8c-1.2-3-2.5-5.9-4.9-8.1c-0.9-0.8-1.9-1.6-3.3-1.4c-0.6,0.1-0.8-0.2-0.9-0.8
			c-0.2-1.5-0.7-2.9-1.6-4.2c-0.7-1-1.3-2-2.3-3v5.5C464.7,144,464.8,144.1,464.8,144.1z"/>
		<path fill="#00D88D" d="M489,162.9c1.2-0.3,1.9-1.2,2.4-2.2c0.1-0.1-0.1-0.5-0.2-0.6c-2.4-2-4.2-4.6-5.8-7.2
			c-2-3.1-3.8-6.4-5.8-9.5c-1.8-2.9-4.3-5.3-7.1-7.2c-0.6-0.5-1.3-0.8-2.1-1.3c0,1.5,0.7,3.9,1.5,5.5c1.7,3.3,4.1,5.9,6.5,8.7
			c1.8,2.2,3.8,4.2,5.6,6.4c1.5,1.8,2.6,3.9,2.9,6.3C486.9,162.4,488.3,163.1,489,162.9z"/>
		<path fill="#00D88D" d="M465.1,196.8c0.6,0.9,1.3,1.8,1.7,2.8c0.7,1.6,1.3,3.2,2,4.8c0.6,1.2,1.3,2.3,2.8,3
			c-0.2-0.8-0.2-1.4-0.4-2c-0.8-2.4-1.5-4.9-2.5-7.1c-1.2-2.7-2-5.3-4-7.9v6.2C464.7,196.6,465,196.7,465.1,196.8z"/>
		<path fill="#00D88D" d="M366.3,135.1c-2.4-1-4.7-2.2-7.2-3.1c-2.1-0.7-4.3-1.3-6.4-1.6c-4.2-0.5-8.3-0.5-12.3,1.3
			c-1.6,0.7-3.1,1.7-4.3,3.2c0.6-0.1,1.3-0.2,1.9-0.2c2.6,0,5.3-0.1,7.9,0c3.1,0.1,6.1,0.5,9.2,0.7c3.5,0.2,6.9,0.3,10.4,0.5
			c0.4,0,0.9-0.1,1.4-0.2C366.7,135.4,366.5,135.2,366.3,135.1z"/>
		<path fill="#00D88D" d="M257.1,241.5c0.1,0.1,0.1,0.2,0.2,0.3c1.6-0.5,3.2-0.8,4.7-1.5c2.3-1.1,4.5-2.4,6.6-3.7
			c3.6-2.2,6.7-5,9.8-7.7c1.9-1.6,3.8-3.4,5.6-5.1c1.1-1,2.1-1.9,3.2-2.9c0-0.1,0-0.2-0.1-0.3c-0.5-0.1-0.9-0.1-1.4-0.2
			c-0.3-0.1-0.7-0.1-0.8-0.3c-0.4-0.7-0.8-0.4-1.2-0.1c-0.5,0.4-1,0.8-1.4,1.2c-0.9,1-1.9,1.3-3.1,0.5c-1,1.5-1.8,2.9-2.8,4.2
			c-2,2.7-4.6,4.9-7.3,6.8c-3.2,2.1-6.4,4.2-9.5,6.4C258.7,239.9,258,240.7,257.1,241.5z"/>
		<path fill="#00D88D" d="M457,42.1c-1.9-0.3-3.8-0.6-5.7-1c-1.3-0.3-2.5-0.6-3.8-1c0,0.1-0.1,0.1-0.1,0.2c0.6,0.6,1.1,1.3,1.7,1.9
			c2.1,2,4.6,3.2,7.3,3.8c3.7,0.8,7.5,1.4,11.2,2.1c2.2,0.4,4.5,0.8,6.6,2c1.2,0.7,2.2,1.5,3.4,2.3c-0.2-1-0.5-2.1-1-3
			c-0.9-1.5-2.2-2.5-3.7-3.3c-1-0.5-2-1-3.1-1.3c-2.5-0.7-5.1-1.3-7.7-1.8C460.3,42.6,458.7,42.4,457,42.1z"/>
		<path fill="#00D88D" d="M348,137.9c-3.1,0-6.3,0.2-9.3,1.1c-0.1,0.1-0.1,0.2-0.2,0.3c0.3,0.2,0.6,0.5,1,0.7
			c3.2,1.8,6.4,1.9,9.7,0.2c0.4-0.2,0.9-0.3,1.3-0.2c3,1,5.9,2.2,8.8,3.2c3.2,1,6.4,1.8,9.8,1.1c1-0.2,2-0.7,2.9-1.1
			c0-0.1,0-0.2-0.1-0.3c-0.2-0.1-0.3-0.2-0.5-0.2c-1.9-0.6-3.9-1.3-5.8-1.8c-2.3-0.7-4.7-1.3-7.1-1.8
			C355.1,138.4,351.6,137.9,348,137.9z"/>
		<path fill="#00D88D" d="M473,52.6c-0.1-0.2-0.4-0.4-0.6-0.4c-1.4-0.2-2.8-0.4-4.2-0.4c-1-0.1-1.8,0.5-2.4,1.3
			c-0.1,0.2-0.1,0.7,0.1,0.9c0.3,0.3,0.7,0.6,1.1,0.8c1.4,0.8,2.8,1.6,4.2,2.5c3.4,2.2,6.8,4.5,10.2,6.8c2.2,1.5,4.4,3.1,6.5,4.6
			c0.9,0.6,1.8,1.3,2.7,1.9c-0.3-1.9-1.3-3.3-2.5-4.7c-1.9-2.1-4.2-3.7-6.4-5.3C478.5,58.4,475.2,56.1,473,52.6z"/>
		<path fill="#00D88D" d="M336.4,61.2c1.3,0.7,1.3,0.7,0.8,1.9c1.9,0,3.8,0,5.7,0c1.3,0,2.5-0.4,3.5-1.2c0.7-0.5,1.2-1.1,2-1.8
			c0.2,0.5,0.4,0.9,0.5,1.4c0.1,0.3,0.1,0.8,0.3,1c0.3,0.3,0.9,0.7,1.2,0.6c1-0.3,2-0.8,3-1.2c0.8-0.3,1.7-1.5,1.6-2.2
			c0-0.6-0.9-1.2-1.9-1.4c-0.2,0-0.4-0.1-0.6-0.1c-0.7-0.1-1-0.4-0.9-1.2c0.1-0.2,0.1-0.5,0.1-0.8c-2.6-0.5-4.9,0-7.3,0.8
			c-2.9,0.9-5.7,1.9-8.6,2.8c-0.5,0.2-0.7,0.6-0.3,1C335.9,61,336.2,61.1,336.4,61.2z"/>
		<path fill="#00D88D" d="M496.7,169.8c-1.2-2.1-2.2-4.3-3-6.6c-0.2-0.4-0.1-1.1-0.7-1.1c-0.5,0-0.9,0.3-1.3,0.5
			c-0.5,0.4-1,0.8-1.6,1.4c0,0.2,0.1,0.7,0.1,1.1c0.4,2.8,0.7,5.6,2,8.2c0.9,1.8,2.1,3.1,4.3,3.2c0.4,0,0.8,0,1.2-0.1
			c0,0.4,0,0.8,0.1,1.2c0.3,2.5,1.7,4.2,3.5,5.7c0.1,0,0.2-0.1,0.4-0.1c-0.2-1.3-0.3-2.6-0.5-3.9
			C500.4,175.9,498.4,172.9,496.7,169.8z"/>
		<path fill="#00D88D" d="M433.1,262.9c0.2,2.8,0.8,5.4,1.9,8c0.3,0.6,0.6,1.2,1,2c0.2-0.3,0.2-0.4,0.3-0.6c0.7-2.5,1-5,1-7.6
			c0-3.1-0.6-5.8-1.4-8.8h-2.9C432.9,258,432.9,260.6,433.1,262.9z"/>
		<path fill="#00D88D" d="M502.3,160.9c-1-2.5-2.8-4.3-5.6-4.9c-0.6-0.1-0.7-0.5-0.5-1c0.3-0.5,0.6-1.1,0.8-1.6
			c0.3-0.8,0-1.3-0.8-1.3c-0.8-0.1-1.5,0-2.4,0c-0.6,2.8-0.2,5.3,1.3,7.6c1.3,2.1,3,3.8,5.5,4.5c1.8,0.5,2.3,2.3,1.2,3.8
			c-0.3,0.5-0.6,0.9-0.9,1.4c-0.1,0.2-0.1,0.5-0.1,0.7c0.8,1.4,1.8,2.7,3.4,3.3c1,0.4,2.1,0,2.5-0.7c-1.3-1.7-1.8-3.8-2.4-5.8
			C503.6,164.8,503,162.8,502.3,160.9z"/>
		<path fill="#00D88D" d="M347.3,277.6c1.1-1.5,2-3.1,2.9-4.7c1.2-2.2,2.4-4.4,3.6-6.6c0.3-0.5,0.2-1-0.4-1.2
			c-0.5-0.2-1.1-0.1-1.7-0.2c-0.4-0.1-0.7-0.2-1.1-0.3c0-0.1-0.1-0.2-0.1-0.3c-5.1,5.6-7.7,12.5-10.2,19.5c0.2,0,0.3,0,0.4,0
			c0.2-0.1,0.5-0.2,0.7-0.3C343.8,282.1,345.7,279.9,347.3,277.6z"/>
		<path fill="#00D88D" d="M260.7,263.7c0.1-0.4,0.2-0.8,0.3-1c0.4-0.7,0.6-1.6,1.2-2c1.3-0.9,2.8-1.5,4.3-2.2
			c1.7-0.7,3.5-1.4,4.9-2.6c1-0.9,1.9-1.9,2.3-3.2c-2-0.6-4.8-0.1-6.7,1.1c-1.3,0.9-2.6,1.8-4,2.6c-1.6,1-3.3,1.9-5.2,1.9
			c-0.9,0-1.9-0.1-2.8-0.2c-0.3,2.3-0.6,4.7-0.9,7.1c0.1,0.1,0.2,0.1,0.3,0.2c0.4-0.2,0.8-0.4,1.2-0.6
			C257.1,263.8,258.6,262.4,260.7,263.7z"/>
		<path fill="#00D88D" d="M473,105.4c-0.4,0.6,0,0.9,0.5,1c1.8,0.5,3.3,1.4,4.7,2.6c2.6,2.2,4.5,5.1,6.6,7.7c1,1.2,2,2.3,3,3.4
			c0.2,0.2,0.7,0.2,1,0.4c0.1-0.4,0.2-0.7,0.3-1.1c0-0.1,0-0.2,0-0.3c-0.3-0.6-0.1-1,0.7-1c-0.5-0.8-0.8-1.6-1.3-2.2
			c-2.3-3.2-5.3-5.7-8.1-8.3c-2.2-2.1-4.3-4.2-6.5-6.3c-0.5-0.4-1-0.9-1.6-1c-1.2-0.2-2.4,0.9-2.6,2.6c0.6,0,1.2,0,1.8,0
			c1.6,0,2,0.5,1.6,2.1C473,105.1,473,105.3,473,105.4z"/>
		<path fill="#00D88D" d="M427.5,256.1c0.1,3.9,0.1,7.8,0.5,11.7c0.2,2.8,0.9,5.4,1.4,8.2c0,0.2,0.3,0.5,0.4,0.7
			c2.9-3.3,2.8-5.3-0.7-7.4c0.3-0.2,0.6-0.3,0.8-0.5c0.9-0.8,1.7-1.7,2.5-2.5c0.4-0.4,0.4-0.9,0.2-1.4c-0.6-2-1.2-3.8-1.7-5.8
			c-0.3-1-0.5-2.1-0.7-3.1L427.5,256.1C427.5,256,427.5,256,427.5,256.1z"/>
		<path fill="#00D88D" d="M456.9,61.6c1.3,1.3,2.5,2.7,3.9,3.8c2.9,2.3,6.1,4.3,9,6.6c2.5,1.9,4.8,4,6.2,6.8
			c0.1,0.3,0.4,0.6,0.7,0.7c1.3,0.6,2.5,1.2,3.8,1.6c1.1,0.4,2.2,0.5,3.4-0.2c-8.8-7.2-16.9-15.1-27.4-19.9
			C456.7,61.2,456.8,61.4,456.9,61.6z"/>
		<path fill="#00D88D" d="M264.5,280.2c0.2,0.1,0.4,0,0.7,0.1c1.5,0.2,2.8-0.5,4.2-0.9c2.8-0.8,2.8-0.8,3-3.7c0-0.3,0-0.6,0-0.8
			c0.1-0.5,0.2-1.1,0.3-1.6c0.1-0.5,0.1-0.8-0.4-1c-0.3-0.1-0.5-0.3-0.8-0.4c-0.7-0.5-1.2-0.2-1.7,0.4c-1.3,1.3-2.5,2.6-4,3.7
			c-1.5,1.2-3.4,1.8-5.4,1.8c-0.3,0-0.6,0.3-0.8,0.5c-0.4,0.7-0.7,1.5-1.2,2.2c-0.7,1.1-1.5,2.1-2.3,3.1c0.7,0.7,1.5,0.8,2.2,0.2
			c0.5-0.5,1-1.1,1.4-1.7c0.7-1,1.5-1,2.1,0.1c0.3,0.6,0.7,0.6,1,0.2c0.3-0.3,0.5-0.8,0.5-1.2C263.3,279.9,263.4,279.8,264.5,280.2z
			"/>
		<path fill="#00D88D" d="M291,211.8c-1.1,0-2.2-0.1-3.3,0.1c-1,0.1-1.8,0.5-2.4,1.4c0.6,0.9,1.3,1.7,2.5,1.9
			c1.4,0.3,2.6-0.1,3.6-1.1c0.1-0.1,0.5-0.3,0.6-0.2c0.2,0.1,0.3,0.4,0.3,0.6c0,0.2,0,0.4-0.1,0.6c-0.5,0.9-0.9,1.7-1.4,2.5
			c-0.3,0.5-0.5,1.1-0.9,1.8c0.6-0.1,1-0.1,1.3-0.1c0.9-0.1,1.8-0.4,2.8-0.4c-0.4-2.3-0.7-4.7-0.9-7.2
			C292.4,211.7,291.7,211.8,291,211.8z"/>
		<path fill="#00D88D" d="M308.7,97.6c-0.2,0-0.5,0.1-0.7,0.1c-0.7,0.2-1.5,0.3-2.3,0.5c-1.5,0.2-2.9-0.1-4.3-1.1
			c-0.1,0.5-0.1,0.9-0.2,1.2c-0.1,0.4-0.2,0.7-0.3,1.1c-0.5,1.2-0.6,1.1,0.8,1.7c0.1,0,0.2,0,0.3,0.1c0.8,0.5,2,0.3,2.1,1.4
			c0.5-0.2,1-0.3,1.4-0.5c0.5-0.9,1-1.8,1.6-2.6C307.8,98.9,308.2,98.3,308.7,97.6z"/>
		<path fill="#00D88D" d="M509.5,138.5c0.5-0.5,1.1-0.9,1.8-1.5c-0.5-0.9-1.1-1.9-1.8-3c-0.7-1.1-0.8-2.3-0.6-3.6
			c-0.4-0.1-0.8-0.2-1.1-0.3c-1.1-0.3-2.2-0.7-2.5-1.8c-0.3-1.3-0.5-2.7-0.6-4c0-0.5-0.1-0.8-0.7-0.8c-1.8-0.3-2.2-0.9-2.2-2.3
			c0-0.6,0-1.3,0-2c-0.4,0.1-0.7,0.2-1,0.2c-0.8,0-1,0.5-0.9,1.2c0,0.3,0.1,0.6,0.2,0.8c0.9,1.6,1.4,3.2,0.4,4.7
			c0.7,0.6,1.4,1.2,2,1.8c0.6,0.5,1.1,1,1.7,1.6c-0.2,0.3-0.5,0.7-0.8,1.1c-0.7,1.4,0.1,2.4,0.8,3.4c1.1,1.5,2.3,2.9,3.5,4.3
			C508.4,139.1,508.9,139.1,509.5,138.5z"/>
		<path fill="#00D88D" d="M467,159.9c1.4,1.5,3.1,3,3,5.3c1.3-0.3,2.2-1.5,2.3-2.8c0.1-2.4-1.2-4.2-2.5-5.9
			c-1.5-1.9-3.1-3.6-5.1-5.2v6.2C465.7,158.3,466.3,159.1,467,159.9z"/>
		<path fill="#00D88D" d="M354,260.5c-0.4,0.6-0.8,1.2-1.2,1.8c0.9,0.8,1.9,1.3,3,0.6c1-0.6,2-1.2,2.4-2.4c-1,0-2.1,0.1-3.1,0.1
			C354.7,260.5,354.4,260.5,354,260.5z"/>
		<path fill="#00D88D" d="M279.6,267c-1.2,0.8-2.3,1.7-3.4,2.7c-0.8,0.8-1.5,1.6-2.2,2.5c-0.4,0.5-0.3,0.9,0.3,1c1,0.1,2,0.3,3,0.4
			c2.3,0.1,4.4-0.4,6.3-1.8c1.7-1.2,2.9-2.8,3.5-5c-0.4-0.2-0.8-0.3-1.2-0.5C283.7,265.7,281.5,265.8,279.6,267z"/>
		<path fill="#00D88D" d="M506.3,150.6c-0.1-0.2-0.7-0.3-0.7-0.2c-0.3,0.4-0.6,0.9-0.7,1.4c-0.1,1,0.1,2-0.1,3.1
			c0,0.4-0.4,0.9-0.8,1.1c-0.2,0.1-0.7-0.3-1.1-0.6c-0.1-0.1-0.2-0.3-0.3-0.4c-0.5-1.2-1.1-2.3-1.6-3.5c-0.6-1.3-1.4-2.4-2.7-3.1
			c-1.6,1.7-0.8,4,0.6,5.6c1.5,1.7,3.4,3.1,5.3,4.2c1.4,0.8,2.9,1.4,4.4,2.1c0.4-2,0.8-3.9,1.2-5.8c0-0.3-0.1-0.7-0.3-0.8
			C508.3,152.9,507.2,151.9,506.3,150.6z"/>
		<path fill="#00D88D" d="M401.8,263.8c0,1.8,0.1,3.6,0.3,5.4c0.3,3.3,1.1,6.6,0,10.1c2.4-1.9,4.2-5.9,4.2-9.5
			c0.1-3.5-0.7-6.7-2.5-9.7C402.2,261,401.8,262.4,401.8,263.8z"/>
		<path fill="#00D88D" d="M488.3,205.9c-0.9-2.2-2.5-3.9-4.7-5.1c-0.9,1.9-0.8,3.7,0.3,5.3c0.6,0.9,1.5,1.7,2.4,2.5
			c0.4,0.4,0.8,0.7,0,1.2c-0.4,0.3-0.7,0.8-1.1,1.3c0.4,0.3,0.6,0.5,0.9,0.6c1,0.3,1.5,1.1,1.7,2c0.1,0.6,0.2,1.3,0.2,2
			c0.1,0.6-0.1,1.4,0.2,1.6c0.4,0.3,1.2,0.1,1.8,0.1c0.6,0,1.2-0.1,1.6-0.1c-0.6-2.3-1.2-4.5-1.8-6.6
			C489.3,209.1,488.9,207.5,488.3,205.9z"/>
		<path fill="#00D88D" d="M468.7,134.1c0-0.3,0.1-0.5,0.1-0.6c-0.2-0.7-0.4-1.3-0.7-2c-0.8-2.2-1.4-4.1-3.4-5.9v6
			C465.7,132.8,467,133.6,468.7,134.1z"/>
		<path fill="#00D88D" d="M486.1,129c0.8,2.4,1.5,4.8,2.3,7.2c0.8,2.5,2.2,4.6,4.6,5.9c0.7,0.4,1.4,0.7,2.1,1
			C495.1,136.9,490.4,129.6,486.1,129z"/>
		<path fill="#00D88D" d="M498.3,145.2c1.4-0.3,2,0.6,2.5,1.7c0.2,0.4,0.5,0.9,0.9,1.2c0.9,0.9,1.6,0.8,1.9-0.4
			c0.3-0.8,0.7-1.6,1.7-1.9c-0.2-1.9-0.6-3.4-1.9-5c-0.5-0.6-1.1-0.7-1.8-0.4c-0.2,0.1-0.5,0.1-0.8,0.2c0-0.3-0.2-0.6-0.1-0.8
			c0.2-0.7,0.5-1.3,0.8-2c0.4-1.2-0.1-2-1.4-1.8c-0.3,0-0.6,0.1-0.8,0.1c-0.6-0.1-0.9,0.2-1,0.7c-0.1,0.8-0.2,1.6-0.1,2.4
			c0.1,0.7,0.6,1.3,0.7,2c0.2,0.6,0.3,1.2,0.2,1.8C498.8,143.8,498.5,144.5,498.3,145.2z"/>
		<path fill="#00D88D" d="M453.4,88.4c1.4,0.6,2.8,1.2,4.1,1.8c1.2,0.6,1.6,1.3,1.3,2.6c-0.1,0.8,0.1,1.2,0.8,1.3
			c1.3,0.3,2.6,0.5,3.5,1.6c0.3-0.6,0.5-1.1,0.7-1.6c0.1,0,0.2,0,0.3,0.1c-0.1-0.4-0.3-0.8-0.4-1.2c-0.9-2.2-2.8-3.4-4.7-4.6
			c-1.7-1.1-3.5-2.1-5.2-3.3c-0.9-0.6-1.5-1.5-2.3-2.4c-0.4,0.7-0.6,1.5-1.1,2.1c-0.1,0.2-0.2,0.4-0.2,0.5
			C451.3,86.3,452.4,87.3,453.4,88.4z"/>
		<path fill="#00D88D" d="M483.6,194.6c0.1-0.2-0.2-0.7-0.4-0.8c-1.3-0.7-2.1-1.8-2.6-3.1c-0.7-1.5-1.2-3-1.9-4.5
			c-0.5-1.1-1.4-1.7-2.3-2.3c-1.5,1.7-1.4,3.8-1.9,5.8c2.4,0.5,3.8,1.3,4.5,3.9c0.3,1.2,0.6,2.5,0.8,3.7c0.2,0.8,0.4,1,1.2,0.6
			C482.5,197.3,483.1,196,483.6,194.6z"/>
		<path fill="#00D88D" d="M458.3,276.7c-1-0.7-1.4-1.8-1.3-2.9c0.1-1.7,0.4-3.4,0.6-5.1c0.1-0.5,0-0.8-0.4-1
			c-0.8-0.4-1.7-0.8-2.7-1.3c-0.1,0.8-0.2,1.4-0.4,2c-0.7,3-0.9,6,0.1,9c0.5,1.5,1.5,2.7,2.9,3.7c0.5-1.1,1-2.2,1.6-3.2
			C458.9,277.4,458.7,277,458.3,276.7z"/>
		<path fill="#00D88D" d="M490.4,121.6c0,5.5,3.5,10.6,7.4,12C499.2,129,494.4,122.4,490.4,121.6z"/>
		<path fill="#00D88D" d="M470.2,191c-0.1,1.3,0,2.6,0.3,3.8c0.5,2,1.6,3.8,2.9,5.4c0.7,0.9,1.5,1.8,2.3,2.7c1.5-2,1.2-5.3-0.4-7.4
			c-1.4-1.9-2.9-3.7-3.5-6.1C470.9,189.7,470.2,190.3,470.2,191z"/>
		<path fill="#00D88D" d="M476.2,205.1c-0.6,0.2-0.8,0.5-0.6,1.1c0.3,1.1,0.6,2.2,1,3.3c1,2.7,2.8,4.8,5.6,6
			c0.1-0.2,0.1-0.4,0.1-0.5c0.2-2.8-0.2-5.6-1.6-8.1C479.6,205,478,204.4,476.2,205.1z"/>
		<path fill="#00D88D" d="M409.6,269.9c-2,1.5-2.7,3.7-2.9,6c-0.2,2.2,0.2,4.2,1.9,5.7c0.4,0.4,0.9,0.6,1.6,1
			c0.9-4.5,0.7-8.9,0.7-13.4C410.3,269.5,409.9,269.6,409.6,269.9z"/>
		<path fill="#00D88D" d="M415.6,247.5c1-1.8,1.4-3.7,1.2-5.8c-0.1-1-0.3-2.1-0.5-3.1c-1.4,1.4-2.8,2.7-4.2,3.9
			C412.3,244.8,413.7,247,415.6,247.5z"/>
		<path fill="#00D88D" d="M275.5,211.9c0.9-1.2,1.8-2.5,2.7-3.8c-4.3-0.1-10.4,4.3-11.9,8.7c1.3-0.2,2.4-0.2,3.5-0.5
			C272.3,215.5,274.1,213.9,275.5,211.9z"/>
		<path fill="#00D88D" d="M400.4,274.9c-1.1,0.3-1.9,1.1-2.3,2.1c-0.6,1.4-1,3-1.2,4.5c-0.5,3-0.7,6-1.1,9
			C399,288.7,402.1,278.3,400.4,274.9z"/>
		<path fill="#00D88D" d="M501.8,114.5c0.8,0.6,1.8,0.9,2.8,1.5c-0.7-4.6-2.6-8.3-4.8-12.1c-1.4,1.2-1.9,2.6-1.8,4.3
			C498.1,111,499.6,113,501.8,114.5z"/>
		<path fill="#00D88D" d="M488.8,90.9c0,0.3-0.1,0.6-0.1,0.8c0.1,0.5,0.3,1,0.5,1.5c0.6,1.2,0.5,2.4-0.4,3.4c0.9,0.5,1.7,1,2.5,1.5
			c0.8,0.4,1.7,1.1,2.7,0.2c0.6,0.8,0.2,1.4-0.2,2c-0.4,0.7-0.8,1.4-1.2,2.2c0.1,0.1,0.1,0.2,0.2,0.2c0.4-0.1,0.8,0,1.1-0.2
			c0.8-0.5,1.6-0.8,2.6-0.1C495.8,97.2,494,93,488.8,90.9z"/>
		<path fill="#00D88D" d="M414.5,273.1c0.1,0,0.2-0.1,0.3-0.1c0.5-2.4,1-4.8,0.8-7.3c-0.1-1.8-0.8-3.5-1.9-4.9
			c-0.5-0.6-1.1-1-1.8-1.6c-0.1,1.2-0.1,2.2-0.2,3.1c-0.1,2.9,0,5.8,1.3,8.5C413.4,271.6,414,272.3,414.5,273.1z"/>
		<path fill="#00D88D" d="M482.6,229c0-0.6-0.1-0.9-0.6-1.1c-0.8-0.4-1.5-0.7-2.4-1.1c-1.8,5.1-0.4,10.6,3.4,13.1
			c-0.1-1.7-0.2-3.2-0.2-4.7C482.7,233.1,482.5,231,482.6,229z"/>
		<path fill="#00D88D" d="M461.4,260.3c1-0.8,1.5-2.3,1.5-4.3h-4C459.5,257,460.3,259,461.4,260.3z"/>
		<path fill="#00D88D" d="M449.9,268.2c-1.5,2.2-2.5,6.7-2.1,9.2c0.2,1.2,0.5,2.4,1.6,3.1c0.9,0.6,1.1,0.5,1.3-0.6
			c0-0.2,0.1-0.5,0.2-0.7c0.6-2.3,1-4.6,0.9-6.9C451.6,270.7,451.1,269.3,449.9,268.2z"/>
		<path fill="#00D88D" d="M479.9,84.5c-0.9-0.6-1.6-0.3-1.7,0.8c-0.2,1.4,0.5,2.6,1,3.8c0.1,0.2,0.4,0.4,0.6,0.5
			c0.8,0.3,1.6,0.6,2.4,0.8c2,0.6,3.5-0.2,4.2-2.4c-0.7-0.2-1.4-0.3-1.9-0.6C482.9,86.4,481.4,85.4,479.9,84.5z"/>
		<path fill="#00D88D" d="M486.2,105c-0.2,1.7,0.4,3,1.7,4c1.6,1.2,3.5,1.6,5.3,2.3c0.3-3.5-3.5-6.8-6.7-7.9
			C486.4,103.9,486.3,104.5,486.2,105z"/>
		<path fill="#00D88D" d="M451.9,256.5c-0.1,1.1,0.6,1.7,1.3,2.3c1.4,1.5,1.4,2,0.4,3.8c-0.1,0.2,0,0.6,0.1,0.8
			c0.6,0.9,1.6,1.2,2.5,1.4c1,0.2,1.2,0.1,1.2-0.9c0.1-0.8,0.1-1.6,0.2-2.5c-0.1,0-0.2-0.1-0.3-0.1c-1.8-0.5-2.4-1.3-2.1-3.1
			c0.1-0.8,0.3-1.2,0.3-2.2h-3.4C452.1,256,451.9,256.3,451.9,256.5z"/>
		<path fill="#00D88D" d="M283.7,176.1c0.8-1,1.2-2.1,1-3.5c-2.1,0.7-4.2,1-5.9,2.4c-1.3,1.1-1.9,2.5-2.1,4.4
			c1.2-0.3,2.2-0.6,3.3-0.9C281.5,178,282.8,177.3,283.7,176.1z"/>
		<path fill="#00D88D" d="M486.3,223.1c-1.4-1.2-2.4-2-1.2-4c0,0,0-0.1,0.1-0.3c-0.6-0.3-1.3-0.7-1.9-1c-0.1,0-0.4,0.2-0.5,0.4
			c-1.7,3-0.5,7.7,3.7,8.5c0.9,0.2,1.2-0.1,1.3-1C487.8,224.5,487.1,223.8,486.3,223.1z"/>
		<path fill="#00D88D" d="M383.7,146.7c-0.1-0.1-0.2-0.1-0.2-0.2c-1.5-0.7-2.9-1.5-4.4-2.1c-1.2-0.5-2.4-0.9-3.7-0.7
			c-1.3,0.2-2.3,0.9-2.6,2.3c1.5-0.2,2.8,0.3,4.1,0.8c0.6,0.2,1.3,0.4,1.9,0.6C380.5,147.2,382.1,147,383.7,146.7
			C383.7,146.7,383.7,146.7,383.7,146.7z"/>
		<path fill="#00D88D" d="M391.3,274.3c0.4,0.3,0.7,0.4,0.9-0.1c0.2-0.5,0.4-0.9,0.6-1.4c1.1-2.7,0.5-5.4,0.1-8.3
			c-0.5,0.4-1,0.7-1.3,1.1c-1,1.2-1.7,2.6-1.8,4.2C389.7,271.5,389.8,273.1,391.3,274.3z"/>
		<path fill="#00D88D" d="M305.4,245.1c1,0.5,2,0.4,2.8,0.1c-0.4-0.4-0.9-0.8-1.3-1.2C306.5,244.3,306,244.6,305.4,245.1z"/>
		<path fill="#00D88D" d="M473.8,231.1c0.4,4,0.4,7.9,2.9,11.1c0.7,0.9,0.8,1,1.4,0c0.9-1.5,0.5-3-0.2-4.3
			C476.7,235.6,475.2,233.4,473.8,231.1z"/>
		<path fill="#00D88D" d="M269.4,227.7c-3.8-0.7-7.6,3.2-8.5,6.2C264.6,234.5,268.6,230.5,269.4,227.7z"/>
		<path fill="#00D88D" d="M469.4,171.8c-0.1-0.1-0.7,0-0.8,0.2c-0.6,0.9-0.6,1.9-0.3,2.9c0.6,2.1,2.1,3.5,4.1,4.4
			c0.4,0.2,0.8,0.2,1.2,0.3c0.3-1.7-0.2-3.2-1-4.4C471.8,174,470.5,172.9,469.4,171.8z"/>
		<path fill="#00D88D" d="M493.6,150.2c0.2-0.3,0.5-0.8,0.4-1.1c-0.6-1.1-1.2-2.1-1.9-3.2c-0.7-1.2-2.4-1.4-2.9-0.4
			c-0.6,1.1-0.7,2.4-0.1,3.5c0.7,1.4,1.9,2.4,3.5,3.2C492.3,151.2,493,150.8,493.6,150.2z"/>
		<path fill="#00D88D" d="M446.1,283.5c1.2-1.6,1-7.8-0.3-9.6C442,276.3,443.3,282,446.1,283.5z"/>
		<path fill="#00D88D" d="M480.4,162.7c-0.2-0.1-0.6,0-0.7,0.1c-0.7,0.6-1,2.2-0.5,3.1c0.8,1.6,2.3,2.2,4.2,2.5
			c0.2-0.1,0.6-0.3,0.8-0.5c0.3-0.4,0.4-0.9,0.7-1.3c0.3-0.6,0.2-1.2-0.3-1.5C483.1,164.2,481.8,163.5,480.4,162.7z"/>
		<path fill="#00D88D" d="M479.1,225.2c0.2-1.8-0.6-2.8-2.8-3.5c0.4-0.9,0.8-1.7,1.2-2.6c-0.1,0.1-0.2,0.2-0.4,0.2
			c-0.4-0.5-0.7-1.1-1.1-1.5c-0.3-0.3-0.9-0.4-1.3-0.3c-0.2,0-0.5,0.5-0.6,0.9c-0.4,1.7,0.3,2.9,1.7,3.7c-0.1,0.5-0.3,1-0.4,1.4
			c-0.3,1.6,2.2,2.7,3.3,2.3C479,225.7,479.1,225.4,479.1,225.2z"/>
		<path fill="#00D88D" d="M481.1,95.9c-0.6,0.6-1.4,1.1-1.9,1.8c-0.7,1-0.5,2.3-0.4,3.5c0,0.1,0.3,0.3,0.4,0.3c1.6,0,3.1,0,4.7,0
			c0.8,0,1-0.5,0.8-1.1c-0.1-0.4-0.4-0.9-0.8-1.2c-0.4-0.4-0.9-0.7-1.4-1c-0.8-0.5-1.4-1.2-1.2-2.3C481.3,96,481.2,96,481.1,95.9z"
			/>
		<path fill="#00D88D" d="M507.5,105.8c0.3-2.7-0.8-4.6-2.8-6.2c-0.9,0.7-1.8,1.3-2.7,1.9C502.3,103.6,505,105.9,507.5,105.8z"/>
		<path fill="#00D88D" d="M443.3,51.8c0.5-1.6-0.4-2.5-1.8-2.9c-2.3-0.7-4.8-0.8-6.8-2.3c-0.1,0.1-0.2,0.1-0.3,0.2
			c0.4,0.8,0.6,1.7,1.2,2.3c1.1,1,2.3,1.9,3.8,2.2C440.8,51.3,442,51.5,443.3,51.8z"/>
		<path fill="#00D88D" d="M505.7,119.5c-1.1,1.4-1.2,2.7-0.1,4c0.7,0.8,1.6,1.4,2.3,2.1c0.9,0.8,1.8,1.6,1.8,3.2
			C511,126.5,508.1,120.2,505.7,119.5z"/>
		<path fill="#00D88D" d="M272.3,178.2c-0.7,0-1.4,0.1-2.1,0.1c-0.7,0-1.4,0-2.2,0c-2.1,0.1-3.4,1.2-4,3.3
			C267.4,182.2,271.3,180.6,272.3,178.2z"/>
		<path fill="#00D88D" d="M494.2,112.7c-0.9,1.2-0.2,2.4,0.2,3.5c0.4,1,1.2,1.8,1.9,2.6c0.6,0.7,1.3,1.2,2,1.8
			c0.1-0.1,0.3-0.1,0.4-0.2c-0.2-1-0.2-2-0.6-2.8c-0.8-1.7-1.9-3.3-2.8-4.9C494.8,111.9,494.4,112.4,494.2,112.7z"/>
		<path fill="#00D88D" d="M465.7,209.4c0,0.2,0,0.6,0.1,0.7c0.2,0.3,0.6,0.7,0.9,0.8c0.1,0.1,0.5-0.4,0.7-0.7
			c0.1-0.2,0.2-0.4,0.3-0.6c0.9-2.1,0-4.7-2.1-5.9c-0.3,0.6,0,1.2-1,1.9v2.2C465.7,208.1,465.6,208.4,465.7,209.4z"/>
		<path fill="#00D88D" d="M301.7,283.2c-0.4-0.8-1.2-0.9-1.9-0.3c-1.2,1-1,3.8,0.4,4.8c0.2,0.2,0.9,0.1,1.2,0
			c1.2-0.6,1.7-1.9,2.2-3.1c-0.4-0.2-0.7-0.4-1-0.6C302.2,283.8,301.9,283.5,301.7,283.2z"/>
		<path fill="#00D88D" d="M472.5,222.3c-0.6-0.3-1.2-0.5-1.8-0.7c-0.7,3.4,0.5,6.9,3.5,8.3c0.4-0.9,0.2-1.7-0.3-2.4
			c-0.4-0.5-0.7-1.1-1.1-1.7c-0.5-0.8-0.6-1.7-0.2-2.6C472.8,222.9,472.7,222.4,472.5,222.3z"/>
		<path fill="#00D88D" d="M264.4,220.2c0.5-0.9,0.8-2,1.1-3.1c0.1-0.3,0-1-0.1-1c-0.4-0.2-0.9-0.2-1.3,0c-1.6,0.6-2.4,1.9-2.7,3.5
			c-0.2,1.1,0.1,1.6,1.4,1.8C263.3,221,264.1,220.7,264.4,220.2z"/>
		<path fill="#00D88D" d="M484.9,56.7c1,0.4,2,0,2.7-1c-1.8,0.3-2.7-0.8-3.6-1.9c-0.7-0.7-1.1-1.7-2.1-2.1c-0.5-0.2-1.1-0.4-1.6-0.5
			c0.1,0.6,0,1.3,0.3,1.8C481.4,55,483,56.1,484.9,56.7z"/>
		<path fill="#00D88D" d="M468.6,101.5c0.2,0.1,0.7,0,0.8-0.2c0.5-0.7,0.8-1.5,1.2-2.3c0.2-0.4,0-0.5-0.4-0.8
			c-0.7-0.4-1.4-0.9-2.1-1.4c-0.5-0.4-0.9-0.9-1.4-1.3c-0.1,0.1-0.2,0.1-0.3,0.2c0,1-0.1,1.9,0,2.9
			C466.6,99.9,467.4,100.8,468.6,101.5z"/>
		<path fill="#00D88D" d="M402.7,284.1c-0.7,1.2-1.3,2.5-1.9,3.8c-0.1,0.1,0.2,0.6,0.3,0.6c1.4,0.3,2.5-0.2,2.9-1.6
			c0.4-1.3,0.8-2.6,1.2-4.2c-0.6,0.1-1.1,0-1.4,0.2C403.4,283.2,402.9,283.7,402.7,284.1z"/>
		<path fill="#00D88D" d="M293.4,126.9c-2.6-0.5-5.2,0.5-5.9,2.7C289.9,131.5,292.3,129.7,293.4,126.9z"/>
		<path fill="#00D88D" d="M458.1,284.7c-0.5,0-0.9,0-1.3-0.1c-0.1-0.2-0.2-0.4-0.4-0.9c-0.4,0.5-0.9,0.8-1,1.1
			c-0.5,1.2-0.6,2.5-0.1,3.8c0.1,0.3,0.4,0.5,0.6,0.7c0.3,0.3,0.6,0.4,0.9-0.1c0.2-0.3,0.6-0.6,1-0.7c0.7-0.2,0.7-0.8,0.5-1.2
			C457.8,286.5,457.4,285.7,458.1,284.7z"/>
		<path fill="#00D88D" d="M284,215.6c-2.6-0.2-5.3,2-5.9,4.5C280.3,220.2,283.7,218,284,215.6z"/>
		<path fill="#00D88D" d="M405.8,253.2c-0.1,1,0,2.1,0.3,3c0.3,0.8,0.8,1.7,1.7,2.1c0.2,0.1,0.6,0.1,0.7,0c0.7-0.7,0.6-2.4-0.1-3.1
			c-0.8-0.8-1.4-1.6-1-2.9C406.3,252,405.9,252.2,405.8,253.2z"/>
		<path fill="#00D88D" d="M312.4,264c-1.6-0.6-4.7,1.8-5.9,4.6C309.1,268.5,312.3,266,312.4,264z"/>
		<path fill="#00D88D" d="M263.1,206.9c1.6-0.3,2.8-1.3,3.5-2.7c-0.9-0.8-1.7-1-2.6-0.5c-0.8,0.4-1.5,1-2.3,1.4
			c-0.5,0.3-0.4,0.6-0.3,1C261.7,206.8,262.3,207.1,263.1,206.9z"/>
		<path fill="#00D88D" d="M304.8,284.2c0.7,0.2,1.1-0.2,1.3-0.7c0.3-0.7,0.5-1.5,0.7-2.3c-0.1-1.1-0.3-1.4-1-1.3
			c-1.1,0.1-2.4,1.7-2.3,2.9C303.5,283.7,304.1,284,304.8,284.2z"/>
		<path fill="#00D88D" d="M464.2,263.5c-0.2-0.4-1.2-0.6-1.4-0.2c-0.6,1.1-1.1,2.2-1.6,3.3c1.1,0.3,2.2,0.5,3.4,0.8
			c0-0.7,0.1-1.4,0.1-2.1C464.6,264.7,464.4,264.1,464.2,263.5z"/>
		<path fill="#00D88D" d="M262,271.9c-0.7,0.4-1.2,1.4-1,1.8c0.3,0.6,1.3,1.1,2.1,0.8c1.2-0.5,2-1.3,2.4-2.6
			C264.2,271.1,263.1,271.2,262,271.9z"/>
		<path fill="#00D88D" d="M408.1,263.5c0.2,1.3,0.5,2.6,0.8,3.9c1.6-0.4,1.9-0.9,1.4-2.4c-0.4-1.2-1-2.4-0.4-3.7
			C408.6,261.3,408,262.5,408.1,263.5z"/>
		<path fill="#00D88D" d="M277.9,149.6c1.1-0.3,1.7-1.2,1.9-2.4c-1.9-0.9-3-0.6-4.6,1.5C276,149.3,276.8,149.9,277.9,149.6z"/>
		<path fill="#00D88D" d="M363.7,281.2c0.6,0.3,1,0.3,1.3-0.5c0.2-0.6,0.6-1.1,0.8-1.6c0.3-0.6,0.3-1-0.5-1.2c-0.2,0-0.6,0-0.6,0
			c0,0,0,0,0,0c-1,0-0.6,0-0.9,0c-1.2,0.2-2,1.5-1.3,2.3C362.8,280.6,363.3,281,363.7,281.2z"/>
		<path fill="#00D88D" d="M467.3,212.5c-0.3,0.2-0.4,0.9-0.4,1.5c0,0.2,0.2,0.4,0.3,0.5c0.4,0.6,0.9,1.2,1.4,2
			c0.7,0,1.1-0.5,1.3-1.2c0.2-1.1-0.3-2-1-2.6C468.4,212.4,467.6,212.2,467.3,212.5z"/>
		<path fill="#00D88D" d="M372.6,147.9C372.6,148,372.7,148,372.6,147.9c0.1,0,0.1,0,0.2,0C372.8,148,372.7,147.9,372.6,147.9z"/>
		<path fill="#00D88D" d="M298.7,252.4c1.4-1.1,2.6-2.4,4-3.7c-1.9-0.7-4,1.4-5.7,3.9C297.7,252.5,298.4,252.7,298.7,252.4z"/>
		<path fill="#00D88D" d="M409.5,45c-1-0.8-1.8-0.4-2.5,0.5c-0.1,0.2-0.2,0.5-0.3,0.8c1.3,0.6,2.6,1.3,3.9,1.9
			C410.9,46.8,410.5,45.8,409.5,45z"/>
		<path fill="#00D88D" d="M276,222.7c0.2-0.5,0-0.7-0.4-0.9c-0.8-0.3-1.4,0-2.2,0.9c-0.5,0.5-1.1,0.9-1.8,1.5c0,0.5,0.5,0.9,1.3,0.9
			C274.1,225,275.6,223.9,276,222.7z"/>
		<path fill="#00D88D" d="M460.7,274.3c-0.8-0.1-0.7,0.8-1.1,1.3c-0.1,0.1-0.1,0.1-0.1,0.2c-0.3,0.9,0.2,2.1,1.1,2.4
			c0.2,0.1,0.7,0,0.8-0.1c0.3-0.6,0.6-1.2,0.7-1.5C462.1,275.4,461.4,274.3,460.7,274.3z"/>
		<path fill="#00D88D" d="M263.1,254.2c1,0,1.8-0.6,2.2-1.7c0.3-0.9,0.1-1.2-0.8-1.3c-1.3-0.1-1.8,0.7-2.4,1.6
			c-0.5,0.9-0.5,1,0.5,1.3C262.8,254.2,263,254.2,263.1,254.2z"/>
		<path fill="#00D88D" d="M473.1,211.1c-0.3,0.4-0.7,0.7-0.9,1.1c-0.2,0.3-0.2,0.6-0.2,1c-0.1,0.8,0.4,1.4,1,1.8
			c0.2,0.1,0.8,0.1,0.9,0c0.3-0.9,0.6-1.7,0.6-2.6C474.3,211.9,473.5,211.5,473.1,211.1z"/>
		<path fill="#00D88D" d="M324.7,255.3c1.7,0.7,3.5,1.3,5.3,1.8l0,0C328.2,256.6,326.4,256,324.7,255.3z"/>
		<path fill="#00D88D" d="M361.2,260h0.1H361.2c1.2,0,2.5,0.1,3.5,0v0C363.7,260.1,362.4,260,361.2,260z"/>
		<path fill="#00D88D" d="M368.2,259.7L368.2,259.7c1.4-0.2,2.8-0.3,4.1-0.6l0,0C371,259.4,369.6,259.6,368.2,259.7z"/>
	</g>
	<g>
		<path fill="#FFFFFF" d="M927.3,174.8c11.4,0,20.1,2.9,26.2,8.7c6.1,5.8,9.2,14.6,9.2,26.4c0,6.2-0.7,11.7-2.1,16.5
			c-1.4,4.8-3.5,8.8-6.4,12.1c-2.9,3.3-6.6,5.8-11.1,7.5c-4.5,1.7-9.8,2.6-15.9,2.6H902v-73.8H927.3z M928.1,240.3
			c1.1,0,2.5-0.1,4.1-0.3c1.7-0.2,3.4-0.6,5.3-1.2c1.9-0.7,3.7-1.6,5.5-2.8c1.8-1.2,3.5-2.9,4.9-5.1c1.4-2.1,2.6-4.8,3.6-8
			c0.9-3.2,1.4-7.1,1.4-11.6c0-4.4-0.4-8.4-1.3-11.8c-0.9-3.5-2.3-6.4-4.2-8.9c-2-2.4-4.5-4.3-7.6-5.6c-3.1-1.3-6.9-1.9-11.5-1.9
			h-16.5v57.2H928.1z"/>
		<path fill="#FFFFFF" d="M1031.1,248.6l-16.8-62h-0.2l-17,62h-10.2l-18.9-73.8h10l14.5,61.4h0.2l16.5-61.4h10.6l16.3,61.4h0.2
			l15-61.4h9.8l-19.7,73.8H1031.1z"/>
		<path fill="#FFFFFF" d="M1084,174.8l23.2,62l23.3-62h13.4v73.8h-9.3v-61.4h-0.2l-23,61.4h-8.4l-23-61.4h-0.2v61.4h-9.3v-73.8H1084
			z"/>
	</g>
</g>
</svg>
